<svg width="151" height="141" viewBox="0 0 151 141" fill="none" xmlns="http://www.w3.org/2000/svg">
<path d="M149.753 136.13L35.965 24.9282C34.9559 23.9249 33.3269 23.9249 32.319 24.9282L21.2242 36.0218L4.95728 19.7294C4.21494 18.9801 3.09045 18.7573 2.11719 19.1672C1.14509 19.577 0.518187 20.5364 0.535506 21.5916V137.966C0.535506 138.651 0.807971 139.31 1.29286 139.794C1.77775 140.279 2.43583 140.552 3.1216 140.552H147.943C148.996 140.558 149.947 139.923 150.348 138.948C150.74 137.975 150.505 136.862 149.753 136.13V136.13ZM5.70621 135.38V27.7983L19.3871 41.53C19.872 42.0195 20.5335 42.2954 21.2227 42.2954C21.912 42.2954 22.5735 42.0195 23.0584 41.53L34.1786 30.4098L141.606 135.378L5.70621 135.38Z" fill="black"/>
<path d="M96.506 43.4446C96.9447 44.3139 97.8348 44.8635 98.8081 44.8669C99.0886 44.8623 99.3668 44.8184 99.6359 44.7376L115.152 39.5654C115.92 39.308 116.524 38.7042 116.781 37.9364L121.954 22.4199C122.395 21.1141 121.734 19.6929 120.454 19.1871L107.523 14.015C106.849 13.7113 106.077 13.7113 105.403 14.015L95.0582 19.1871C94.3875 19.5254 93.8957 20.1385 93.7132 20.8681L91.1271 31.2125C90.9805 31.8128 91.0544 32.4455 91.3338 32.9962L96.506 43.4446ZM98.4455 23.3771L106.696 19.2648L116.264 23.0919L112.281 35.0654L100.126 39.1257L96.3764 31.626L98.4455 23.3771Z" fill="black"/>
<path d="M115.282 56.4253L106.231 52.8048C105.557 52.5011 104.785 52.5011 104.11 52.8048L96.8693 56.4253C96.1985 56.7636 95.7067 57.3766 95.5243 58.1063L93.6367 65.5539C93.49 66.1542 93.5639 66.7869 93.8433 67.3388L97.4639 74.5798C97.9026 75.4492 98.7915 75.9987 99.7659 76.0022C100.041 76.0391 100.319 76.0391 100.594 76.0022L111.455 72.3817C112.223 72.123 112.827 71.5204 113.084 70.7515L116.705 59.8899C116.993 59.2445 117.005 58.508 116.736 57.8534C116.467 57.1976 115.942 56.6816 115.282 56.4253V56.4253ZM108.663 67.6495L101.163 70.2356L98.9648 65.8393L100.258 60.6671L105.43 58.081L111.119 60.3565L108.663 67.6495Z" fill="black"/>
<path d="M60.688 33.8746C61.1648 34.2371 61.7455 34.4357 62.3435 34.4438C62.5502 34.468 62.758 34.468 62.9647 34.4438L81.9977 29.6076C83.3312 29.2751 84.1717 27.9578 83.9119 26.6083L80.7045 10.1868C80.5706 9.46639 80.1388 8.83719 79.5154 8.45389L67.774 1.31568C67.1263 0.928921 66.3424 0.844629 65.6278 1.08362L53.4211 5.11734C52.8346 5.31707 52.3382 5.72115 52.0241 6.25569L44.8871 18.1517C44.1598 19.2727 44.4057 20.7643 45.4563 21.5911L60.688 33.8746ZM55.9556 9.71989L66.0667 6.35797L75.9459 12.306L78.3773 25.2364L62.8608 29.0902L50.4729 19.0044L55.9556 9.71989Z" fill="black"/>
</svg>
