<?xml version="1.0" encoding="UTF-8"?>
<svg width="700pt" height="700pt" version="1.1" viewBox="0 0 700 700" xmlns="http://www.w3.org/2000/svg">
 <path d="m513.33 29.168h-280c-35.57 0.042969-69.668 14.191-94.82 39.344-25.152 25.152-39.301 59.25-39.344 94.82v306.11c0.011719 15.797 5.8516 31.035 16.398 42.793 10.543 11.762 25.055 19.223 40.758 20.953 15.699 1.7305 31.488-2.3906 44.344-11.57l62.324-44.613h-0.003907c4.9531-3.5508 10.895-5.4648 16.988-5.4648s12.035 1.9141 16.988 5.4648l62.367 44.613c12.855 9.1914 28.648 13.316 44.355 11.59 15.707-1.7305 30.223-9.1914 40.77-20.957 10.551-11.762 16.391-27.004 16.398-42.809v-171.94h99.145c10.824-0.011719 21.203-4.3203 28.859-11.973 7.6562-7.6562 11.961-18.035 11.973-28.859v-140c-0.03125-23.199-9.2578-45.438-25.66-61.84s-38.641-25.629-61.84-25.66zm-71.305 37.121c-1.0273 1.4688-1.9375 3.0117-2.8945 4.5508-1.8242 2.9219-3.4688 5.9531-4.9219 9.0781-0.81641 1.7266-1.5625 3.4297-2.332 5.2031h-0.003906c-1.2891 3.3906-2.3633 6.8555-3.2188 10.383-0.42188 1.6562-0.93359 3.2422-1.2617 4.9453h0.003907c-1.0508 5.3828-1.5977 10.852-1.6367 16.336v352.66c-0.011719 7.1836-2.668 14.105-7.4648 19.449s-11.391 8.7344-18.531 9.5195c-7.1367 0.78516-14.312-1.0859-20.156-5.2617l-62.277-44.613c-10.887-7.7891-23.941-11.977-37.332-11.977s-26.445 4.1875-37.332 11.977l-62.348 44.613c-5.8398 4.1875-13.02 6.0664-20.164 5.2852-7.1406-0.78125-13.742-4.1719-18.539-9.5234-4.7969-5.3516-7.4492-12.281-7.4492-19.469v-306.11c0.03125-26.289 10.488-51.496 29.078-70.086s43.797-29.047 70.086-29.078h210c-0.46484 0.67578-0.81641 1.4453-1.3047 2.1211zm123.8 190.38c0 1.5469-0.61328 3.0312-1.707 4.125s-2.5781 1.707-4.125 1.707h-99.168v-145.83c0-18.758 10.008-36.09 26.25-45.469 16.246-9.3789 36.258-9.3789 52.5 0 16.246 9.3789 26.25 26.711 26.25 45.469z"/>
</svg>
