<svg width="150" height="150" viewBox="0 0 150 150" fill="none" xmlns="http://www.w3.org/2000/svg">
<path d="M123.172 0H39.9091C29.3317 0.0127776 19.192 4.21996 11.7126 11.6997C4.23319 19.1791 0.0257263 29.3188 0.0129395 39.8962V130.924C0.0164243 135.621 1.75302 140.153 4.88919 143.649C8.02435 147.147 12.3398 149.365 17.0093 149.88C21.6777 150.394 26.3729 149.169 30.1959 146.439L48.729 133.173H48.7279C50.2008 132.117 51.9677 131.548 53.7796 131.548C55.5915 131.548 57.3584 132.117 58.8313 133.173L77.3773 146.439C81.1999 149.172 85.8963 150.399 90.567 149.886C95.2378 149.371 99.5544 147.152 102.691 143.654C105.828 140.156 107.565 135.624 107.567 130.924V79.7941H137.05C140.268 79.7906 143.355 78.5094 145.631 76.2337C147.908 73.957 149.188 70.8707 149.192 67.652V26.0203C149.182 19.1217 146.439 12.5085 141.561 7.63107C136.684 2.75363 130.071 0.0098134 123.172 0.000594978L123.172 0ZM101.968 11.0386C101.663 11.4754 101.392 11.9342 101.108 12.3919C100.565 13.2608 100.076 14.1622 99.6441 15.0914C99.4013 15.6049 99.1794 16.1113 98.9506 16.6387H98.9495C98.5661 17.6469 98.2467 18.6773 97.9923 19.7262C97.8668 20.2187 97.7147 20.6904 97.6171 21.1968H97.6183C97.3058 22.7975 97.1431 24.4239 97.1316 26.0546V130.925C97.1281 133.061 96.3382 135.119 94.9118 136.708C93.4853 138.297 91.5244 139.306 89.4012 139.539C87.279 139.772 85.1453 139.216 83.4075 137.974L64.8882 124.708C61.6508 122.392 57.7689 121.146 53.7869 121.146C49.8048 121.146 45.923 122.391 42.6855 124.708L24.1452 137.974C22.4086 139.22 20.2734 139.778 18.149 139.546C16.0256 139.314 14.0626 138.305 12.6361 136.714C11.2097 135.123 10.421 133.062 10.421 130.925V39.897C10.4303 32.0795 13.5398 24.5837 19.0678 19.0556C24.5959 13.5276 32.0917 10.418 39.9092 10.4088H102.357C102.218 10.6097 102.114 10.8386 101.969 11.0395L101.968 11.0386ZM138.783 67.6517C138.783 68.1117 138.6 68.553 138.275 68.8783C137.95 69.2036 137.508 69.3859 137.048 69.3859H107.559V26.0206C107.559 20.4426 110.535 15.2886 115.365 12.4996C120.196 9.7106 126.147 9.7106 130.977 12.4996C135.808 15.2886 138.783 20.4426 138.783 26.0206V67.6517Z" fill="black"/>
</svg>
