<svg width="207" height="218" viewBox="0 0 207 218" fill="none" xmlns="http://www.w3.org/2000/svg">
<path d="M84.0679 0.83277C74.5545 0.717535 65.4146 4.52849 58.8019 11.3685C50.0459 11.6862 41.8593 15.7969 36.3739 22.632C30.8903 29.4655 28.6483 38.3467 30.2337 46.9661C22.3484 49.9145 15.9759 55.9051 12.5502 63.5944C9.12276 71.2855 8.92684 80.0285 12.0069 87.8645C5.84519 92.3966 1.78894 99.238 0.768237 106.82C-0.250777 114.401 1.85472 122.072 6.60081 128.071C1.39701 136.58 0.297503 146.98 3.60799 156.389C6.91848 165.799 14.2887 173.219 23.6752 176.595C23.9698 183.318 26.5445 189.741 30.9726 194.81C35.4027 199.877 41.4228 203.288 48.0472 204.481C55.0223 212.447 65.0641 217.062 75.6525 217.167C86.2409 217.271 96.3716 212.856 103.503 205.028C110.634 212.856 120.765 217.271 131.354 217.167C141.944 217.062 151.984 212.448 158.96 204.481C165.335 203.329 171.156 200.122 175.536 195.35C179.917 190.578 182.615 184.503 183.217 178.053C192.296 174.115 199.281 166.513 202.435 157.131C205.59 147.751 204.618 137.473 199.764 128.848C204.834 122.889 207.2 115.09 206.294 107.317C205.389 99.5457 201.295 92.4981 194.991 87.8641C198.071 80.0281 197.876 71.2851 194.448 63.594C191.022 55.9046 184.65 49.914 176.765 46.9657C178.35 38.3462 176.108 29.465 170.623 22.6316C165.139 15.7964 156.952 11.6858 148.196 11.3681C142.474 5.45163 134.827 1.77382 126.634 0.993756C118.441 0.213439 110.24 2.38316 103.503 7.1129C97.8057 3.10933 91.0317 0.920006 84.0684 0.83277H84.0679ZM84.4712 5.83555V5.83719C90.4238 6.00346 96.1873 7.9641 101.007 11.4641V59.056C94.0502 51.2154 83.6148 47.4027 73.2422 48.9139C62.8696 50.4252 53.9551 57.0559 49.5255 66.5562C48.9427 67.8073 49.4843 69.2955 50.7354 69.8782C51.9866 70.461 53.4747 69.9194 54.0575 68.6683C56.8313 62.724 61.7388 58.0386 67.8066 55.5463C73.876 53.0539 80.6585 52.9354 86.8105 55.2154C92.9608 57.4954 98.0293 62.0075 101.008 67.8515V153.01C97.3217 148.212 92.332 144.578 86.636 142.54C80.94 140.502 74.7783 140.146 68.885 141.516C67.5417 141.828 66.7054 143.172 67.0182 144.517C67.331 145.86 68.6743 146.696 70.0176 146.383C76.3652 144.91 83.0326 145.824 88.748 148.952C94.4634 152.079 98.8277 157.202 101.007 163.343V200.275C94.8309 207.879 85.5283 212.256 75.7313 212.166C65.9348 212.077 56.7144 207.53 50.6778 199.814C44.2097 199.121 38.2786 195.9 34.1747 190.852C30.0707 185.806 28.1251 179.342 28.7635 172.869C19.8246 170.877 12.41 164.662 8.8856 156.208C5.36106 147.753 6.16772 138.112 11.0454 130.361C15.9247 122.608 24.2677 117.711 33.414 117.232C42.562 116.752 51.3707 120.749 57.0355 127.948C57.8948 129.011 59.4505 129.187 60.5254 128.341C61.6021 127.495 61.7963 125.941 60.9633 124.854C56.1119 118.696 49.2358 114.452 41.5561 112.88C41.0326 108.336 42.7151 103.816 46.0831 100.721C49.4513 97.626 54.0987 96.3304 58.581 97.2375C59.9358 97.5091 61.2561 96.6333 61.5294 95.2769C61.8026 93.9221 60.9252 92.6034 59.5704 92.3302C53.7281 91.1515 47.6701 92.7401 43.1579 96.6317C38.6456 100.525 36.1862 106.285 36.4942 112.236C26.2383 111.742 16.3297 116.025 9.6644 123.837C5.80074 118.286 4.55289 111.324 6.24686 104.777C7.94244 98.228 12.4086 92.7461 18.4797 89.7649C14.1158 82.352 13.6366 73.2782 17.1956 65.4472C20.7547 57.6162 27.9058 52.0091 36.3609 50.4225C33.5081 42.9206 34.4052 34.5068 38.7759 27.7757C43.1466 21.0442 50.4672 16.8021 58.4811 16.3542C66.495 15.9062 74.2404 19.3091 79.3334 25.5118C80.2174 26.5522 81.7731 26.6889 82.8266 25.8213C83.8802 24.9537 84.0432 23.4014 83.1937 22.333C78.7439 16.932 72.556 13.2462 65.688 11.906C71.068 7.78888 77.6987 5.64697 84.4711 5.83661L84.4712 5.83555ZM122.527 5.83555V5.83719C131.543 5.58038 140.182 9.45718 145.987 16.3615C153.561 16.0274 160.88 19.1272 165.912 24.7968C170.945 30.4663 173.154 38.103 171.924 45.5834C165.423 44.2829 158.677 45.0731 152.654 47.842C146.63 50.6109 141.637 55.2153 138.391 60.9952C137.798 62.187 138.243 63.6341 139.402 64.2876C140.562 64.9395 142.029 64.5691 142.74 63.4448C146.227 57.3652 151.987 52.9204 158.753 51.0902C165.517 49.2612 172.732 50.1946 178.808 53.6879C184.885 57.1811 189.323 62.9462 191.145 69.7119C192.967 76.4796 192.026 83.6932 188.528 89.766C195.522 93.2082 200.319 99.9346 201.299 107.668C202.277 115.402 199.304 123.111 193.386 128.187C198.443 135.009 200.365 143.656 198.677 151.978C196.989 160.299 191.847 167.513 184.531 171.824C177.216 176.134 168.415 177.137 160.317 174.582C152.218 172.027 145.585 166.155 142.069 158.426C141.465 157.227 140.021 156.722 138.799 157.279C137.58 157.837 137.017 159.259 137.527 160.5C140.926 167.948 146.831 173.963 154.213 177.502C161.593 181.04 169.982 181.875 177.917 179.86C176.936 185.062 174.308 189.811 170.42 193.405C166.533 196.998 161.593 199.245 156.328 199.815C150.293 207.531 141.071 212.076 131.276 212.167C121.48 212.256 112.177 207.88 106 200.276V182.357C106.978 178.212 109.602 174.643 113.267 172.473C116.931 170.302 121.321 169.717 125.427 170.853C126.726 171.138 128.02 170.358 128.372 169.075C128.726 167.795 128.013 166.461 126.752 166.041C123.078 165.026 119.193 165.046 115.528 166.099C111.864 167.153 108.563 169.201 105.99 172.014V36.4192V36.4209C107.626 34.8965 109.638 33.833 111.818 33.3375C113.999 32.8404 116.272 32.9309 118.407 33.5976C119.7 33.945 121.038 33.2141 121.441 31.9383C121.846 30.6608 121.173 29.2928 119.915 28.8335C115.276 27.3799 110.242 27.9018 106 30.2739V11.4626C110.817 7.96445 116.577 6.00388 122.526 5.83446L122.527 5.83555Z" fill="black"/>
<path d="M50.046 158.682C48.013 163.937 48.4755 169.829 51.3004 174.705C54.1253 179.579 59.0079 182.91 64.5771 183.761C70.1463 184.61 75.801 182.89 79.9525 179.079C80.9583 178.144 81.0192 176.572 80.0892 175.559C79.1607 174.547 77.5886 174.474 76.5696 175.398C73.5356 178.183 69.4002 179.443 65.3275 178.82C61.2548 178.198 57.6841 175.763 55.6182 172.199C53.5539 168.634 53.2164 164.325 54.7013 160.483C55.1342 159.214 54.4873 157.831 53.2378 157.347C51.9883 156.865 50.5792 157.453 50.0458 158.682L50.046 158.682Z" fill="black"/>
<path d="M124.496 115.418C129.997 109.751 137.632 106.661 145.529 106.911C153.424 107.159 160.85 110.722 165.985 116.725C171.119 122.731 173.488 130.619 172.509 138.458C172.403 139.127 172.574 139.808 172.981 140.348C173.388 140.89 173.995 141.242 174.667 141.326C175.338 141.41 176.015 141.217 176.542 140.794C177.068 140.37 177.403 139.751 177.465 139.077C178.606 129.931 175.88 120.724 169.944 113.675C164.006 106.624 155.398 102.372 146.192 101.939C146.207 95.7886 143.427 89.9644 138.634 86.1075C133.842 82.2521 127.557 80.7836 121.553 82.1154C120.232 82.4364 119.408 83.755 119.702 85.0835C119.995 86.412 121.297 87.2598 122.63 86.9948C127.182 85.9841 131.945 87.1084 135.561 90.0485C139.18 92.9887 141.254 97.4218 141.193 102.084C133.487 102.892 126.31 106.379 120.912 111.938C120.018 112.936 120.07 114.46 121.032 115.395C121.991 116.329 123.517 116.34 124.49 115.418L124.496 115.418Z" fill="black"/>
</svg>
