<svg width="151" height="94" viewBox="0 0 151 94" fill="none" xmlns="http://www.w3.org/2000/svg">
<path d="M0.870515 0.889092L0.244873 1.51473L0.281862 46.9181L0.336817 92.3215L0.943967 92.8552C1.77199 93.6097 2.82144 93.6097 3.57599 92.8552L4.10969 92.3215V4.12552H14.9685L15.0055 48.3331C15.0605 90.2409 15.079 92.5771 15.3918 93.0384C15.981 93.9219 16.9744 94.1613 17.9318 93.6456C19.0547 93.0749 19.0177 93.5351 19.0177 77.1178V62.1186L27.8153 62.0636C32.6371 62.0267 57.6486 62.0267 83.3791 62.0636L130.183 62.1186L130.22 77.0082L130.274 91.9154L130.864 92.4861C131.674 93.3141 132.741 93.3141 133.551 92.4861L134.14 91.9154L134.195 48.6643L134.232 5.4131H146.379V48.2963C146.379 94.6398 146.324 91.9519 147.281 92.4673C148.164 92.9276 149.434 92.5778 149.931 91.7313C150.226 91.2525 150.244 87.9214 150.244 47.1003C150.244 -0.623014 150.299 2.2475 149.324 1.73211C149.066 1.60317 146.104 1.52972 140.178 1.52972H131.398L130.846 2.10042L130.276 2.65261L130.221 7.73228L130.166 12.7934L126.172 16.7871C118.11 24.8666 111.338 30.1856 103.35 34.6771C90.4667 41.9101 76.4602 44.1737 63.0992 41.1924C49.3323 38.1186 34.9405 29.487 21.4686 16.1992L19.0209 13.7881V7.84347C19.0209 2.92924 18.966 1.80687 18.7451 1.36507C18.1559 0.22422 18.4323 0.260675 9.57975 0.260675H1.50024L0.874602 0.886318L0.870515 0.889092ZM130.182 38.2694V58.2385H115.642V44.748L115.661 31.2756L117.998 29.4166C121.219 26.8586 124.458 23.9687 127.513 20.9318C128.93 19.5331 130.108 18.3553 130.145 18.3367C130.164 18.3182 130.182 27.2812 130.182 38.2694H130.182ZM23.7846 23.6936C26.8213 26.3991 32.1219 30.5587 35.1772 32.62L36.3181 33.4116V58.0558H19.0179V19.3702L20.693 20.8978C21.6129 21.7443 22.9937 23.0142 23.7847 23.6953L23.7846 23.6936ZM111.778 46.1842V58.2394H92.2684L92.3054 50.951L92.3603 43.6626L94.5691 42.871C99.9066 40.9936 106.495 37.6624 110.581 34.7915C111.097 34.4417 111.557 34.1474 111.649 34.1474C111.722 34.1289 111.778 39.5583 111.778 46.1841L111.778 46.1842ZM41.9505 36.9085C44.1593 38.1783 48.1531 40.1662 50.6006 41.2151C52.3861 41.9881 57.9994 43.9391 59.6925 44.3808L60.3367 44.5462L60.3916 51.3009L60.4286 58.0557H40.1835V47.0129C40.1835 40.9393 40.2205 35.9701 40.2569 35.9701C40.2939 35.9701 41.0485 36.3933 41.95 36.9085L41.9505 36.9085ZM88.4036 51.5221V58.2399H81.465C77.6366 58.2399 72.2077 58.1849 69.4098 58.1109L64.2932 58.0005V45.4116L65.1767 45.577C66.6309 45.8529 70.5142 46.2396 72.9433 46.3686C76.6428 46.571 82.3665 46.0558 86.3787 45.1908C87.2437 45.0069 88.0538 44.8409 88.1822 44.8224C88.3476 44.8039 88.4031 46.2581 88.4031 51.5216L88.4036 51.5221Z" fill="black"/>
</svg>
