<?xml version="1.0" encoding="UTF-8"?>
<svg width="1200pt" height="1200pt" version="1.1" viewBox="0 0 1200 1200" xmlns="http://www.w3.org/2000/svg">
 <path d="m59.047 241.36-4.625 4.625 0.27344 335.64 0.40625 335.64 4.4883 3.9453c6.1211 5.5781 13.879 5.5781 19.457 0l3.9453-3.9453v-651.98h80.273l0.27344 326.8c0.40625 309.8 0.54297 327.07 2.8555 330.48 4.3555 6.5312 11.699 8.3008 18.777 4.4883 8.3008-4.2188 8.0273-0.81641 8.0273-122.18v-110.88l65.035-0.40625c35.645-0.27344 220.54-0.27344 410.75 0l345.99 0.40625 0.27344 110.07 0.40625 110.2 4.3555 4.2188c5.9883 6.1211 13.879 6.1211 19.863 0l4.3555-4.2188 0.40625-319.73 0.27344-319.73h89.797v317.01c0 342.59-0.40625 322.72 6.668 326.53 6.5312 3.4023 15.918 0.81641 19.594-5.4414 2.1758-3.5391 2.3125-28.164 2.3125-329.93 0-352.79 0.40625-331.57-6.8008-335.38-1.9062-0.95312-23.809-1.4961-67.617-1.4961h-64.898l-4.082 4.2188-4.2188 4.082-0.40625 37.551-0.40625 37.414-29.523 29.523c-59.594 59.727-109.66 99.047-168.71 132.25-95.238 53.469-198.78 70.203-297.55 48.164-101.77-22.723-208.16-86.531-307.75-184.76l-18.094-17.824v-43.945c0-36.328-0.40625-44.625-2.0391-47.891-4.3555-8.4336-2.3125-8.1641-67.754-8.1641h-59.727l-4.625 4.625zm955.92 276.33v147.62h-107.48v-99.727l0.13672-99.594 17.277-13.742c23.809-18.91 47.754-40.273 70.34-62.723 10.477-10.34 19.184-19.047 19.457-19.184 0.13672-0.13672 0.27344 66.121 0.27344 147.35zm-786.53-107.75c22.449 20 61.633 50.75 84.219 65.988l8.4336 5.8516v182.18h-127.89v-285.98l12.383 11.293c6.8008 6.2578 17.008 15.645 22.855 20.68zm650.48 166.26v89.117h-144.22l0.27344-53.879 0.40625-53.879 16.328-5.8516c39.457-13.879 88.164-38.504 118.37-59.727 3.8086-2.5859 7.2109-4.7617 7.8906-4.7617 0.54297-0.13672 0.95312 40 0.95312 88.98zm-516.19-68.57c16.328 9.3867 45.852 24.082 63.945 31.836 13.199 5.7148 54.695 20.137 67.211 23.402l4.7617 1.2227 0.40625 49.934 0.27344 49.934h-149.66v-81.633c0-44.898 0.27344-81.633 0.54297-81.633 0.27344 0 5.8516 3.1289 12.516 6.9375zm343.4 108.03v49.66h-51.293c-28.301 0-68.434-0.40625-89.117-0.95312l-37.824-0.81641v-93.062l6.5312 1.2227c10.75 2.0391 39.457 4.8984 57.414 5.8516 27.348 1.4961 69.66-2.3125 99.32-8.707 6.3945-1.3594 12.383-2.5859 13.332-2.7227 1.2227-0.13672 1.6328 10.613 1.6328 49.523z"/>
</svg>
