<?xml version="1.0" encoding="UTF-8"?>
<svg width="700pt" height="700pt" version="1.1" viewBox="0 0 700 700" xmlns="http://www.w3.org/2000/svg">
 <path d="m536.67 75.832h-52.5v-29.164c0-6.2539-3.3359-12.031-8.75-15.156-5.4141-3.125-12.086-3.125-17.5 0-5.4141 3.125-8.75 8.9023-8.75 15.156v29.164h-81.668v-29.164c0-6.2539-3.3359-12.031-8.75-15.156s-12.086-3.125-17.5 0-8.75 8.9023-8.75 15.156v29.164h-81.668v-29.164c0-6.2539-3.3359-12.031-8.75-15.156-5.4141-3.125-12.086-3.125-17.5 0-5.4141 3.125-8.75 8.9023-8.75 15.156v29.164h-52.5c-17.012 0.011719-33.328 6.7773-45.359 18.809-12.027 12.031-18.793 28.344-18.805 45.359v326.67c0.011719 17.012 6.7773 33.328 18.805 45.359 12.031 12.027 28.348 18.793 45.359 18.805h373.34c17.012-0.011719 33.328-6.7773 45.359-18.805 12.027-12.031 18.793-28.348 18.805-45.359v-326.67c-0.011719-17.016-6.7773-33.328-18.805-45.359-12.031-12.031-28.348-18.797-45.359-18.809zm-373.34 35h52.5v29.168c0 6.2539 3.3359 12.031 8.75 15.156 5.4141 3.125 12.086 3.125 17.5 0 5.4141-3.125 8.75-8.9023 8.75-15.156v-29.168h81.668v29.168c0 6.2539 3.3359 12.031 8.75 15.156s12.086 3.125 17.5 0 8.75-8.9023 8.75-15.156v-29.168h81.668v29.168c0 6.2539 3.3359 12.031 8.75 15.156 5.4141 3.125 12.086 3.125 17.5 0 5.4141-3.125 8.75-8.9023 8.75-15.156v-29.168h52.5c7.7305 0.011719 15.141 3.0898 20.609 8.5586 5.4648 5.4648 8.543 12.879 8.5547 20.609v75.832h-431.66v-75.832c0.011719-7.7305 3.0898-15.145 8.5547-20.609 5.4688-5.4688 12.879-8.5469 20.609-8.5586zm373.33 385h-373.33c-7.7305-0.011719-15.141-3.0898-20.609-8.5547-5.4648-5.4688-8.543-12.879-8.5547-20.609v-215.84h431.67l-0.003907 215.84c-0.011719 7.7305-3.0898 15.141-8.5547 20.609-5.4688 5.4648-12.879 8.543-20.609 8.5547z"/>
</svg>
