<svg width="151" height="151" viewBox="0 0 151 151" fill="none" xmlns="http://www.w3.org/2000/svg">
<path d="M131.682 14.6198H115.984V5.89968C115.984 4.02974 114.987 2.30237 113.368 1.36798C111.749 0.433594 109.754 0.433594 108.135 1.36798C106.516 2.30237 105.519 4.0298 105.519 5.89968V14.6198H81.1V5.89968C81.1 4.02974 80.1025 2.30237 78.4837 1.36798C76.8649 0.433594 74.8699 0.433594 73.2511 1.36798C71.6323 2.30237 70.6349 4.0298 70.6349 5.89968V14.6198H46.2158V5.89968C46.2158 4.02974 45.2184 2.30237 43.5995 1.36798C41.9807 0.433594 39.9858 0.433594 38.3669 1.36798C36.7481 2.30237 35.7507 4.0298 35.7507 5.89968V14.6198H20.053C14.9663 14.6233 10.0878 16.6463 6.49044 20.2438C2.89432 23.8411 0.871264 28.7188 0.867676 33.8063V131.482C0.87118 136.569 2.89411 141.447 6.49044 145.044C10.0878 148.641 14.9666 150.664 20.053 150.667H131.683C136.77 150.664 141.648 148.641 145.246 145.044C148.842 141.447 150.865 136.568 150.868 131.482V33.8063C150.865 28.7185 148.842 23.8411 145.246 20.2438C141.648 16.6465 136.769 14.6234 131.683 14.6198H131.682ZM20.0518 25.085H35.7495V33.8063C35.7495 35.6763 36.7469 37.4036 38.3658 38.338C39.9846 39.2724 41.9795 39.2724 43.5983 38.338C45.2172 37.4036 46.2146 35.6762 46.2146 33.8063V25.085H70.6336V33.8063C70.6336 35.6763 71.6311 37.4036 73.2499 38.338C74.8688 39.2724 76.8637 39.2724 78.4825 38.338C80.1013 37.4036 81.0988 35.6762 81.0988 33.8063V25.085H105.518V33.8063C105.518 35.6763 106.515 37.4036 108.134 38.338C109.753 39.2724 111.748 39.2724 113.367 38.338C114.986 37.4036 115.983 35.6762 115.983 33.8063V25.085H131.681C133.992 25.0885 136.208 26.0088 137.843 27.644C139.477 29.278 140.397 31.4949 140.401 33.8062V56.4803H11.3327V33.8062C11.3362 31.4947 12.2566 29.2778 13.8906 27.644C15.5258 26.0088 17.7415 25.0885 20.0528 25.085H20.0518ZM131.679 140.201H20.0518C17.7403 140.198 15.5245 139.278 13.8896 137.644C12.2556 136.008 11.3352 133.793 11.3317 131.481V66.9444H140.403L140.402 131.481C140.398 133.793 139.478 136.009 137.844 137.644C136.208 139.278 133.993 140.198 131.681 140.201H131.679Z" fill="black"/>
</svg>
