<svg width="151" height="134" viewBox="0 0 151 134" fill="none" xmlns="http://www.w3.org/2000/svg">
<path d="M98.302 81.4692C98.302 94.2143 87.9702 104.546 75.2251 104.546C62.4801 104.546 52.1482 94.2143 52.1482 81.4692C52.1482 68.7242 62.4801 58.3923 75.2251 58.3923C87.9702 58.3923 98.302 68.7242 98.302 81.4692Z" fill="black"/>
<path d="M121.379 23.7769H113.418L106.667 10.2773C105.233 7.39136 103.018 4.96396 100.276 3.27176C97.5331 1.57963 94.3716 0.688499 91.1481 0.70007H59.3013C56.078 0.688481 52.9166 1.57963 50.1734 3.27176C47.4317 4.9639 45.2168 7.39133 43.7821 10.2773L37.0314 23.7769H29.0705C21.4199 23.7769 14.0834 26.8161 8.67349 32.2261C3.2636 37.636 0.224365 44.9724 0.224365 52.6231V104.546C0.224365 112.197 3.26353 119.533 8.67349 124.943C14.0834 130.353 21.4199 133.392 29.0705 133.392H121.378C129.029 133.392 136.365 130.353 141.775 124.943C147.185 119.533 150.224 112.197 150.224 104.546V52.6231C150.224 44.9724 147.185 37.6359 141.775 32.2261C136.365 26.8162 129.029 23.7769 121.378 23.7769H121.379ZM63.6866 18.0077H86.7635C88.8252 18.0077 90.7298 19.1075 91.76 20.8923C92.7902 22.6772 92.7902 24.8767 91.76 26.6616C90.7298 28.4464 88.8252 29.5462 86.7635 29.5462H63.6866C61.6248 29.5462 59.7203 28.4464 58.6901 26.6616C57.6599 24.8767 57.6599 22.6772 58.6901 20.8923C59.7203 19.1075 61.6249 18.0077 63.6866 18.0077ZM75.225 116.085C66.0444 116.085 57.2399 112.438 50.7483 105.946C44.2568 99.4541 40.6096 90.6499 40.6096 81.4693C40.6096 72.2886 44.2565 63.4841 50.7483 56.9925C57.2402 50.501 66.0444 46.8539 75.225 46.8539C84.4057 46.8539 93.2102 50.5007 99.7017 56.9925C106.193 63.4844 109.84 72.2886 109.84 81.4693C109.84 90.6499 106.194 99.4544 99.7017 105.946C93.2099 112.438 84.4057 116.085 75.225 116.085Z" fill="black"/>
</svg>
