<svg width="151" height="151" viewBox="0 0 151 151" fill="none" xmlns="http://www.w3.org/2000/svg">
<path d="M75.7316 0.924976C56.5631 0.909523 38.1176 7.68846 24.1988 19.8654C10.2793 32.0428 1.94619 48.6897 0.916101 66.3751C-0.113876 84.0612 6.23743 101.439 18.6627 114.925L13.3553 144.232C13.1769 145.301 13.3204 146.396 13.772 147.393C14.225 148.391 14.9665 149.253 15.9156 149.887C16.9832 150.557 18.2445 150.918 19.5364 150.925C20.6096 150.929 21.6661 150.67 22.5957 150.175L51.1926 135.522L51.194 135.521C64.9644 139.961 79.8383 140.591 93.9923 137.334C108.144 134.076 120.961 127.073 130.868 117.182C140.776 107.291 147.343 94.9457 149.767 81.6564C152.189 68.3678 150.362 54.7136 144.508 42.3698C138.653 30.0266 129.028 19.53 116.812 12.1678C104.594 4.80696 90.3179 0.898402 75.7333 0.925435L75.7316 0.924976ZM47.6335 75.9247C45.1498 75.9247 42.7664 75.0129 41.0105 73.3903C39.2547 71.7677 38.2676 69.5655 38.2676 67.271C38.2676 64.9765 39.2544 62.774 41.0105 61.1517C42.7667 59.5294 45.1502 58.6174 47.6335 58.6174C50.1168 58.6174 52.5006 59.5291 54.2564 61.1517C56.0123 62.7743 56.9993 64.9765 56.9993 67.271C56.9993 69.5655 56.0126 71.768 54.2564 73.3903C52.5003 75.0126 50.1168 75.9247 47.6335 75.9247ZM78.8536 75.9247C76.3699 75.9247 73.9865 75.0129 72.2306 73.3903C70.4748 71.7677 69.4877 69.5655 69.4877 67.271C69.4877 64.9765 70.4745 62.774 72.2306 61.1517C73.9868 59.5294 76.3702 58.6174 78.8536 58.6174C81.3369 58.6174 83.7207 59.5291 85.4765 61.1517C87.2323 62.7743 88.2194 64.9765 88.2194 67.271C88.2194 69.5655 87.2327 71.768 85.4765 73.3903C83.7204 75.0126 81.3369 75.9247 78.8536 75.9247ZM110.074 75.9247C107.59 75.9247 105.207 75.0129 103.451 73.3903C101.695 71.7677 100.708 69.5655 100.708 67.271C100.708 64.9765 101.695 62.774 103.451 61.1517C105.207 59.5294 107.59 58.6174 110.074 58.6174C112.557 58.6174 114.941 59.5291 116.697 61.1517C118.452 62.7743 119.44 64.9765 119.44 67.271C119.44 69.5655 118.453 71.768 116.697 73.3903C114.94 75.0126 112.557 75.9247 110.074 75.9247Z" fill="black"/>
</svg>
