<?xml version="1.0" encoding="UTF-8"?>
<svg width="700pt" height="700pt" version="1.1" viewBox="0 0 700 700" xmlns="http://www.w3.org/2000/svg" xmlns:xlink="http://www.w3.org/1999/xlink">
 <defs>
  <symbol id="t" overflow="visible">
   <path d="m0.3125-0.015625c-0.011719 0.011719-0.027344 0.015625-0.046875 0.015625h-0.0625c-0.054687 0-0.10156-0.015625-0.14062-0.046875-0.03125-0.03125-0.046875-0.070313-0.046875-0.125 0-0.050781 0.015625-0.09375 0.046875-0.125 0.039062-0.039063 0.085938-0.0625 0.14062-0.0625 0.019531 0 0.039063 0.007813 0.0625 0.015625 0.019531 0 0.035156 0.007812 0.046875 0.015625v0.078125c-0.011719-0.019531-0.027344-0.03125-0.046875-0.03125h-0.046875c-0.03125 0-0.058594 0.011719-0.078125 0.03125-0.011719 0.011719-0.015625 0.039062-0.015625 0.078125 0 0.03125 0.003906 0.058594 0.015625 0.078125 0.019531 0.023438 0.046875 0.03125 0.078125 0.03125h0.046875c0.019531-0.0078125 0.035156-0.019531 0.046875-0.03125z"/>
  </symbol>
  <symbol id="c" overflow="visible">
   <path d="m0.23438-0.1875h-0.03125c0-0.007812-0.007813-0.015625-0.015625-0.015625-0.023438 0-0.039062 0.011719-0.046875 0.03125-0.011719 0.011719-0.015625 0.027344-0.015625 0.046875v0.125h-0.09375v-0.26562h0.09375v0.046875c0.007812-0.019531 0.019531-0.03125 0.03125-0.03125 0.007812-0.007812 0.023438-0.015625 0.046875-0.015625h0.015625 0.015625z"/>
  </symbol>
  <symbol id="a" overflow="visible">
   <path d="m0.29688-0.14062v0.03125h-0.1875c0 0.023438 0.003906 0.039062 0.015625 0.046875 0.007812 0.011719 0.023438 0.015625 0.046875 0.015625h0.0625c0.019531-0.0078125 0.035156-0.019531 0.046875-0.03125v0.0625c-0.011719 0.011719-0.027344 0.015625-0.046875 0.015625h-0.0625c-0.054687 0-0.09375-0.0078125-0.125-0.03125-0.023438-0.019531-0.03125-0.050781-0.03125-0.09375 0-0.039062 0.0078125-0.070312 0.03125-0.09375 0.03125-0.03125 0.066406-0.046875 0.10938-0.046875 0.039062 0 0.070312 0.015625 0.09375 0.046875 0.03125 0.023438 0.046875 0.046875 0.046875 0.078125zm-0.078125-0.015625c0-0.019531-0.007812-0.03125-0.015625-0.03125-0.011719-0.007812-0.027344-0.015625-0.046875-0.015625-0.011719 0-0.023438 0.007813-0.03125 0.015625-0.011719 0-0.015625 0.011719-0.015625 0.03125z"/>
  </symbol>
  <symbol id="f" overflow="visible">
   <path d="m0.15625-0.125c-0.011719 0-0.023438 0.007812-0.03125 0.015625-0.011719 0.011719-0.015625 0.023438-0.015625 0.03125v0.03125h0.03125c0.019531 0 0.035156-0.0039062 0.046875-0.015625 0.007812-0.0078125 0.015625-0.023438 0.015625-0.046875v-0.015625zm0.125-0.015625v0.14062h-0.078125v-0.03125c-0.011719 0.011719-0.027344 0.023438-0.046875 0.03125h-0.046875c-0.023438 0-0.042969-0.0039062-0.0625-0.015625-0.023438-0.0078125-0.03125-0.03125-0.03125-0.0625s0.0078125-0.050781 0.03125-0.0625c0.019531-0.007813 0.050781-0.015625 0.09375-0.015625h0.0625v-0.015625c0-0.007813-0.007813-0.015625-0.015625-0.015625-0.011719-0.007812-0.027344-0.015625-0.046875-0.015625h-0.0625c-0.011719 0-0.023438 0.007813-0.03125 0.015625v-0.0625c0.0078125-0.007812 0.023438-0.015625 0.046875-0.015625h0.046875c0.050781 0 0.085937 0.011719 0.10938 0.03125 0.019531 0.023437 0.03125 0.054687 0.03125 0.09375z"/>
  </symbol>
  <symbol id="b" overflow="visible">
   <path d="m0.14062-0.32812v0.0625h0.078125v0.0625h-0.078125v0.10938 0.03125h0.015625 0.046875v0.0625h-0.0625c-0.03125 0-0.058594-0.0039062-0.078125-0.015625-0.011719-0.019531-0.015625-0.046875-0.015625-0.078125v-0.10938h-0.046875v-0.0625h0.046875v-0.0625z"/>
  </symbol>
  <symbol id="e" overflow="visible">
   <path d="m0.21875-0.21875v-0.14062h0.078125v0.35938h-0.078125v-0.03125c-0.011719 0.011719-0.027344 0.023438-0.046875 0.03125h-0.03125c-0.042969 0-0.074219-0.0078125-0.09375-0.03125-0.023438-0.019531-0.03125-0.050781-0.03125-0.09375 0-0.039062 0.0078125-0.070312 0.03125-0.09375 0.019531-0.03125 0.050781-0.046875 0.09375-0.046875 0.007813 0 0.019531 0.007813 0.03125 0.015625 0.019531 0 0.035156 0.011719 0.046875 0.03125zm-0.0625 0.17188c0.019531 0 0.035156-0.0039062 0.046875-0.015625 0.007813-0.019531 0.015625-0.039062 0.015625-0.0625 0-0.019531-0.007812-0.035156-0.015625-0.046875-0.011719-0.019531-0.027344-0.03125-0.046875-0.03125-0.011719 0-0.023438 0.011719-0.03125 0.03125-0.011719 0.011719-0.015625 0.027344-0.015625 0.046875 0 0.023438 0.003906 0.042969 0.015625 0.0625 0.007812 0.011719 0.019531 0.015625 0.03125 0.015625z"/>
  </symbol>
  <symbol id="j" overflow="visible">
   <path d="m0.17188-0.046875c0.019531 0 0.035156-0.0039062 0.046875-0.015625 0.007812-0.019531 0.015625-0.039062 0.015625-0.0625 0-0.019531-0.007813-0.035156-0.015625-0.046875-0.011719-0.019531-0.027344-0.03125-0.046875-0.03125-0.023437 0-0.039063 0.011719-0.046875 0.03125v0.046875 0.0625c0.007812 0.011719 0.023438 0.015625 0.046875 0.015625zm-0.046875-0.17188c0.007812-0.019531 0.019531-0.03125 0.03125-0.03125 0.019531-0.007812 0.035156-0.015625 0.046875-0.015625 0.039063 0 0.066406 0.015625 0.078125 0.046875 0.019531 0.023438 0.03125 0.054688 0.03125 0.09375 0 0.042969-0.011719 0.074219-0.03125 0.09375-0.011719 0.023438-0.039062 0.03125-0.078125 0.03125h-0.046875c-0.011719-0.0078125-0.023438-0.019531-0.03125-0.03125v0.03125h-0.09375v-0.35938h0.09375z"/>
  </symbol>
  <symbol id="i" overflow="visible">
   <path d="m0-0.26562h0.09375l0.0625 0.1875 0.0625-0.1875h0.078125l-0.10938 0.28125c-0.011719 0.03125-0.023438 0.050781-0.03125 0.0625-0.011719 0.019531-0.03125 0.03125-0.0625 0.03125h-0.046875v-0.0625h0.03125c0.0078125 0 0.015625-0.0078125 0.015625-0.015625 0.007812 0 0.019531-0.0078125 0.03125-0.015625v-0.015625z"/>
  </symbol>
  <symbol id="h" overflow="visible">
   <path d="m0.25-0.25v0.0625c-0.023438-0.007812-0.042969-0.015625-0.0625-0.015625h-0.046875-0.03125c-0.011719 0-0.015625 0.007813-0.015625 0.015625 0 0.011719 0.0039062 0.023438 0.015625 0.03125h0.03125 0.015625c0.039062 0 0.066406 0.007812 0.078125 0.015625 0.019531 0.011719 0.03125 0.03125 0.03125 0.0625s-0.011719 0.054688-0.03125 0.0625c-0.023437 0.011719-0.054687 0.015625-0.09375 0.015625h-0.0625-0.046875v-0.078125c0.0078125 0.011719 0.023438 0.023438 0.046875 0.03125h0.0625 0.015625c0.007812-0.0078125 0.015625-0.019531 0.015625-0.03125 0-0.0078125-0.007813-0.015625-0.015625-0.015625 0 0-0.007812-0.0039062-0.015625-0.015625h-0.015625c-0.042969 0-0.074219-0.003906-0.09375-0.015625-0.011719-0.007812-0.015625-0.03125-0.015625-0.0625 0-0.019531 0.0078125-0.035156 0.03125-0.046875 0.019531-0.019531 0.050781-0.03125 0.09375-0.03125h0.046875c0.019531 0 0.039062 0.007813 0.0625 0.015625z"/>
  </symbol>
  <symbol id="g" overflow="visible">
   <path d="m0.29688-0.15625v0.15625h-0.078125v-0.125-0.03125c0-0.007812-0.007812-0.019531-0.015625-0.03125h-0.015625c0-0.007812-0.007812-0.015625-0.015625-0.015625-0.011719 0-0.023437 0.011719-0.03125 0.03125-0.011719 0.011719-0.015625 0.027344-0.015625 0.046875v0.125h-0.09375v-0.26562h0.09375v0.046875c0.007812-0.019531 0.019531-0.03125 0.03125-0.03125 0.019531-0.007812 0.035156-0.015625 0.046875-0.015625 0.03125 0 0.050781 0.011719 0.0625 0.03125 0.019531 0.023437 0.03125 0.046875 0.03125 0.078125z"/>
  </symbol>
  <symbol id="s" overflow="visible">
   <path d="m0.03125-0.26562h0.09375v0.26562h-0.09375zm0-0.09375h0.09375v0.0625h-0.09375z"/>
  </symbol>
  <symbol id="r" overflow="visible">
   <path d="m0.20312-0.35938v0.0625h-0.046875-0.015625v0.015625 0.015625h0.0625v0.0625h-0.0625v0.20312h-0.09375v-0.20312h-0.046875v-0.0625h0.046875v-0.015625c0-0.019531 0.0039062-0.035156 0.015625-0.046875 0.019531-0.019531 0.046875-0.03125 0.078125-0.03125z"/>
  </symbol>
  <symbol id="d" overflow="visible">
   <path d="m0.15625-0.20312c-0.011719 0-0.023438 0.007813-0.03125 0.015625-0.011719 0.011719-0.015625 0.03125-0.015625 0.0625 0 0.023438 0.003906 0.042969 0.015625 0.0625 0.007812 0.011719 0.019531 0.015625 0.03125 0.015625 0.019531 0 0.035156-0.0039062 0.046875-0.015625 0.007813-0.019531 0.015625-0.039062 0.015625-0.0625 0-0.03125-0.007812-0.050781-0.015625-0.0625-0.011719-0.007812-0.027344-0.015625-0.046875-0.015625zm0-0.0625c0.050781 0 0.085938 0.015625 0.10938 0.046875 0.019531 0.023438 0.03125 0.054688 0.03125 0.09375 0 0.042969-0.011719 0.074219-0.03125 0.09375-0.023437 0.023438-0.058594 0.03125-0.10938 0.03125-0.042969 0-0.078125-0.0078125-0.10938-0.03125-0.023438-0.019531-0.03125-0.050781-0.03125-0.09375 0-0.039062 0.0078125-0.070312 0.03125-0.09375 0.03125-0.03125 0.066406-0.046875 0.10938-0.046875z"/>
  </symbol>
  <symbol id="q" overflow="visible">
   <path d="m0.28125-0.21875 0.03125-0.03125c0.019531-0.007812 0.035156-0.015625 0.046875-0.015625 0.03125 0 0.050781 0.011719 0.0625 0.03125 0.019531 0.023437 0.03125 0.046875 0.03125 0.078125v0.15625h-0.078125v-0.14062c0-0.019531-0.007812-0.035156-0.015625-0.046875 0-0.007812-0.007813-0.015625-0.015625-0.015625-0.023438 0-0.039062 0.011719-0.046875 0.03125-0.011719 0.011719-0.015625 0.027344-0.015625 0.046875v0.125h-0.078125v-0.14062c0-0.019531-0.007813-0.035156-0.015625-0.046875 0-0.007812-0.007812-0.015625-0.015625-0.015625-0.023437 0-0.039063 0.011719-0.046875 0.03125v0.046875 0.125h-0.09375v-0.26562h0.09375v0.046875c0.007812-0.019531 0.019531-0.03125 0.03125-0.03125 0.007812-0.007812 0.023438-0.015625 0.046875-0.015625 0.019531 0 0.035156 0.007813 0.046875 0.015625 0.007812 0.011719 0.019531 0.023438 0.03125 0.03125z"/>
  </symbol>
  <symbol id="p" overflow="visible">
   <path d="m0.29688-0.15625v0.15625h-0.078125v-0.125-0.03125c0-0.007812-0.007812-0.019531-0.015625-0.03125h-0.015625c0-0.007812-0.007812-0.015625-0.015625-0.015625-0.011719 0-0.023437 0.011719-0.03125 0.03125-0.011719 0.011719-0.015625 0.027344-0.015625 0.046875v0.125h-0.09375v-0.35938h0.09375v0.14062c0.007812-0.019531 0.019531-0.03125 0.03125-0.03125 0.019531-0.007812 0.035156-0.015625 0.046875-0.015625 0.03125 0 0.050781 0.011719 0.0625 0.03125 0.019531 0.023437 0.03125 0.046875 0.03125 0.078125z"/>
  </symbol>
  <symbol id="o" overflow="visible">
   <path d="m0.046875-0.34375h0.09375l0.125 0.23438v-0.23438h0.09375v0.34375h-0.10938l-0.125-0.23438v0.23438h-0.078125z"/>
  </symbol>
  <symbol id="n" overflow="visible">
   <path d="m0.03125-0.10938v-0.15625h0.09375v0.03125 0.0625 0.03125 0.046875 0.015625c0.007812 0.011719 0.015625 0.015625 0.015625 0.015625h0.015625c0.019531 0 0.035156-0.0039062 0.046875-0.015625 0.007813-0.0078125 0.015625-0.03125 0.015625-0.0625v-0.125h0.078125v0.26562h-0.078125v-0.03125c-0.023438 0.011719-0.039062 0.023438-0.046875 0.03125h-0.046875c-0.03125 0-0.058594-0.0039062-0.078125-0.015625-0.011719-0.019531-0.015625-0.050781-0.015625-0.09375z"/>
  </symbol>
  <symbol id="m" overflow="visible">
   <path d="m0.046875-0.34375h0.14062c0.050781 0 0.085938 0.011719 0.10938 0.03125 0.019531 0.023438 0.03125 0.046875 0.03125 0.078125 0 0.042969-0.011719 0.074219-0.03125 0.09375-0.023437 0.011719-0.058594 0.015625-0.10938 0.015625h-0.046875v0.125h-0.09375zm0.09375 0.0625v0.09375h0.046875 0.03125c0.007812-0.007812 0.015625-0.023438 0.015625-0.046875 0-0.019531-0.007813-0.03125-0.015625-0.03125-0.011719-0.007813-0.023438-0.015625-0.03125-0.015625z"/>
  </symbol>
  <symbol id="l" overflow="visible">
   <path d="m0.03125-0.26562h0.09375v0.26562c0 0.03125-0.011719 0.054688-0.03125 0.078125-0.011719 0.019531-0.039062 0.03125-0.078125 0.03125h-0.03125v-0.0625h0.015625c0.0078125 0 0.015625-0.0078125 0.015625-0.015625 0.0078125 0 0.015625-0.011719 0.015625-0.03125zm0-0.09375h0.09375v0.0625h-0.09375z"/>
  </symbol>
  <symbol id="k" overflow="visible">
   <path d="m0.25-0.25v0.0625h-0.03125c-0.011719-0.007812-0.027344-0.015625-0.046875-0.015625-0.023437 0-0.039063 0.011719-0.046875 0.03125-0.011719 0.011719-0.015625 0.027344-0.015625 0.046875 0 0.023438 0.003906 0.042969 0.015625 0.0625 0.007812 0.011719 0.023438 0.015625 0.046875 0.015625h0.046875c0.007812-0.0078125 0.019531-0.019531 0.03125-0.03125v0.078125h-0.046875-0.03125c-0.054687 0-0.09375-0.0078125-0.125-0.03125-0.023438-0.019531-0.03125-0.050781-0.03125-0.09375 0-0.039062 0.0078125-0.070312 0.03125-0.09375 0.03125-0.03125 0.070313-0.046875 0.125-0.046875h0.03125c0.019531 0 0.035156 0.007813 0.046875 0.015625z"/>
  </symbol>
 </defs>
 <g>
  <path d="m23.086 241.73c30.938-30.844 81.363-30.844 112.2 0l115.14 115.14 314.29-314.29c30.844-30.938 81.27-30.938 112.2 0 30.844 30.844 30.844 81.27 0 112.2l-362.54 362.44c-35.383 41.531-93.188 41.438-127.91 0l-163.29-163.29c-30.844-30.844-30.938-81.363-0.09375-112.2z"/>
  <use y="549.773438" xlink:href="#t"/>
  <use x="0.347656" y="549.773438" xlink:href="#c"/>
  <use x="0.582031" y="549.773438" xlink:href="#a"/>
  <use x="0.902344" y="549.773438" xlink:href="#f"/>
  <use x="1.21875" y="549.773438" xlink:href="#b"/>
  <use x="1.445312" y="549.773438" xlink:href="#a"/>
  <use x="1.765625" y="549.773438" xlink:href="#e"/>
  <use x="2.269531" y="549.773438" xlink:href="#j"/>
  <use x="2.609375" y="549.773438" xlink:href="#i"/>
  <use x="3.082031" y="549.773438" xlink:href="#h"/>
  <use x="3.363281" y="549.773438" xlink:href="#f"/>
  <use x="3.683594" y="549.773438" xlink:href="#g"/>
  <use x="4.019531" y="549.773438" xlink:href="#e"/>
  <use x="4.359375" y="549.773438" xlink:href="#s"/>
  <use y="550.25" xlink:href="#r"/>
  <use x="0.207031" y="550.25" xlink:href="#c"/>
  <use x="0.4375" y="550.25" xlink:href="#d"/>
  <use x="0.765625" y="550.25" xlink:href="#q"/>
  <use x="1.421875" y="550.25" xlink:href="#b"/>
  <use x="1.648438" y="550.25" xlink:href="#p"/>
  <use x="1.984375" y="550.25" xlink:href="#a"/>
  <use x="2.46875" y="550.25" xlink:href="#o"/>
  <use x="2.867188" y="550.25" xlink:href="#d"/>
  <use x="3.191406" y="550.25" xlink:href="#n"/>
  <use x="3.527344" y="550.25" xlink:href="#g"/>
  <use x="4.027344" y="550.25" xlink:href="#m"/>
  <use x="4.375" y="550.25" xlink:href="#c"/>
  <use x="4.609375" y="550.25" xlink:href="#d"/>
  <use x="4.933594" y="550.25" xlink:href="#l"/>
  <use x="5.097656" y="550.25" xlink:href="#a"/>
  <use x="5.417969" y="550.25" xlink:href="#k"/>
  <use x="5.699219" y="550.25" xlink:href="#b"/>
 </g>
</svg>
