<?xml version="1.0" encoding="UTF-8"?>
<svg width="700pt" height="700pt" version="1.1" viewBox="0 0 700 700" xmlns="http://www.w3.org/2000/svg">
 <g>
  <path d="m425.83 233.33c0 41.883-33.949 75.836-75.832 75.836s-75.832-33.953-75.832-75.836c0-41.879 33.949-75.832 75.832-75.832s75.832 33.953 75.832 75.832"/>
  <path d="m210 530.83h5.832v-87.5c0.027344-24.414 6.7109-48.359 19.332-69.258 12.621-20.898 30.707-37.957 52.301-49.344-26.238-17.934-43.52-46.266-47.449-77.805-3.9297-31.539 5.8711-63.246 26.91-87.07 21.039-23.82 51.293-37.465 83.074-37.465s62.035 13.645 83.074 37.465c21.039 23.824 30.84 55.531 26.91 87.07-3.9297 31.539-21.211 59.871-47.449 77.805 21.594 11.387 39.68 28.445 52.301 49.344 12.621 20.898 19.305 44.844 19.332 69.258v87.5h5.832c29.383-0.035156 57.555-11.727 78.332-32.5 20.773-20.777 32.465-48.949 32.5-78.332v-280c-0.035156-29.383-11.727-57.555-32.5-78.332-20.777-20.773-48.949-32.465-78.332-32.5h-280c-29.383 0.035156-57.555 11.727-78.332 32.5-20.773 20.777-32.465 48.949-32.5 78.332v280c0.035156 29.383 11.727 57.555 32.5 78.332 20.777 20.773 48.949 32.465 78.332 32.5z"/>
  <path d="m250.83 443.33v87.5h198.33l0.003907-87.5c0-35.426-18.902-68.164-49.586-85.879-30.68-17.715-68.484-17.715-99.164 0-30.684 17.715-49.586 50.453-49.586 85.879z"/>
 </g>
</svg>
