<svg width="151" height="151" viewBox="0 0 151 151" fill="none" xmlns="http://www.w3.org/2000/svg">
<path d="M98.0412 61.2123C98.0412 73.7355 87.8902 83.8877 75.367 83.8877C62.8438 83.8877 52.6929 73.7355 52.6929 61.2123C52.6929 48.6903 62.8438 38.5382 75.367 38.5382C87.8902 38.5382 98.0412 48.6903 98.0412 61.2123" fill="black"/>
<path d="M33.507 150.166H35.2508V124.003C35.259 116.703 37.2574 109.544 41.0312 103.295C44.8049 97.0463 50.2127 91.9455 56.6694 88.5408C48.8241 83.1784 43.6567 74.707 42.4819 65.2767C41.3069 55.8464 44.2374 46.3658 50.5281 39.2423C56.8189 32.12 65.865 28.0401 75.3677 28.0401C84.8704 28.0401 93.9165 32.12 100.207 39.2423C106.498 46.3658 109.429 55.8464 108.253 65.2767C107.078 74.707 101.911 83.1784 94.066 88.5408C100.523 91.9455 105.93 97.046 109.704 103.295C113.478 109.543 115.477 116.703 115.485 124.003V150.166H117.228C126.014 150.156 134.438 146.66 140.65 140.449C146.861 134.236 150.357 125.813 150.368 117.027V33.3056C150.357 24.5199 146.861 16.0964 140.65 9.88394C134.438 3.67271 126.014 0.17674 117.228 0.166275H33.507C24.7213 0.176787 16.2978 3.67271 10.0853 9.88394C3.87411 16.0964 0.378141 24.5199 0.367676 33.3056V117.027C0.378188 125.813 3.87411 134.236 10.0853 140.449C16.2978 146.66 24.7213 150.156 33.507 150.166Z" fill="black"/>
<path d="M45.7155 124.003V150.166H105.017L105.018 124.003C105.018 113.411 99.3665 103.622 90.1918 98.3251C81.0184 93.0282 69.7148 93.0282 60.5413 98.3251C51.3666 103.622 45.7148 113.411 45.7148 124.003H45.7155Z" fill="black"/>
</svg>
