<svg width="151" height="151" viewBox="0 0 151 151" fill="none" xmlns="http://www.w3.org/2000/svg">
<path d="M146.569 4.23846C141.527 -0.803708 133.35 -0.803708 128.308 4.23846L75.3503 57.1964L22.3924 4.23846C17.3502 -0.803708 9.17413 -0.803708 4.13197 4.23846C-0.910199 9.28062 -0.910199 17.4567 4.13197 22.4989L57.0899 75.4522L4.13657 128.406C-0.90559 133.448 -0.90559 141.624 4.13657 146.666C9.17874 151.708 17.3549 151.708 22.397 146.666L75.3503 93.7081L128.308 146.666C133.35 151.708 141.527 151.708 146.569 146.666C151.611 141.624 151.611 133.448 146.569 128.406L93.6108 75.4476L146.569 22.4897C151.611 17.4475 151.611 9.2714 146.569 4.22924V4.23846Z" fill="black"/>
</svg>
