<svg width="151" height="150" viewBox="0 0 151 150" fill="none" xmlns="http://www.w3.org/2000/svg">
<path d="M150.514 146.562L134.549 91.0468C134.312 90.2119 133.672 89.5522 132.844 89.2893C132.028 89.0332 131.138 89.1981 130.468 89.7286L111.946 104.531L121.685 89.2374V89.2385C122.095 88.5973 122.203 87.8097 121.979 87.082C121.755 86.3554 121.221 85.765 120.522 85.4662L107.167 79.7311L126.129 68.675H126.127C127.132 68.0661 127.599 66.8563 127.264 65.7307L109.182 1.8988C108.86 0.749025 107.792 -0.0305927 106.598 0.0132492H44.5997C43.4061 -0.030575 42.3382 0.749025 42.0165 1.8988L27.4728 53.1244C27.2375 54.0735 27.557 55.0722 28.2997 55.7076C29.0873 56.3707 30.1933 56.5034 31.1147 56.0444L43.7208 49.7406L27.1879 67.8235C26.5144 68.5685 26.3322 69.6364 26.7231 70.5613L33.4916 86.5522L16.5964 94.4564C15.9183 94.7713 15.4097 95.3652 15.2021 96.0848L0.683819 146.56C0.464702 147.333 0.616931 148.163 1.09667 148.808C1.60642 149.489 2.4183 149.875 3.26709 149.841H147.93C148.743 149.841 149.509 149.459 149.997 148.808C150.512 148.182 150.704 147.349 150.514 146.56L150.514 146.562ZM6.70356 144.677L19.8529 98.6175L37.9358 90.1966V90.1955C39.2032 89.6096 39.7752 88.1219 39.2274 86.8372L32.1236 70.2789L56.8456 43.0772C57.6621 42.1523 57.7117 40.7799 56.9644 39.7986C56.2159 38.8184 54.8782 38.5035 53.7712 39.0467L34.061 48.8885L46.538 5.17955H104.663L121.817 65.2148L100.143 77.8728C99.2984 78.3584 98.799 79.2763 98.8509 80.2485C98.9109 81.2288 99.5221 82.0891 100.426 82.4708L115.693 89.0329L99.2639 114.866V114.865C98.6043 115.927 98.798 117.308 99.7252 118.145C100.652 118.984 102.047 119.038 103.036 118.275L130.652 96.1877L144.498 144.677H6.70356Z" fill="black"/>
<path d="M75.5987 12.9286C74.1721 12.9286 73.0154 14.0854 73.0154 15.5119V28.4283C73.0154 29.8548 74.1721 31.0115 75.5987 31.0115C77.0252 31.0115 78.1819 29.8548 78.1819 28.4283V15.5119C78.1819 14.8269 77.9098 14.1695 77.4254 13.6852C76.941 13.2008 76.2837 12.9286 75.5987 12.9286Z" fill="black"/>
<path d="M75.5987 116.26C74.1721 116.26 73.0154 117.416 73.0154 118.843V131.759C73.0154 133.186 74.1721 134.342 75.5987 134.342C77.0252 134.342 78.1819 133.186 78.1819 131.759V118.843C78.1819 118.158 77.9098 117.5 77.4254 117.016C76.941 116.532 76.2837 116.26 75.5987 116.26Z" fill="black"/>
<path d="M75.5987 90.4268C74.1721 90.4268 73.0154 91.5835 73.0154 93.0101V105.926C73.0154 107.353 74.1721 108.51 75.5987 108.51C77.0252 108.51 78.1819 107.353 78.1819 105.926V93.0101C78.1819 92.3251 77.9098 91.6677 77.4254 91.1833C76.941 90.699 76.2837 90.4268 75.5987 90.4268Z" fill="black"/>
<path d="M75.5987 38.7614C74.1721 38.7614 73.0154 39.9181 73.0154 41.3446V54.261C73.0154 55.6876 74.1721 56.8443 75.5987 56.8443C77.0252 56.8443 78.1819 55.6876 78.1819 54.261V41.3446C78.1819 40.6596 77.9098 40.0023 77.4254 39.5179C76.941 39.0335 76.2837 38.7614 75.5987 38.7614Z" fill="black"/>
<path d="M75.5987 64.5941C74.1721 64.5941 73.0154 65.7508 73.0154 67.1774V80.0937C73.0154 81.5203 74.1721 82.677 75.5987 82.677C77.0252 82.677 78.1819 81.5203 78.1819 80.0937V67.1774C78.1819 66.4923 77.9098 65.835 77.4254 65.3506C76.941 64.8663 76.2837 64.5941 75.5987 64.5941Z" fill="black"/>
</svg>
