<svg width="116" height="151" viewBox="0 0 116 151" fill="none" xmlns="http://www.w3.org/2000/svg">
<path d="M86.7884 150.775C94.4391 150.775 101.776 147.736 107.185 142.326C112.595 136.916 115.635 129.579 115.635 121.929V58.4673C115.632 57.0649 115.119 55.7114 114.192 54.6592L68.0384 2.73618C66.94 1.49863 65.3663 0.786481 63.7115 0.77491H29.0961C21.4455 0.77491 14.109 3.81407 8.69912 9.22403C3.28923 14.634 0.25 21.9704 0.25 29.6211V121.929C0.25 129.579 3.28916 136.916 8.69912 142.326C14.1091 147.736 21.4455 150.775 29.0961 150.775L86.7884 150.775ZM69.4807 21.7156L97.0006 52.697H75.25C73.7201 52.697 72.252 52.0892 71.1703 51.0075C70.0886 49.9258 69.4807 48.4577 69.4807 46.9278V21.7156ZM29.0961 64.2365H46.4038C48.4655 64.2365 50.3701 65.3362 51.4003 67.1211C52.4305 68.906 52.4305 71.1055 51.4003 72.8903C50.3701 74.6752 48.4655 75.7749 46.4038 75.7749H29.0961C27.0344 75.7749 25.1299 74.6752 24.0997 72.8903C23.0694 71.1055 23.0694 68.9059 24.0997 67.1211C25.1299 65.3363 27.0345 64.2365 29.0961 64.2365V64.2365ZM29.0961 87.3134H75.25C77.3117 87.3134 79.2162 88.4131 80.2464 90.198C81.2767 91.9829 81.2767 94.1824 80.2464 95.9672C79.2162 97.7521 77.3116 98.8519 75.25 98.8519H29.0961C27.0344 98.8519 25.1299 97.7521 24.0997 95.9672C23.0694 94.1824 23.0694 91.9828 24.0997 90.198C25.1299 88.4132 27.0345 87.3134 29.0961 87.3134ZM23.3269 116.16C23.3269 114.63 23.9348 113.162 25.0165 112.08C26.0982 110.998 27.5663 110.39 29.0961 110.39H75.25C77.3117 110.39 79.2162 111.49 80.2464 113.275C81.2767 115.06 81.2767 117.259 80.2464 119.044C79.2162 120.829 77.3116 121.929 75.25 121.929H29.0961C27.5663 121.929 26.0982 121.321 25.0165 120.239C23.9348 119.157 23.3269 117.689 23.3269 116.16Z" fill="black"/>
</svg>
