<svg width="152" height="151" viewBox="0 0 152 151" fill="none" xmlns="http://www.w3.org/2000/svg">
<path d="M137.937 5.7775C134.687 2.52878 130.279 0.702593 125.682 0.702593C121.086 0.702593 116.678 2.52878 113.428 5.7775L101.161 18.0321L50.3167 68.8769C48.092 71.1003 46.5146 73.8861 45.7526 76.9374L40.6852 97.1598C39.8173 100.606 40.5846 104.26 42.7642 107.067C44.9438 109.874 48.2931 111.522 51.8476 111.535C52.8058 111.535 53.7602 111.416 54.6901 111.183L74.9125 106.127C77.9613 105.364 80.7457 103.786 82.9667 101.563L146.067 38.4626C149.317 35.2113 151.142 30.8032 151.142 26.2067C151.142 21.6115 149.317 17.2032 146.067 13.9521L137.937 5.7775ZM74.8133 93.3989C74.073 94.134 73.1496 94.6576 72.1385 94.913L51.9161 99.9737L56.9768 79.7513V79.7526C57.2322 78.7351 57.7597 77.8065 58.5025 77.0649L105.267 30.3042L121.607 46.6445L74.8133 93.3989Z" fill="black"/>
<path d="M29.3139 150.703H110.203C117.863 150.694 125.205 147.647 130.62 142.231C136.037 136.815 139.083 129.473 139.092 121.814V67.5615C139.092 65.4967 137.991 63.5893 136.203 62.5576C134.416 61.5258 132.213 61.5258 130.426 62.5576C128.638 63.5893 127.537 65.4968 127.537 67.5615V121.814C127.537 126.411 125.711 130.819 122.461 134.071C119.209 137.321 114.801 139.147 110.203 139.147H29.3139C24.7161 139.147 20.3081 137.321 17.0567 134.071C13.8066 130.819 11.9804 126.411 11.9804 121.814V40.9241C11.9804 36.3263 13.8066 31.9183 17.0567 28.6669C20.308 25.4169 24.7161 23.5907 29.3139 23.5907H85.012C87.0768 23.5907 88.9842 22.4893 90.0159 20.7018C91.0477 18.9142 91.0477 16.7114 90.0159 14.9239C88.9842 13.1365 87.0768 12.035 85.012 12.035H29.3139C21.6545 12.0441 14.312 15.0903 8.89673 20.507C3.48011 25.9223 0.433719 33.2647 0.424805 40.9241V121.814C0.433833 129.473 3.48008 136.815 8.89673 142.231C14.312 147.647 21.6545 150.694 29.3139 150.703V150.703Z" fill="black"/>
</svg>
