<?xml version="1.0" encoding="UTF-8"?>
<svg width="700pt" height="700pt" version="1.1" viewBox="0 0 700 700" xmlns="http://www.w3.org/2000/svg">
 <g>
  <path d="m539 68.547c-9.8438-9.8398-23.195-15.371-37.117-15.371-13.922 0-27.273 5.5312-37.117 15.371l-37.152 37.117-154 154c-6.7383 6.7344-11.516 15.172-13.824 24.414l-15.348 61.25c-2.6289 10.438-0.30469 21.504 6.2969 30.008 6.6016 8.5 16.746 13.492 27.512 13.531 2.9023 0 5.793-0.35938 8.6094-1.0664l61.25-15.312c9.2344-2.3125 17.668-7.0898 24.395-13.824l191.12-191.12c9.8438-9.8477 15.371-23.199 15.371-37.121 0-13.918-5.5273-27.27-15.371-37.117zm-191.19 265.39c-2.2422 2.2266-5.0391 3.8125-8.1016 4.5859l-61.25 15.328 15.328-61.25v0.003906c0.77344-3.082 2.3711-5.8945 4.6211-8.1406l141.64-141.63 49.492 49.492z"/>
  <path d="m210 507.5h245c23.199-0.027344 45.438-9.2539 61.84-25.66 16.406-16.402 25.633-38.641 25.66-61.84v-164.32c0-6.2539-3.3359-12.031-8.75-15.156s-12.086-3.125-17.5 0-8.75 8.9023-8.75 15.156v164.32c0 13.926-5.5312 27.277-15.375 37.125-9.8477 9.8438-23.199 15.375-37.125 15.375h-245c-13.926 0-27.277-5.5312-37.125-15.375-9.8438-9.8477-15.375-23.199-15.375-37.125v-245c0-13.926 5.5312-27.277 15.375-37.125 9.8477-9.8438 23.199-15.375 37.125-15.375h168.7c6.2539 0 12.031-3.3359 15.156-8.75s3.125-12.086 0-17.5-8.9023-8.75-15.156-8.75h-168.7c-23.199 0.027344-45.438 9.2539-61.84 25.66-16.406 16.402-25.633 38.641-25.66 61.84v245c0.027344 23.199 9.2539 45.438 25.66 61.84 16.402 16.406 38.641 25.633 61.84 25.66z"/>
 </g>
</svg>
