<svg width="117" height="151" viewBox="0 0 117 151" fill="none" xmlns="http://www.w3.org/2000/svg">
<path d="M87.2885 150.025C94.9365 150.016 102.268 146.974 107.675 141.566C113.084 136.158 116.126 128.827 116.135 121.179V57.7173C116.135 57.6014 116.077 57.4984 116.072 57.3825C116.046 56.9318 115.963 56.4862 115.829 56.0561C115.786 55.8719 115.729 55.6904 115.662 55.5139C115.428 54.919 115.095 54.3665 114.681 53.8811L68.5269 1.95798C68.0362 1.4287 67.449 0.997289 66.7961 0.688223C66.6094 0.598078 66.4175 0.520814 66.2192 0.457712C65.6861 0.255532 65.1259 0.13448 64.558 0.099723C64.4421 0.0945722 64.3326 0.025032 64.2115 0.025032H29.5962C21.9481 0.0340465 14.6166 3.07577 9.20934 8.48437C3.80077 13.8916 0.758901 21.2232 0.75 28.8712V121.179C0.759015 128.827 3.80074 136.158 9.20934 141.566C14.6166 146.974 21.9481 150.016 29.5962 150.025L87.2885 150.025ZM97.5172 51.9481H75.75C74.2202 51.9481 72.7521 51.3402 71.6704 50.2585C70.5886 49.1768 69.9808 47.7087 69.9808 46.1788V20.9666L97.5172 51.9481ZM12.2875 121.179V28.8711C12.2875 24.2802 14.111 19.8787 17.3562 16.6321C20.6027 13.3869 25.0042 11.5635 29.5952 11.5635H58.4414V46.1788C58.4414 50.7698 60.2648 55.1713 63.51 58.4179C66.7565 61.6631 71.1581 63.4865 75.749 63.4865H104.595V121.179C104.595 125.77 102.772 130.171 99.5265 133.418C96.28 136.663 91.8785 138.487 87.2875 138.487H29.5952C25.0042 138.487 20.6028 136.663 17.3562 133.418C14.111 130.171 12.2875 125.77 12.2875 121.179Z" fill="black"/>
<path d="M35.3653 121.179H81.5192C83.5809 121.179 85.4855 120.079 86.5157 118.294C87.5459 116.509 87.5459 114.31 86.5157 112.525C85.4855 110.74 83.5808 109.64 81.5192 109.64H35.3653C33.3036 109.64 31.3991 110.74 30.3689 112.525C29.3386 114.31 29.3386 116.509 30.3689 118.294C31.3991 120.079 33.3037 121.179 35.3653 121.179Z" fill="black"/>
<path d="M35.3653 98.1019H81.5192C83.5809 98.1019 85.4855 97.0022 86.5157 95.2173C87.5459 93.4324 87.5459 91.2329 86.5157 89.4481C85.4855 87.6632 83.5808 86.5635 81.5192 86.5635H35.3653C33.3036 86.5635 31.3991 87.6632 30.3689 89.4481C29.3386 91.2329 29.3386 93.4325 30.3689 95.2173C31.3991 97.0021 33.3037 98.1019 35.3653 98.1019Z" fill="black"/>
<path d="M35.3653 75.025H52.673C54.7348 75.025 56.6393 73.9252 57.6695 72.1404C58.6997 70.3555 58.6997 68.156 57.6695 66.3711C56.6393 64.5863 54.7347 63.4865 52.673 63.4865H35.3653C33.3036 63.4865 31.3991 64.5863 30.3689 66.3711C29.3386 68.156 29.3386 70.3555 30.3689 72.1404C31.3991 73.9252 33.3037 75.025 35.3653 75.025Z" fill="black"/>
</svg>
