<?xml version="1.0" encoding="UTF-8"?>
<svg width="700pt" height="700pt" version="1.1" viewBox="0 0 700 700" xmlns="http://www.w3.org/2000/svg">
 <g>
  <path d="m437.5 507.5c23.199-0.027344 45.438-9.2539 61.84-25.66 16.406-16.402 25.633-38.641 25.66-61.84v-192.5c0-0.35156-0.17578-0.66406-0.19141-1.0156-0.078125-1.3672-0.32812-2.7188-0.73438-4.0234-0.13281-0.55859-0.30469-1.1094-0.50781-1.6445-0.71094-1.8047-1.7188-3.4805-2.9766-4.9531l-140-157.5c-1.4883-1.6055-3.2695-2.9141-5.25-3.8516-0.56641-0.27344-1.1484-0.50781-1.75-0.69922-1.6172-0.61328-3.3164-0.98047-5.0391-1.0859-0.35156-0.015624-0.68359-0.22656-1.0508-0.22656h-105c-23.199 0.027344-45.438 9.2539-61.84 25.66-16.406 16.402-25.633 38.641-25.66 61.84v280c0.027344 23.199 9.2539 45.438 25.66 61.84 16.402 16.406 38.641 25.633 61.84 25.66zm31.027-297.5h-66.027c-4.6406 0-9.0938-1.8438-12.375-5.125s-5.125-7.7344-5.125-12.375v-76.477zm-258.53 210v-280c0-13.926 5.5312-27.277 15.375-37.125 9.8477-9.8438 23.199-15.375 37.125-15.375h87.5v105c0 13.926 5.5312 27.277 15.375 37.125 9.8477 9.8438 23.199 15.375 37.125 15.375h87.5v175c0 13.926-5.5312 27.277-15.375 37.125-9.8477 9.8438-23.199 15.375-37.125 15.375h-175c-13.926 0-27.277-5.5312-37.125-15.375-9.8438-9.8477-15.375-23.199-15.375-37.125z"/>
  <path d="m280 420h140c6.2539 0 12.031-3.3359 15.156-8.75s3.125-12.086 0-17.5-8.9023-8.75-15.156-8.75h-140c-6.2539 0-12.031 3.3359-15.156 8.75s-3.125 12.086 0 17.5 8.9023 8.75 15.156 8.75z"/>
  <path d="m280 350h140c6.2539 0 12.031-3.3359 15.156-8.75s3.125-12.086 0-17.5-8.9023-8.75-15.156-8.75h-140c-6.2539 0-12.031 3.3359-15.156 8.75s-3.125 12.086 0 17.5 8.9023 8.75 15.156 8.75z"/>
  <path d="m280 280h52.5c6.2539 0 12.031-3.3359 15.156-8.75s3.125-12.086 0-17.5-8.9023-8.75-15.156-8.75h-52.5c-6.2539 0-12.031 3.3359-15.156 8.75s-3.125 12.086 0 17.5 8.9023 8.75 15.156 8.75z"/>
 </g>
</svg>
