<?xml version="1.0" encoding="UTF-8"?>
<svg width="700pt" height="700pt" version="1.1" viewBox="0 0 700 700" xmlns="http://www.w3.org/2000/svg">
 <g>
  <path d="m503.67 145.83h-151.06c-4.7891-13.715-15.078-24.816-28.395-30.633-13.316-5.8125-28.453-5.8125-41.77 0-13.316 5.8164-23.605 16.918-28.395 30.633h-44.055c-6.2539 0-12.031 3.3359-15.156 8.75-3.125 5.4141-3.125 12.086 0 17.5 3.125 5.4141 8.9023 8.75 15.156 8.75h44.055c4.7891 13.719 15.078 24.82 28.395 30.633 13.316 5.8164 28.453 5.8164 41.77 0 13.316-5.8125 23.605-16.914 28.395-30.633h151.06c6.2539 0 12.031-3.3359 15.156-8.75 3.125-5.4141 3.125-12.086 0-17.5-3.125-5.4141-8.9023-8.75-15.156-8.75zm-200.34 35c-4.6406 0-9.0898-1.8438-12.375-5.125-3.2812-3.2812-5.125-7.7305-5.125-12.375 0-4.6406 1.8438-9.0898 5.125-12.375 3.2852-3.2812 7.7344-5.125 12.375-5.125 4.6445 0 9.0938 1.8438 12.375 5.125 3.2812 3.2852 5.125 7.7344 5.125 12.375-0.003906 4.6406-1.8516 9.0898-5.1328 12.367-3.2773 3.2812-7.7266 5.1289-12.367 5.1328z"/>
  <path d="m503.67 262.5h-57.727c-4.7891-13.719-15.078-24.82-28.395-30.633-13.316-5.8125-28.453-5.8125-41.77 0s-23.605 16.914-28.395 30.633h-137.39c-6.2539 0-12.031 3.3359-15.156 8.75s-3.125 12.086 0 17.5 8.9023 8.75 15.156 8.75h137.39c4.7891 13.719 15.078 24.82 28.395 30.633s28.453 5.8125 41.77 0c13.316-5.8125 23.605-16.914 28.395-30.633h57.727c6.2539 0 12.031-3.3359 15.156-8.75s3.125-12.086 0-17.5-8.9023-8.75-15.156-8.75zm-107 35c-4.6445 0-9.0938-1.8438-12.375-5.125s-5.125-7.7344-5.125-12.375 1.8438-9.0938 5.125-12.375 7.7305-5.125 12.375-5.125c4.6406 0 9.0898 1.8438 12.375 5.125 3.2812 3.2812 5.125 7.7344 5.125 12.375-0.007813 4.6406-1.8516 9.0859-5.1328 12.367s-7.7305 5.125-12.367 5.1328z"/>
  <path d="m503.67 379.17h-151.06c-4.7891-13.719-15.078-24.82-28.395-30.633-13.316-5.8164-28.453-5.8164-41.77 0-13.316 5.8125-23.605 16.914-28.395 30.633h-44.055c-6.2539 0-12.031 3.3359-15.156 8.75-3.125 5.4141-3.125 12.086 0 17.5 3.125 5.4141 8.9023 8.75 15.156 8.75h44.055c4.7891 13.715 15.078 24.816 28.395 30.633 13.316 5.8125 28.453 5.8125 41.77 0 13.316-5.8164 23.605-16.918 28.395-30.633h151.06c6.2539 0 12.031-3.3359 15.156-8.75 3.125-5.4141 3.125-12.086 0-17.5-3.125-5.4141-8.9023-8.75-15.156-8.75zm-200.34 35c-4.6406 0-9.0898-1.8438-12.375-5.125-3.2812-3.2852-5.125-7.7344-5.125-12.375 0-4.6445 1.8438-9.0938 5.125-12.375 3.2852-3.2812 7.7344-5.125 12.375-5.125 4.6445 0 9.0938 1.8438 12.375 5.125s5.125 7.7305 5.125 12.375c-0.003906 4.6367-1.8516 9.0859-5.1328 12.367-3.2773 3.2812-7.7266 5.125-12.367 5.1328z"/>
  <path d="m600.83 163.33c-0.035156-29.383-11.727-57.551-32.5-78.328-20.777-20.777-48.949-32.469-78.332-32.504h-280c-29.383 0.035156-57.555 11.727-78.332 32.504-20.773 20.777-32.465 48.945-32.5 78.328v233.34c0.035156 29.383 11.727 57.551 32.5 78.328 20.777 20.777 48.949 32.469 78.332 32.504h280c29.383-0.035156 57.555-11.727 78.332-32.504 20.773-20.777 32.465-48.945 32.5-78.328zm-35 233.33v0.003907c-0.023437 20.102-8.0195 39.379-22.238 53.594-14.215 14.215-33.488 22.215-53.594 22.238h-280c-20.105-0.023438-39.379-8.0234-53.594-22.238-14.219-14.215-22.215-33.492-22.238-53.594v-233.34c0.023437-20.102 8.0195-39.379 22.238-53.594 14.215-14.215 33.488-22.215 53.594-22.238h280c20.105 0.023438 39.379 8.0234 53.594 22.238 14.219 14.215 22.215 33.492 22.238 53.594z"/>
 </g>
</svg>
