<?xml version="1.0" encoding="UTF-8"?>
<svg width="700pt" height="700pt" version="1.1" viewBox="0 0 700 700" xmlns="http://www.w3.org/2000/svg">
 <g>
  <path d="m490 87.5h-280c-23.199 0.027344-45.438 9.2539-61.84 25.66-16.406 16.402-25.633 38.641-25.66 61.84v210c0.027344 23.199 9.2539 45.438 25.66 61.84 16.402 16.406 38.641 25.633 61.84 25.66h280c23.199-0.027344 45.438-9.2539 61.84-25.66 16.406-16.402 25.633-38.641 25.66-61.84v-210c-0.027344-23.199-9.2539-45.438-25.66-61.84-16.402-16.406-38.641-25.633-61.84-25.66zm52.5 297.5c0 13.926-5.5312 27.277-15.375 37.125-9.8477 9.8438-23.199 15.375-37.125 15.375h-280c-13.926 0-27.277-5.5312-37.125-15.375-9.8438-9.8477-15.375-23.199-15.375-37.125v-210c0-13.926 5.5312-27.277 15.375-37.125 9.8477-9.8438 23.199-15.375 37.125-15.375h280c13.926 0 27.277 5.5312 37.125 15.375 9.8438 9.8477 15.375 23.199 15.375 37.125z"/>
  <path d="m472.5 192.5h-108.22c-4.7812-13.727-15.07-24.836-28.391-30.652-13.32-5.8203-28.461-5.8203-41.781 0-13.32 5.8164-23.609 16.926-28.391 30.652h-38.219c-6.2539 0-12.031 3.3359-15.156 8.75s-3.125 12.086 0 17.5 8.9023 8.75 15.156 8.75h38.219c4.7812 13.727 15.07 24.836 28.391 30.652 13.32 5.8203 28.461 5.8203 41.781 0 13.32-5.8164 23.609-16.926 28.391-30.652h108.22c6.2539 0 12.031-3.3359 15.156-8.75s3.125-12.086 0-17.5-8.9023-8.75-15.156-8.75zm-157.5 35c-4.6406 0-9.0938-1.8438-12.375-5.125s-5.125-7.7344-5.125-12.375 1.8438-9.0938 5.125-12.375 7.7344-5.125 12.375-5.125 9.0938 1.8438 12.375 5.125 5.125 7.7344 5.125 12.375-1.8438 9.0938-5.125 12.375-7.7344 5.125-12.375 5.125z"/>
  <path d="m472.5 332.5h-38.219c-4.7812-13.727-15.07-24.836-28.391-30.652-13.32-5.8203-28.461-5.8203-41.781 0-13.32 5.8164-23.609 16.926-28.391 30.652h-108.22c-6.2539 0-12.031 3.3359-15.156 8.75s-3.125 12.086 0 17.5 8.9023 8.75 15.156 8.75h108.22c4.7812 13.727 15.07 24.836 28.391 30.652 13.32 5.8203 28.461 5.8203 41.781 0 13.32-5.8164 23.609-16.926 28.391-30.652h38.219c6.2539 0 12.031-3.3359 15.156-8.75s3.125-12.086 0-17.5-8.9023-8.75-15.156-8.75zm-87.5 35c-4.6406 0-9.0938-1.8438-12.375-5.125s-5.125-7.7344-5.125-12.375 1.8438-9.0938 5.125-12.375 7.7344-5.125 12.375-5.125 9.0938 1.8438 12.375 5.125 5.125 7.7344 5.125 12.375-1.8438 9.0938-5.125 12.375-7.7344 5.125-12.375 5.125z"/>
 </g>
</svg>
