<svg width="168" height="174" viewBox="0 0 168 174" fill="none" xmlns="http://www.w3.org/2000/svg">
<path d="M158.872 18.3733H81.8311C79.3887 11.3786 74.1413 5.71713 67.3497 2.75046C60.5585 -0.21391 52.8387 -0.21391 46.047 2.75046C39.2558 5.71683 34.0084 11.3786 31.5655 18.3733H9.09747C5.90799 18.3733 2.96167 20.0746 1.36792 22.8358C-0.22583 25.597 -0.22583 28.9997 1.36792 31.7608C2.96167 34.522 5.90809 36.2233 9.09747 36.2233H31.5655C34.008 43.22 39.2553 48.8815 46.047 51.8461C52.8381 54.8125 60.558 54.8125 67.3497 51.8461C74.1408 48.8817 79.3882 43.22 81.8311 36.2233H158.872C162.061 36.2233 165.008 34.522 166.601 31.7608C168.195 28.9996 168.195 25.5969 166.601 22.8358C165.008 20.0746 162.061 18.3733 158.872 18.3733ZM56.6983 36.2233C54.3316 36.2233 52.0625 35.283 50.3871 33.6095C48.7137 31.9361 47.7733 29.667 47.7733 27.2983C47.7733 24.9316 48.7137 22.6625 50.3871 20.987C52.0625 19.3136 54.3316 18.3733 56.6983 18.3733C59.067 18.3733 61.3362 19.3136 63.0096 20.987C64.683 22.6625 65.6233 24.9316 65.6233 27.2983C65.6213 29.665 64.679 31.9341 63.0056 33.6055C61.3342 35.2789 59.065 36.2212 56.6984 36.2232L56.6983 36.2233Z" fill="black"/>
<path d="M158.872 77.875H129.431C126.989 70.8783 121.741 65.2168 114.95 62.2522C108.158 59.2878 100.439 59.2878 93.6469 62.2522C86.8552 65.2165 81.6083 70.8783 79.1654 77.875H9.0965C5.90701 77.875 2.96069 79.5763 1.36694 82.3375C-0.226807 85.0987 -0.226807 88.5014 1.36694 91.2625C2.96069 94.0236 5.90711 95.725 9.0965 95.725H79.1654C81.6078 102.722 86.8552 108.383 93.6469 111.348C100.439 114.312 108.158 114.312 114.95 111.348C121.741 108.383 126.988 102.722 129.431 95.725H158.872C162.061 95.725 165.008 94.0237 166.601 91.2625C168.195 88.5013 168.195 85.0986 166.601 82.3375C165.008 79.5764 162.061 77.875 158.872 77.875ZM104.302 95.725C101.933 95.725 99.6639 94.7847 97.9905 93.1113C96.3171 91.4378 95.3768 89.1667 95.3768 86.8C95.3768 84.4333 96.3171 82.1622 97.9905 80.4888C99.6639 78.8153 101.933 77.875 104.302 77.875C106.668 77.875 108.938 78.8153 110.613 80.4888C112.286 82.1622 113.227 84.4333 113.227 86.8C113.223 89.1667 112.282 91.4338 110.609 93.1072C108.936 94.7805 106.666 95.7209 104.302 95.7249L104.302 95.725Z" fill="black"/>
<path d="M158.872 137.377H81.8311C79.3887 130.38 74.1413 124.718 67.3497 121.754C60.5585 118.787 52.8387 118.787 46.047 121.754C39.2558 124.718 34.0084 130.38 31.5655 137.377H9.09747C5.90799 137.377 2.96167 139.078 1.36792 141.839C-0.22583 144.6 -0.22583 148.003 1.36792 150.764C2.96167 153.525 5.90809 155.227 9.09747 155.227H31.5655C34.008 162.221 39.2553 167.883 46.047 170.85C52.8381 173.814 60.558 173.814 67.3497 170.85C74.1408 167.883 79.3882 162.221 81.8311 155.227H158.872C162.061 155.227 165.008 153.525 166.601 150.764C168.195 148.003 168.195 144.6 166.601 141.839C165.008 139.078 162.061 137.377 158.872 137.377ZM56.6983 155.227C54.3316 155.227 52.0625 154.286 50.3871 152.613C48.7137 150.938 47.7733 148.668 47.7733 146.302C47.7733 143.933 48.7137 141.664 50.3871 139.99C52.0625 138.317 54.3316 137.377 56.6983 137.377C59.067 137.377 61.3362 138.317 63.0096 139.99C64.683 141.664 65.6233 143.933 65.6233 146.302C65.6213 148.666 64.679 150.936 63.0056 152.609C61.3342 154.282 59.065 155.223 56.6984 155.227L56.6983 155.227Z" fill="black"/>
</svg>
