<svg width="145" height="150" viewBox="0 0 145 150" fill="none" xmlns="http://www.w3.org/2000/svg">
<g clip-path="url(#clip0_403_46)">
<path d="M136.959 15.8391H70.5439C68.4384 9.80914 63.9148 4.92856 58.06 2.37109C52.2055 -0.184405 45.5505 -0.184405 39.6956 2.37109C33.8411 4.9283 29.3175 9.80914 27.2115 15.8391H7.84253C5.09298 15.8391 2.55305 17.3057 1.17912 19.686C-0.194799 22.0664 -0.194799 24.9997 1.17912 27.38C2.55305 29.7603 5.09306 31.227 7.84253 31.227H27.2115C29.3171 37.2586 33.8407 42.1392 39.6956 44.6949C45.55 47.2522 52.2051 47.2522 58.06 44.6949C63.9144 42.1394 68.438 37.2586 70.5439 31.227H136.959C139.708 31.227 142.248 29.7603 143.621 27.38C144.996 24.9997 144.996 22.0663 143.621 19.686C142.248 17.3057 139.708 15.8391 136.959 15.8391ZM48.8777 31.227C46.8375 31.227 44.8814 30.4164 43.437 28.9737C41.9945 27.5311 41.1838 25.575 41.1838 23.533C41.1838 21.4928 41.9945 19.5366 43.437 18.0922C44.8814 16.6497 46.8375 15.8391 48.8777 15.8391C50.9197 15.8391 52.8759 16.6497 54.3185 18.0922C55.7611 19.5366 56.5717 21.4928 56.5717 23.533C56.57 25.5733 55.7576 27.5294 54.3151 28.9703C52.8742 30.4128 50.918 31.2252 48.8778 31.2269L48.8777 31.227Z" fill="black"/>
<path d="M136.959 67.1336H111.578C109.473 61.102 104.949 56.2214 99.0948 53.6657C93.2396 51.1102 86.5853 51.1102 80.7301 53.6657C74.8752 56.2211 70.352 61.102 68.246 67.1336H7.8418C5.09224 67.1336 2.55231 68.6003 1.17839 70.9806C-0.195531 73.3609 -0.195531 76.2943 1.17839 78.6746C2.55231 81.0548 5.09233 82.5215 7.8418 82.5215H68.246C70.3515 88.5534 74.8752 93.4336 80.7301 95.9897C86.5853 98.5448 93.2396 98.5448 99.0948 95.9897C104.949 93.4336 109.472 88.5534 111.578 82.5215H136.959C139.708 82.5215 142.248 81.0549 143.622 78.6746C144.996 76.2942 144.996 73.3609 143.622 70.9806C142.248 68.6003 139.708 67.1336 136.959 67.1336ZM89.9155 82.5215C87.8733 82.5215 85.9172 81.7109 84.4746 80.2684C83.032 78.8257 82.2214 76.8678 82.2214 74.8276C82.2214 72.7873 83.032 70.8295 84.4746 69.3869C85.9172 67.9442 87.8733 67.1336 89.9155 67.1336C91.9552 67.1336 93.9121 67.9442 95.356 69.3869C96.7983 70.8295 97.6095 72.7873 97.6095 74.8276C97.606 76.8678 96.7948 78.8222 95.3526 80.2648C93.9103 81.7073 91.9534 82.518 89.9155 82.5215V82.5215Z" fill="black"/>
<path d="M136.959 118.428H70.5439C68.4384 112.397 63.9148 107.516 58.06 104.96C52.2055 102.403 45.5505 102.403 39.6956 104.96C33.8411 107.516 29.3175 112.397 27.2115 118.428H7.84253C5.09298 118.428 2.55305 119.895 1.17912 122.275C-0.194799 124.655 -0.194799 127.589 1.17912 129.969C2.55305 132.349 5.09306 133.816 7.84253 133.816H27.2115C29.3171 139.846 33.8407 144.727 39.6956 147.284C45.55 149.84 52.2051 149.84 58.06 147.284C63.9144 144.727 68.438 139.846 70.5439 133.816H136.959C139.708 133.816 142.248 132.349 143.621 129.969C144.996 127.589 144.996 124.655 143.621 122.275C142.248 119.895 139.708 118.428 136.959 118.428ZM48.8777 133.816C46.8375 133.816 44.8814 133.005 43.437 131.563C41.9945 130.119 41.1838 128.162 41.1838 126.122C41.1838 124.08 41.9945 122.124 43.437 120.681C44.8814 119.239 46.8375 118.428 48.8777 118.428C50.9197 118.428 52.8759 119.239 54.3185 120.681C55.7611 122.124 56.5717 124.08 56.5717 126.122C56.57 128.16 55.7576 130.117 54.3151 131.559C52.8742 133.002 50.918 133.813 48.8778 133.816H48.8777Z" fill="black"/>
</g>
<defs>
<clipPath id="clip0_403_46">
<rect width="144.828" height="150" fill="white"/>
</clipPath>
</defs>
</svg>
