<svg width="151" height="139" viewBox="0 0 151 139" fill="none" xmlns="http://www.w3.org/2000/svg">
<path d="M121.829 23.1769H96.7726C92.1869 23.1653 87.7891 21.3444 84.5363 18.1122L74.9705 8.54649C69.5735 3.11978 62.2304 0.0779156 54.5775 0.100003H29.5212C21.8732 0.109018 14.5416 3.15074 9.13439 8.55934C3.72582 13.9666 0.68395 21.2981 0.675049 28.9462V109.715C0.684063 117.363 3.72579 124.695 9.13439 130.102C14.5416 135.511 21.8732 138.553 29.5212 138.562H121.829C129.477 138.553 136.808 135.511 142.216 130.102C147.624 124.695 150.666 117.363 150.675 109.715V52.0231C150.666 44.3751 147.624 37.0435 142.216 31.6363C136.808 26.2277 129.477 23.1858 121.829 23.1769V23.1769Z" fill="black"/>
</svg>
