<?xml version="1.0" encoding="UTF-8"?>
<svg width="700pt" height="700pt" version="1.1" viewBox="0 0 700 700" xmlns="http://www.w3.org/2000/svg">
 <path d="m490 140h-76.004c-13.91-0.035156-27.25-5.5586-37.117-15.363l-29.016-29.016c-16.371-16.461-38.645-25.688-61.859-25.621h-76.004c-23.199 0.027344-45.438 9.2539-61.84 25.66-16.406 16.402-25.633 38.641-25.66 61.84v245c0.027344 23.199 9.2539 45.438 25.66 61.84 16.402 16.406 38.641 25.633 61.84 25.66h280c23.199-0.027344 45.438-9.2539 61.84-25.66 16.406-16.402 25.633-38.641 25.66-61.84v-175c-0.027344-23.199-9.2539-45.438-25.66-61.84-16.402-16.406-38.641-25.633-61.84-25.66z"/>
</svg>
