<svg width="151" height="126" viewBox="0 0 151 126" fill="none" xmlns="http://www.w3.org/2000/svg">
<path d="M129.555 74.5162C134.797 70.0081 137.805 63.4319 137.789 56.5173C137.78 49.187 134.411 42.2659 128.65 37.7342C122.888 33.2037 115.368 31.5624 108.242 33.2805C101.116 34.9999 95.171 39.8884 92.1075 46.5478C89.0451 53.2071 89.2021 60.9029 92.5349 67.4318C93.8802 70.0594 95.7223 72.4005 97.96 74.325C98.0241 74.4521 98.0871 74.4521 98.1512 74.5163H98.0871H98.0882C103.179 82.4834 105.881 91.7426 105.875 101.197V107.58C105.906 114.261 103.099 120.642 98.1525 125.133H133.003C137.66 125.136 142.126 123.288 145.419 119.995C148.711 116.703 150.559 112.237 150.556 107.58C150.555 100.644 148.579 93.8517 144.861 87.996C141.142 82.1415 135.834 77.4665 129.556 74.5163L129.555 74.5162Z" fill="black"/>
<path d="M18.1099 125.134H81.9377C86.5924 125.131 91.0546 123.28 94.3457 119.989C97.6368 116.698 99.4876 112.235 99.4909 107.581V101.198C99.4759 92.2459 96.6741 83.5201 91.4756 76.2306C86.2781 68.9418 78.9404 63.4516 70.4805 60.5205C77.9156 54.7899 82.6054 46.2039 83.4102 36.852C84.215 27.5001 81.0604 18.2388 74.7132 11.3231C68.3671 4.40637 59.4104 0.469692 50.0241 0.469692C40.6369 0.469692 31.68 4.40637 25.3339 11.3231C18.9878 18.2388 15.8324 27.5001 16.6369 36.852C17.4415 46.2042 22.1314 54.7899 29.5665 60.5205C21.1078 63.4516 13.77 68.9418 8.57148 76.2306C3.37291 83.5201 0.572292 92.2462 0.556152 101.198V107.581C0.559358 112.236 2.41009 116.698 5.70138 119.989C8.99266 123.28 13.4549 125.131 18.1094 125.134H18.1099Z" fill="black"/>
</svg>
