<?xml version="1.0" encoding="UTF-8"?>
<svg width="700pt" height="700pt" version="1.1" viewBox="0 0 700 700" xmlns="http://www.w3.org/2000/svg">
 <g>
  <path d="m547.4 322.46c19.164-16.48 30.16-40.52 30.102-65.797-0.035156-26.797-12.348-52.098-33.41-68.664-21.062-16.562-48.555-22.562-74.605-16.281-26.047 6.2852-47.781 24.156-58.98 48.5-11.195 24.344-10.621 52.477 1.5625 76.344 4.918 9.6055 11.652 18.164 19.832 25.199 0.23437 0.46484 0.46484 0.46484 0.69922 0.69922h-0.23438 0.003907c18.609 29.125 28.488 62.973 28.465 97.535v23.332c0.11328 24.426-10.148 47.75-28.23 64.168h127.4c17.023 0.011719 33.352-6.7422 45.387-18.781 12.035-12.035 18.793-28.363 18.781-45.387-0.003907-25.355-7.2266-50.184-20.82-71.59-13.594-21.402-33-38.492-55.949-49.277z"/>
  <path d="m140 507.5h233.33c17.016-0.011719 33.328-6.7773 45.359-18.809s18.797-28.344 18.809-45.359v-23.332c-0.054688-32.727-10.297-64.625-29.301-91.273-19-26.645-45.824-46.715-76.75-57.43 27.18-20.949 44.324-52.336 47.266-86.523s-8.5898-68.043-31.793-93.324c-23.199-25.285-55.941-39.676-90.254-39.676-34.316 0-67.059 14.391-90.258 39.676-23.199 25.281-34.734 59.137-31.793 93.324 2.9414 34.188 20.086 65.574 47.266 86.523-30.922 10.715-57.746 30.785-76.75 57.43-19.004 26.648-29.242 58.547-29.301 91.273v23.332c0.011719 17.016 6.7773 33.328 18.809 45.359s28.344 18.797 45.359 18.809z"/>
 </g>
</svg>
