<svg width="195" height="194" viewBox="0 0 195 194" fill="none" xmlns="http://www.w3.org/2000/svg">
<path d="M23.2501 0.275H67.8001C80.1027 0.275 90.0751 12.5776 90.0751 22.55V67.1C90.0751 79.4026 80.1027 89.375 67.8001 89.375H23.2501C10.9475 89.375 0.975098 77.0724 0.975098 67.1V22.55C0.975098 10.2474 10.9475 0.275 23.2501 0.275Z" fill="black"/>
<path d="M23.2501 104.225H67.8001C80.1027 104.225 90.0751 116.528 90.0751 126.5V171.05C90.0751 183.353 80.1027 193.325 67.8001 193.325H23.2501C10.9475 193.325 0.975098 181.022 0.975098 171.05V126.5C0.975098 114.197 10.9475 104.225 23.2501 104.225Z" fill="black"/>
<path d="M127.2 0.275H171.75C184.053 0.275 194.025 12.5776 194.025 22.55V67.1C194.025 79.4026 184.053 89.375 171.75 89.375H127.2C114.897 89.375 104.925 77.0724 104.925 67.1V22.55C104.925 10.2474 114.897 0.275 127.2 0.275Z" fill="black"/>
<path d="M127.2 104H171.75C184.053 104 194.025 116.303 194.025 126.275V170.825C194.025 183.128 184.053 193.1 171.75 193.1H127.2C114.897 193.1 104.925 180.797 104.925 170.825V126.275C104.925 113.972 114.897 104 127.2 104Z" fill="black"/>
</svg>
