<svg width="150" height="150" viewBox="0 0 150 150" fill="none" xmlns="http://www.w3.org/2000/svg">
<path d="M17.8846 0.21154H52.1539C61.6174 0.21154 69.2885 9.67508 69.2885 17.3462V51.6154C69.2885 61.0789 61.6174 68.75 52.1539 68.75H17.8846C8.42108 68.75 0.75 59.2865 0.75 51.6154V17.3462C0.75 7.88262 8.42108 0.21154 17.8846 0.21154Z" fill="black"/>
<path d="M17.8846 80.1731H52.1539C61.6174 80.1731 69.2885 89.6369 69.2885 97.3077V131.577C69.2885 141.041 61.6174 148.712 52.1539 148.712H17.8846C8.42108 148.712 0.75 139.248 0.75 131.577V97.3077C0.75 87.8439 8.42108 80.1731 17.8846 80.1731Z" fill="black"/>
<path d="M97.846 0.21154H132.115C141.579 0.21154 149.25 9.67508 149.25 17.3462V51.6154C149.25 61.0789 141.579 68.75 132.115 68.75H97.846C88.3822 68.75 80.7114 59.2865 80.7114 51.6154V17.3462C80.7114 7.88262 88.3822 0.21154 97.846 0.21154Z" fill="black"/>
<path d="M97.846 80H132.115C141.579 80 149.25 89.4638 149.25 97.1346V131.404C149.25 140.868 141.579 148.538 132.115 148.538H97.846C88.3822 148.538 80.7114 139.075 80.7114 131.404V97.1346C80.7114 87.6708 88.3822 80 97.846 80Z" fill="black"/>
</svg>
