<svg width="151" height="150" viewBox="0 0 151 150" fill="none" xmlns="http://www.w3.org/2000/svg">
<path d="M52.2319 0.0500031H17.7106C13.1321 0.0500031 8.74262 1.86852 5.50485 5.10491C2.26847 8.34257 0.449951 12.7321 0.449951 17.3106V51.8319C0.449951 56.4104 2.26847 60.7999 5.50485 64.0377C8.74252 67.2741 13.1321 69.0926 17.7106 69.0926H52.2319C56.8104 69.0926 61.1998 67.2741 64.4376 64.0377C67.674 60.8 69.4925 56.4104 69.4925 51.8319V17.3106C69.4925 12.7321 67.674 8.34267 64.4376 5.10491C61.1999 1.86852 56.8104 0.0500031 52.2319 0.0500031ZM57.9854 51.8319C57.9854 53.3576 57.3792 54.8217 56.3005 55.9005C55.2217 56.9793 53.7576 57.5855 52.2319 57.5855H17.7106C16.1849 57.5855 14.7208 56.9793 13.642 55.9005C12.5632 54.8217 11.957 53.3576 11.957 51.8319V17.3106C11.957 15.7849 12.5632 14.3208 13.642 13.2421C14.7208 12.1633 16.1849 11.5571 17.7106 11.5571H52.2319C53.7576 11.5571 55.2217 12.1633 56.3005 13.2421C57.3792 14.3208 57.9854 15.7849 57.9854 17.3106V51.8319Z" fill="black"/>
<path d="M132.781 0.0500031H98.2602C93.6816 0.0500031 89.2922 1.86852 86.0544 5.10491C82.818 8.34257 80.9995 12.7321 80.9995 17.3106V51.8319C80.9995 56.4104 82.818 60.7999 86.0544 64.0377C89.2921 67.2741 93.6816 69.0926 98.2602 69.0926H132.781C137.36 69.0926 141.749 67.2741 144.987 64.0377C148.224 60.8 150.042 56.4104 150.042 51.8319V17.3106C150.042 12.7321 148.224 8.34267 144.987 5.10491C141.75 1.86852 137.36 0.0500031 132.781 0.0500031ZM138.535 51.8319C138.535 53.3576 137.929 54.8217 136.85 55.9005C135.771 56.9793 134.307 57.5855 132.781 57.5855H98.2602C96.7344 57.5855 95.2703 56.9793 94.1916 55.9005C93.1128 54.8217 92.5066 53.3576 92.5066 51.8319V17.3106C92.5066 15.7849 93.1128 14.3208 94.1916 13.2421C95.2703 12.1633 96.7344 11.5571 98.2602 11.5571H132.781C134.307 11.5571 135.771 12.1633 136.85 13.2421C137.929 14.3208 138.535 15.7849 138.535 17.3106V51.8319Z" fill="black"/>
<path d="M52.2319 80.5997H17.7106C13.1321 80.5997 8.74262 82.4182 5.50485 85.6546C2.26847 88.8922 0.449951 93.2818 0.449951 97.8603V132.382C0.449951 136.96 2.26847 141.35 5.50485 144.587C8.74252 147.824 13.1321 149.642 17.7106 149.642H52.2319C56.8104 149.642 61.1998 147.824 64.4376 144.587C67.674 141.35 69.4925 136.96 69.4925 132.382V97.8603C69.4925 93.2818 67.674 88.8923 64.4376 85.6546C61.1999 82.4182 56.8104 80.5997 52.2319 80.5997ZM57.9854 132.382C57.9854 133.907 57.3792 135.371 56.3005 136.45C55.2217 137.529 53.7576 138.135 52.2319 138.135H17.7106C16.1849 138.135 14.7208 137.529 13.642 136.45C12.5632 135.371 11.957 133.907 11.957 132.382V97.8603C11.957 96.3346 12.5632 94.8705 13.642 93.7917C14.7208 92.713 16.1849 92.1068 17.7106 92.1068H52.2319C53.7576 92.1068 55.2217 92.713 56.3005 93.7917C57.3792 94.8705 57.9854 96.3346 57.9854 97.8603V132.382Z" fill="black"/>
<path d="M133.008 79.7389H98.1245C93.4979 79.7389 89.0623 81.5765 85.7906 84.8469C82.5202 88.1185 80.6826 92.5542 80.6826 97.1807V132.064C80.6826 136.691 82.5202 141.127 85.7906 144.398C89.0622 147.669 93.4979 149.506 98.1245 149.506H133.008C137.635 149.506 142.07 147.669 145.342 144.398C148.612 141.127 150.45 136.691 150.45 132.064V97.1807C150.45 92.5542 148.612 88.1186 145.342 84.8469C142.07 81.5765 137.635 79.7389 133.008 79.7389ZM138.822 132.064C138.822 133.606 138.21 135.086 137.119 136.176C136.029 137.266 134.55 137.878 133.008 137.878H98.1245C96.5827 137.878 95.1033 137.266 94.0132 136.176C92.9231 135.086 92.3105 133.606 92.3105 132.064V97.1807C92.3105 95.639 92.9231 94.1596 94.0132 93.0695C95.1033 91.9794 96.5827 91.3668 98.1245 91.3668H133.008C134.55 91.3668 136.029 91.9794 137.119 93.0695C138.21 94.1596 138.822 95.639 138.822 97.1807V132.064Z" fill="black"/>
</svg>
