<svg width="151" height="151" viewBox="0 0 151 151" fill="none" xmlns="http://www.w3.org/2000/svg">
<path d="M134.906 44.8113V17.6205C134.91 12.9638 133.061 8.49688 129.769 5.20465C126.476 1.91242 122.009 0.0637307 117.353 0.0670133H34.3731C29.7172 0.0638075 25.2506 1.91244 21.9573 5.20465C18.665 8.49688 16.8164 12.9635 16.8207 17.6205V44.8113C12.867 45.1725 9.15272 46.8662 6.28777 49.6147C3.42283 52.3631 1.57743 56.0035 1.05494 59.9392C0.924577 60.7203 0.860461 61.51 0.862601 62.3007V119.747C0.870081 127.786 4.0662 135.495 9.75095 141.179C15.4346 146.863 23.1434 150.06 31.1823 150.067H120.542C128.581 150.06 136.289 146.863 141.973 141.179C147.658 135.495 150.854 127.786 150.862 119.747V62.3007C150.864 61.51 150.8 60.7203 150.669 59.9392C150.147 56.0035 148.301 52.3631 145.436 49.6147C142.571 46.8663 138.857 45.1727 134.903 44.8113H134.906ZM141.288 62.3008V65.1731L134.906 68.7219V54.514C136.705 54.8752 138.325 55.8476 139.488 57.2676C140.651 58.6867 141.288 60.4658 141.289 62.3005L141.288 62.3008ZM117.353 9.64144C119.468 9.64464 121.495 10.4867 122.991 11.9827C124.486 13.4776 125.328 15.5058 125.331 17.6204V74.0466L85.9502 95.9405C79.668 99.3879 72.0618 99.3879 65.7799 95.9405L26.3989 74.0466V17.6204C26.4021 15.5057 27.2441 13.4774 28.7391 11.9827C30.2351 10.4867 32.2622 9.64464 34.3768 9.64144H117.353ZM10.4371 62.3008C10.4381 60.466 11.075 58.6868 12.2387 57.2679C13.4013 55.8478 15.0213 54.8754 16.8207 54.5143V68.723L10.4381 65.1742L10.4371 62.3008Z" fill="black"/>
<path d="M50.3335 41.556H75.865C77.5758 41.556 79.1561 40.6435 80.011 39.1624C80.8658 37.6813 80.8658 35.8562 80.011 34.3752C79.1561 32.8942 77.5757 31.9816 75.865 31.9816H50.3335C48.6227 31.9816 47.0424 32.8941 46.1875 34.3752C45.3327 35.8562 45.3327 37.6814 46.1875 39.1624C47.0424 40.6434 48.6228 41.556 50.3335 41.556Z" fill="black"/>
<path d="M50.3333 67.0869H101.398H101.397C103.108 67.0869 104.688 66.1743 105.543 64.6933C106.398 63.2122 106.398 61.3871 105.543 59.9061C104.688 58.425 103.107 57.5125 101.397 57.5125H50.335C48.6242 57.5125 47.0439 58.425 46.189 59.9061C45.3341 61.3871 45.3341 63.2123 46.189 64.6933C47.0439 66.1743 48.6243 67.0869 50.335 67.0869H50.3333Z" fill="black"/>
</svg>
