<?xml version="1.0" encoding="UTF-8"?>
<svg width="700pt" height="700pt" version="1.1" viewBox="0 0 700 700" xmlns="http://www.w3.org/2000/svg">
 <g>
  <path d="m565.83 169.4v-99.398c0.015625-17.023-6.7422-33.352-18.777-45.387-12.039-12.035-28.367-18.793-45.387-18.781h-303.34c-17.02-0.011719-33.348 6.7461-45.387 18.781-12.035 12.035-18.793 28.363-18.777 45.387v99.398c-14.453 1.3203-28.031 7.5117-38.504 17.559-10.473 10.047-17.219 23.355-19.129 37.742-0.47656 2.8555-0.71094 5.7422-0.70312 8.6328v210c0.027344 29.387 11.711 57.566 32.492 78.344 20.777 20.781 48.957 32.465 78.344 32.492h326.66c29.387-0.027344 57.566-11.711 78.344-32.492 20.781-20.777 32.465-48.957 32.492-78.344v-210c0.007812-2.8906-0.22656-5.7773-0.70312-8.6328-1.9102-14.387-8.6562-27.695-19.129-37.742-10.473-10.047-24.051-16.238-38.504-17.559zm23.332 63.934v10.5l-23.332 12.973v-51.938c6.5781 1.3203 12.5 4.875 16.75 10.066 4.2539 5.1875 6.582 11.691 6.5859 18.398zm-87.496-192.5c7.7305 0.011719 15.141 3.0898 20.609 8.5586 5.4648 5.4648 8.543 12.879 8.5547 20.609v206.27l-143.96 80.035c-22.965 12.602-50.77 12.602-73.734 0l-143.96-80.035v-206.27c0.011719-7.7305 3.0898-15.145 8.5547-20.609 5.4688-5.4688 12.879-8.5469 20.609-8.5586zm-390.84 192.5c0.003907-6.707 2.332-13.211 6.5859-18.398 4.25-5.1914 10.172-8.7461 16.75-10.066v51.941l-23.332-12.973z"/>
  <path d="m256.67 157.5h93.332c6.2539 0 12.031-3.3359 15.156-8.75s3.125-12.086 0-17.5-8.9023-8.75-15.156-8.75h-93.332c-6.2539 0-12.031 3.3359-15.156 8.75s-3.125 12.086 0 17.5 8.9023 8.75 15.156 8.75z"/>
  <path d="m256.67 250.83h186.67-0.003907c6.2539 0 12.031-3.3359 15.156-8.75 3.125-5.4141 3.125-12.086 0-17.5-3.125-5.4141-8.9023-8.75-15.156-8.75h-186.66c-6.2539 0-12.031 3.3359-15.156 8.75-3.125 5.4141-3.125 12.086 0 17.5 3.125 5.4141 8.9023 8.75 15.156 8.75z"/>
 </g>
</svg>
