<svg width="150" height="150" viewBox="0 0 150 150" fill="none" xmlns="http://www.w3.org/2000/svg">
<path d="M56.25 120.072V150H93.75V120.072C93.75 113.656 90.1757 107.728 84.375 104.521C78.5743 101.313 71.4257 101.313 65.625 104.521C59.8243 107.728 56.25 113.656 56.25 120.072Z" fill="black"/>
<path d="M31.25 150H43.75V120.072C43.75 109.379 49.7057 99.499 59.375 94.1534C69.0443 88.8077 80.9557 88.8077 90.625 94.1534C100.294 99.499 106.25 109.379 106.25 120.072V150H118.75C127.038 150 134.986 146.847 140.847 141.234C146.707 135.621 150 128.009 150 120.072V60.4549C149.99 50.8711 145.208 41.8659 137.125 36.2131L93.3746 5.74655C88.0411 2.0122 81.6057 0 75 0C68.3943 0 61.9586 2.01213 56.6254 5.74655L12.8754 36.2131C4.79214 41.8659 0.01 50.8711 0 60.4549V120.072C0 128.009 3.29243 135.621 9.15321 141.234C15.014 146.847 22.9618 150 31.25 150V150Z" fill="black"/>
</svg>
