<svg width="306" height="144" viewBox="0 0 306 144" fill="none" xmlns="http://www.w3.org/2000/svg">
<path d="M288.465 55L17.1352 55C11.0755 55 5.47696 58.2319 2.44714 63.4807C-0.580361 68.7272 -0.580361 75.1913 2.44714 80.4375C5.4769 85.6862 11.0755 88.9182 17.1352 88.9182L288.465 88.9182C294.524 88.9182 300.123 85.6863 303.153 80.4375C306.18 75.191 306.18 68.7269 303.153 63.4807C300.123 58.232 294.524 55 288.465 55V55Z" fill="black"/>
<path d="M288.465 -4.33438e-06L17.1352 -4.33438e-06C11.0755 -4.33438e-06 5.47696 3.23192 2.44714 8.48071C-0.580361 13.7272 -0.580361 20.1913 2.44714 25.4375C5.4769 30.6862 11.0755 33.9182 17.1352 33.9182L288.465 33.9182C294.524 33.9182 300.123 30.6863 303.153 25.4375C306.18 20.191 306.18 13.7269 303.153 8.48071C300.123 3.23198 294.524 -4.33438e-06 288.465 -4.33438e-06V-4.33438e-06Z" fill="black"/>
<path d="M288.465 109.54L17.1352 109.54C11.0755 109.54 5.47696 112.772 2.44714 118.02C-0.580361 123.267 -0.580361 129.731 2.44714 134.977C5.4769 140.226 11.0755 143.458 17.1352 143.458L288.465 143.458C294.524 143.458 300.123 140.226 303.153 134.977C306.18 129.731 306.18 123.267 303.153 118.02C300.123 112.772 294.524 109.54 288.465 109.54V109.54Z" fill="black"/>
</svg>
