<svg width="150" height="85" viewBox="0 0 150 85" fill="none" xmlns="http://www.w3.org/2000/svg">
<g clip-path="url(#clip0_403_36)">
<path d="M141.667 33.8346H8.3336C5.35582 33.8346 2.60467 35.4545 1.1158 38.0852C-0.371933 40.7148 -0.371933 43.9546 1.1158 46.584C2.60464 49.2147 5.35582 50.8346 8.3336 50.8346H141.667C144.644 50.8346 147.395 49.2147 148.884 46.584C150.372 43.9544 150.372 40.7146 148.884 38.0852C147.395 35.4545 144.644 33.8346 141.667 33.8346Z" fill="black"/>
<path d="M141.667 0H8.3336C5.35582 0 2.60467 1.61986 1.1158 4.25058C-0.371933 6.88015 -0.371933 10.12 1.1158 12.7494C2.60464 15.3801 5.35582 17 8.3336 17H141.667C144.644 17 147.395 15.3801 148.884 12.7494C150.372 10.1198 150.372 6.88 148.884 4.25058C147.395 1.61989 144.644 0 141.667 0Z" fill="black"/>
<path d="M141.667 67.6692H8.3336C5.35582 67.6692 2.60467 69.2891 1.1158 71.9194C-0.371933 74.5493 -0.371933 77.7891 1.1158 80.4184C2.60464 83.0493 5.35582 84.6692 8.3336 84.6692H141.667C144.644 84.6692 147.395 83.0493 148.884 80.4184C150.372 77.7891 150.372 74.5493 148.884 71.9194C147.395 69.2891 144.644 67.6692 141.667 67.6692Z" fill="black"/>
</g>
<defs>
<clipPath id="clip0_403_36">
<rect width="150" height="85" fill="white"/>
</clipPath>
</defs>
</svg>
