<svg width="116" height="151" viewBox="0 0 116 151" fill="none" xmlns="http://www.w3.org/2000/svg">
<path d="M57.942 29.621C50.2913 29.621 42.9549 32.6602 37.545 38.0701C32.1352 43.48 29.0959 50.8164 29.0959 58.4671C29.0959 66.1177 32.1351 73.4541 37.545 78.864C42.955 84.2739 50.2913 87.3131 57.942 87.3131C65.5926 87.3131 72.9291 84.2739 78.3389 78.864C83.7488 73.4541 86.788 66.1177 86.788 58.4671C86.779 50.8191 83.7373 43.4876 78.3287 38.0803C72.9215 32.6718 65.59 29.6299 57.942 29.621V29.621ZM57.942 75.7747C53.351 75.7747 48.9496 73.9512 45.703 70.706C42.4578 67.4595 40.6344 63.058 40.6344 58.4671C40.6344 53.8761 42.4578 49.4747 45.703 46.2281C48.9495 42.9829 53.351 41.1594 57.942 41.1594C62.5329 41.1594 66.9344 42.9829 70.1809 46.2281C73.4261 49.4746 75.2496 53.8761 75.2496 58.4671C75.2496 63.058 73.4261 67.4594 70.1809 70.706C66.9345 73.9512 62.5329 75.7747 57.942 75.7747Z" fill="black"/>
<path d="M57.942 0.775002C42.646 0.791742 27.982 6.87519 17.1652 17.691C6.34847 28.5067 0.265751 43.1707 0.249268 58.4677C0.249268 86.9739 45.826 150.775 57.9413 150.775C70.0566 150.775 115.633 86.9742 115.633 58.4677C115.617 43.1717 109.533 28.5077 98.7174 17.691C87.9016 6.8742 73.2376 0.791485 57.9407 0.775002H57.942ZM57.942 138.26C47.7183 129.116 11.7883 81.7911 11.7883 58.4671C11.7883 41.9783 20.5852 26.7417 34.8652 18.498C49.1451 10.2523 66.7389 10.2523 81.0188 18.498C95.2987 26.7424 104.096 41.9793 104.096 58.4671C104.096 81.7924 68.165 129.115 57.942 138.26Z" fill="black"/>
</svg>
