<svg width="116" height="151" viewBox="0 0 116 151" fill="none" xmlns="http://www.w3.org/2000/svg">
<path d="M75.2499 57.8673C75.2499 67.4264 67.5013 75.175 57.9422 75.175C48.3831 75.175 40.6345 67.4264 40.6345 57.8673C40.6345 48.3082 48.3831 40.5596 57.9422 40.5596C67.5013 40.5596 75.2499 48.3082 75.2499 57.8673Z" fill="black"/>
<path d="M57.9423 0.174999C42.6486 0.199467 27.9888 6.28544 17.1753 17.1003C6.36044 27.9138 0.274396 42.5739 0.25 57.8673C0.25 86.367 45.8269 150.175 57.9423 150.175C70.0577 150.175 115.635 86.3673 115.635 57.8673C115.61 42.5736 109.524 27.9138 98.7093 17.1003C87.8958 6.28544 73.2357 0.199395 57.9423 0.174999ZM57.9423 86.7135C50.2916 86.7135 42.9552 83.6743 37.5453 78.2643C32.1354 72.8544 29.0962 65.518 29.0962 57.8673C29.0962 50.2166 32.1353 42.8802 37.5453 37.4703C42.9552 32.0604 50.2916 29.0212 57.9423 29.0212C65.593 29.0212 72.9294 32.0603 78.3393 37.4703C83.7492 42.8802 86.7885 50.2166 86.7885 57.8673C86.7885 65.518 83.7493 72.8545 78.3393 78.2643C72.9294 83.6742 65.593 86.7135 57.9423 86.7135Z" fill="black"/>
</svg>
