<?xml version="1.0" encoding="UTF-8"?>
<svg width="700pt" height="700pt" version="1.1" viewBox="0 0 700 700" xmlns="http://www.w3.org/2000/svg">
 <g>
  <path d="m402.5 227.5c0 28.996-23.504 52.5-52.5 52.5s-52.5-23.504-52.5-52.5 23.504-52.5 52.5-52.5 52.5 23.504 52.5 52.5"/>
  <path d="m350 52.5c-46.391 0.074219-90.859 18.535-123.66 51.34-32.805 32.801-51.266 77.27-51.34 123.66 0 86.449 138.25 280 175 280s175-193.55 175-280c-0.074219-46.391-18.535-90.859-51.34-123.66-32.801-32.805-77.27-51.266-123.66-51.34zm0 262.5c-23.207 0-45.461-9.2188-61.871-25.629s-25.629-38.664-25.629-61.871 9.2188-45.461 25.629-61.871 38.664-25.629 61.871-25.629 45.461 9.2188 61.871 25.629 25.629 38.664 25.629 61.871-9.2188 45.461-25.629 61.871-38.664 25.629-61.871 25.629z"/>
 </g>
</svg>
