<?xml version="1.0" encoding="UTF-8"?>
<svg width="700pt" height="700pt" version="1.1" viewBox="0 0 700 700" xmlns="http://www.w3.org/2000/svg">
 <g>
  <path d="m350 140c-23.207 0-45.461 9.2188-61.871 25.629s-25.629 38.664-25.629 61.871 9.2188 45.461 25.629 61.871 38.664 25.629 61.871 25.629 45.461-9.2188 61.871-25.629 25.629-38.664 25.629-61.871c-0.027344-23.199-9.2539-45.438-25.66-61.84-16.402-16.406-38.641-25.633-61.84-25.66zm0 140c-13.926 0-27.277-5.5312-37.125-15.375-9.8438-9.8477-15.375-23.199-15.375-37.125s5.5312-27.277 15.375-37.125c9.8477-9.8438 23.199-15.375 37.125-15.375s27.277 5.5312 37.125 15.375c9.8438 9.8477 15.375 23.199 15.375 37.125s-5.5312 27.277-15.375 37.125c-9.8477 9.8438-23.199 15.375-37.125 15.375z"/>
  <path d="m350 52.5c-46.398 0.050781-90.879 18.504-123.69 51.312s-51.262 77.289-51.312 123.69c0 86.469 138.25 280 175 280s175-193.53 175-280c-0.050781-46.398-18.504-90.879-51.312-123.69s-77.289-51.262-123.69-51.312zm0 417.04c-31.012-27.738-140-171.29-140-242.04 0-50.016 26.684-96.234 70-121.24 43.316-25.012 96.684-25.012 140 0 43.316 25.008 70 71.227 70 121.24 0 70.754-108.99 214.3-140 242.04z"/>
 </g>
</svg>
