<svg width="124" height="151" viewBox="0 0 124 151" fill="none" xmlns="http://www.w3.org/2000/svg">
<path d="M61.963 0.584C51.3274 0.596848 41.1308 4.82716 33.6103 12.348C26.0909 19.8685 21.8591 30.064 21.8463 40.6995V56.3972H20.1025C15.0125 56.3937 10.1301 58.4143 6.53161 62.0128C2.9331 65.6113 0.912432 70.4935 0.91602 75.5837V131.399C0.912516 136.488 2.93313 141.37 6.53161 144.97C10.1301 148.568 15.0122 150.589 20.1025 150.584H103.824C108.913 150.589 113.796 148.568 117.394 144.97C120.993 141.37 123.014 136.488 123.01 131.399V75.5837C123.014 70.4938 120.993 65.6113 117.394 62.0128C113.796 58.4143 108.914 56.3936 103.824 56.3972H102.08V40.6995C102.068 30.064 97.8375 19.8662 90.3169 12.3456C82.7964 4.82507 72.5986 0.594465 61.963 0.584V0.584ZM32.3114 40.6983C32.3114 30.1058 37.9632 20.317 47.1378 15.0202C56.3112 9.72335 67.6148 9.72335 76.7882 15.0202C85.9628 20.317 91.6146 30.1058 91.6146 40.6983V56.396H32.3102L32.3114 40.6983ZM67.1962 105.513V110.468C67.1962 112.337 66.1987 114.064 64.5799 114.998C62.9611 115.934 60.9661 115.934 59.3473 114.998C57.7285 114.064 56.731 112.337 56.731 110.468V105.515C55.1379 104.614 53.8134 103.306 52.8942 101.724C51.9739 100.142 51.4926 98.3442 51.4985 96.514C51.4985 92.7752 53.4934 89.3202 56.731 87.4506C59.9687 85.5818 63.9586 85.5818 67.1962 87.4506C70.4338 89.3205 72.4287 92.7755 72.4287 96.514C72.4346 98.3442 71.9534 100.142 71.033 101.724C70.1138 103.306 68.7893 104.614 67.1962 105.515V105.513Z" fill="black"/>
</svg>
