<?xml version="1.0" encoding="UTF-8"?>
<svg width="700pt" height="700pt" version="1.1" viewBox="0 0 700 700" xmlns="http://www.w3.org/2000/svg">
 <path d="m350 29.168c-35.57 0.042969-69.672 14.191-94.824 39.344-25.148 25.152-39.301 59.25-39.344 94.82v52.5h-5.832c-17.023-0.011719-33.352 6.7461-45.387 18.781-12.035 12.035-18.793 28.363-18.781 45.387v186.67c-0.011719 17.02 6.7461 33.348 18.781 45.387 12.035 12.035 28.363 18.793 45.387 18.777h280c17.023 0.015625 33.352-6.7422 45.387-18.777 12.035-12.039 18.793-28.367 18.781-45.387v-186.67c0.011719-17.023-6.7461-33.352-18.781-45.387-12.035-12.035-28.363-18.793-45.387-18.781h-5.832v-52.5c-0.039063-35.57-14.188-69.676-39.34-94.828s-59.258-39.301-94.828-39.336zm-99.168 134.16c0-35.426 18.902-68.164 49.586-85.879 30.68-17.715 68.484-17.715 99.164 0 30.684 17.715 49.586 50.453 49.586 85.879v52.5h-198.34zm116.67 216.77v16.57c0 6.25-3.3359 12.027-8.75 15.152-5.4141 3.1289-12.086 3.1289-17.5 0-5.4141-3.125-8.75-8.9023-8.75-15.152v-16.566c-5.3281-3.0117-9.7578-7.3867-12.832-12.676-3.0781-5.293-4.6875-11.305-4.668-17.426 0-12.504 6.6719-24.059 17.5-30.312 10.828-6.25 24.172-6.25 35 0 10.828 6.2539 17.5 17.809 17.5 30.312 0.019531 6.1211-1.5898 12.133-4.668 17.426-3.0742 5.2891-7.5039 9.6641-12.832 12.676z"/>
</svg>
