<svg width="140" height="170" viewBox="0 0 140 170" fill="none" xmlns="http://www.w3.org/2000/svg">
<path d="M107.161 38.8889C125.297 38.8889 140 53.5917 140 71.7285H107.161V38.8889Z" fill="#FEF000"/>
<path d="M74.8163 39.0394H107.345V71.5682H74.8163V39.0394Z" fill="#2196F3"/>
<path d="M42.2875 39.0394H74.8163V71.5682H42.2875V39.0394Z" fill="#009B4C"/>
<path d="M42.2875 71.5682H74.8163V104.097H42.2875V71.5682Z" fill="#16A75C"/>
<path d="M42.2875 104.097H74.8163V136.626H42.2875V104.097Z" fill="#009B4C"/>
<path d="M9.75873 39.0394H42.2875V71.5682H9.75873V39.0394Z" fill="#16A75C"/>
<path d="M74.8163 136.626H107.345V169.155H74.8163V136.626Z" fill="#16A75C"/>
<path d="M107.345 104.097H139.874V136.626H107.345V104.097Z" fill="#16A75C"/>
<path d="M107.345 71.5682H139.874V104.097H107.345V71.5682Z" fill="#009B4C"/>
<path d="M107.345 136.626H139.874C139.874 154.591 125.31 169.155 107.345 169.155V136.626Z" fill="#009B4C"/>
<rect width="3.45679" height="6.48148" transform="matrix(-1 0 0 1 48.8271 9.93829)" fill="#F3F500"/>
<path d="M6.48151 55.3087L2.14577e-05 29.3827H6.48151V55.3087Z" fill="#F3F500"/>
<path d="M25.9259 19.4445L6.48145 25.9259H25.9259V19.4445Z" fill="#F3F500"/>
<path d="M45.3704 9.93829L25.926 16.4198H45.3704V9.93829Z" fill="#F3F500"/>
<path d="M48.8271 9.93829L68.2716 16.4198H48.8271V9.93829Z" fill="#F3F500"/>
<path d="M68.2717 19.4445L87.7161 25.9259H68.2717V19.4445Z" fill="#F3F500"/>
<path d="M87.7161 29.3827L107.161 35.8642H87.7161V29.3827Z" fill="#F3F500"/>
<rect width="81.2346" height="6.48148" transform="matrix(-1 0 0 1 87.7161 29.3827)" fill="#F3F500"/>
<rect width="42.3457" height="6.48148" transform="matrix(-1 0 0 1 68.2717 19.4445)" fill="#F3F500"/>
<rect width="3.45679" height="6.48148" transform="matrix(-1 0 0 1 48.8271 0)" fill="#F3F500"/>
</svg>
