<svg width="250" height="250" viewBox="0 0 250 250" fill="none" xmlns="http://www.w3.org/2000/svg">
<path fill-rule="evenodd" clip-rule="evenodd" d="M223.25 143.083C225.417 147.083 225.75 151.583 223.083 155.5C221.583 157.667 219.417 158.667 217.083 159.083C217.5 160.083 217.583 161.083 217.167 162.25C216.75 163.25 216 164 215.083 164.417C215.667 165.5 215.917 166.75 215.417 168.167C203.583 199 181.75 227.833 149.083 238C141.25 240.417 133.083 241.667 124.917 241.667C82.0834 241.667 48.0834 206.667 34.5834 168.333C34.4167 167.917 34.3334 167.583 34.3334 167.167C34.25 166.167 34.5834 165.167 35.0834 164.333C34.1667 163.917 33.4167 163.25 33 162.25C32.5834 161.167 32.6667 160.167 33.0834 159.167C30.3334 158.667 27.8334 157.25 26.3334 154.583C24.6667 151.583 24.75 148 25.8334 144.917C27.1667 141.5 29.6667 138.583 32.75 136.75L36.9167 134.333L37.0834 139.167C37.0834 140.667 37.3334 142.167 38.4167 143.25C40.4167 145.167 45.1667 145.833 47.9167 146.333C99.25 146.25 150.667 146.25 202 146.167C204.417 145.833 209.833 145.083 211.417 143.583C212.583 142.5 213 140.167 213.167 138.75L213.833 134.75L217.417 136.667C219.583 137.917 222 140.917 223.25 143.083Z" fill="black"/>
<path fill-rule="evenodd" clip-rule="evenodd" d="M37.2501 167.333C50.6667 205.5 84.0834 238.833 124.917 238.833C163.167 238.833 195.667 211.667 212.75 167.167C213.5 165.083 209.25 162.917 207.25 161.417C214.917 163.75 218.083 160.667 209.333 156C213.833 156.667 218.583 157.083 220.75 153.917C225.167 147.333 217.917 140.25 216 139.167C214.75 146.917 212.167 147.417 202.25 149C150.75 149.083 99.1667 149.083 47.6667 149.167C40.3334 147.917 34.3334 146.833 34.1667 139.167C24.7501 144.75 25.0834 160 40.5834 155.917C34.0834 159.583 33.0834 163.833 42.7501 161.417C41.1667 162.667 36.5001 165.25 37.2501 167.333Z" fill="#FBE600"/>
<path d="M46.8334 173.583L48.3334 172.917L50.3334 177.5L46.7501 179.083C46.1667 178.75 45.5834 178.25 44.9167 177.5C44.2501 176.833 43.7501 176 43.4167 175.167C42.9167 174.083 42.6667 173.083 42.6667 172.167C42.6667 171.167 42.9167 170.333 43.5001 169.583C44.0001 168.75 44.7501 168.167 45.6667 167.75C46.6667 167.333 47.5834 167.167 48.5001 167.333C49.4167 167.5 50.2501 167.833 50.9167 168.5C51.5834 169.083 52.1667 169.917 52.5834 170.917C53.1667 172.25 53.4167 173.333 53.2501 174.25C53.1667 175.25 52.7501 176 51.9167 176.583L50.6667 174.667C51.0834 174.333 51.3334 173.833 51.3334 173.333C51.4167 172.75 51.3334 172.25 51.0834 171.667C50.6667 170.75 50.0834 170.083 49.3334 169.75C48.5834 169.417 47.7501 169.417 46.7501 169.917C45.6667 170.333 45.0001 171 44.6667 171.917C44.4167 172.667 44.5001 173.417 44.9167 174.333C45.0834 174.75 45.3334 175.167 45.6667 175.583C46.0001 175.917 46.3334 176.25 46.7501 176.5L47.8334 176L46.8334 173.583ZM46.5834 181.5L55.2501 176.917L59.2501 184.5L57.7501 185.333L54.9167 179.75L53.0001 180.75L55.6667 185.917L54.1667 186.667L51.5001 181.583L49.0834 182.75L52.0834 188.5L50.6667 189.25L46.5834 181.5ZM51.6667 190.917L59.6668 185.25L61.6668 188.167L57.4167 193.75L64.0834 191.5L66.1668 194.417L58.0834 200.083L56.8334 198.333L63.1668 193.833L55.5001 196.417L54.2501 194.583L59.2501 188.25L52.9167 192.75L51.6667 190.917ZM66.4168 209.75L64.7501 207.833L65.7501 205.667L62.6668 202.167L60.3334 202.917L58.7501 201.083L69.0834 197.917L70.6668 199.75L66.4168 209.75ZM66.5001 204L68.1668 200.333L64.3334 201.583L66.5001 204ZM67.3334 210.583L74.0834 203.417L75.7501 205.083L73.0834 207.833L76.4168 211L79.0834 208.25L80.8334 209.833L74.0001 216.917L72.3334 215.333L75.3334 212.25L72.0001 209.083L69.0001 212.167L67.3334 210.583ZM79.5001 221.25L84.5001 212.75L88.7501 215.25C89.8334 215.917 90.5001 216.417 90.9168 216.917C91.2501 217.333 91.5001 217.75 91.5834 218.333C91.6668 218.917 91.5001 219.417 91.2501 219.917C90.8334 220.583 90.2501 221 89.5834 221.167C88.9168 221.25 88.0834 221.167 87.1668 220.75C87.5001 221.25 87.7501 221.667 87.8334 222.083C88.0001 222.5 88.0834 223.25 88.1668 224.167L88.4168 226.5L86.0001 225.083L85.6668 222.417C85.5001 221.417 85.4168 220.833 85.3334 220.5C85.2501 220.25 85.0834 220 84.9168 219.833C84.7501 219.667 84.4168 219.417 84.0001 219.167L83.5834 218.917L81.5001 222.417L79.5001 221.25ZM84.3334 217.583L85.8334 218.417C86.7501 219 87.3334 219.25 87.6668 219.333C87.9168 219.5 88.1668 219.5 88.4168 219.417C88.7501 219.333 88.9168 219.167 89.0834 218.833C89.2501 218.583 89.3334 218.333 89.2501 218.083C89.1668 217.833 89.0001 217.583 88.8334 217.333C88.6668 217.167 88.0834 216.833 87.2501 216.333L85.6668 215.417L84.3334 217.583ZM89.5001 227L94.0834 218.333L96.1668 219.417L91.5834 228.083L89.5001 227ZM93.5834 229.167L96.9168 220L100.5 221.25C101.75 221.75 102.583 222.167 103 222.333C103.583 222.75 104 223.25 104.25 223.833C104.5 224.5 104.5 225.167 104.25 225.917C104 226.583 103.583 227.083 103.083 227.333C102.5 227.667 101.917 227.833 101.333 227.833C100.75 227.833 99.7501 227.583 98.4168 227.083L97.0001 226.5L95.7501 230L93.5834 229.167ZM98.5834 222.333L97.5834 225L98.8334 225.417C99.5834 225.75 100.167 225.917 100.5 225.917C100.833 225.917 101.083 225.917 101.417 225.75C101.667 225.583 101.833 225.417 101.917 225.083C102.083 224.75 102.083 224.5 101.917 224.167C101.833 223.917 101.667 223.667 101.417 223.5C101.167 223.333 100.583 223.083 99.5834 222.75L98.5834 222.333ZM112.667 234.917L110.25 234.417L109.75 232L105.167 231L103.75 232.917L101.333 232.417L107.917 223.75L110.333 224.333L112.667 234.917ZM109.333 230.25L108.583 226.333L106.25 229.5L109.333 230.25ZM113.917 235.083L114.917 225.333L117.25 225.583L116.833 229.417L121.417 229.833L121.833 226L124.083 226.25L123.083 236L120.75 235.833L121.25 231.5L116.667 231.083L116.25 235.333L113.917 235.083ZM130 235.667L129.083 225.917L134 225.5C135.25 225.333 136.167 225.333 136.667 225.5C137.25 225.583 137.75 225.833 138.083 226.25C138.5 226.667 138.75 227.167 138.75 227.75C138.833 228.5 138.667 229.167 138.167 229.667C137.667 230.25 136.917 230.583 136 230.75C136.5 231 136.917 231.25 137.333 231.5C137.667 231.75 138.167 232.25 138.75 232.917L140.333 234.75L137.583 235L135.667 233C135 232.333 134.583 231.833 134.333 231.667C134.083 231.5 133.833 231.417 133.583 231.333C133.333 231.333 133 231.333 132.417 231.333L131.917 231.417L132.333 235.5L130 235.667ZM131.833 229.833L133.5 229.667C134.583 229.583 135.25 229.5 135.5 229.417C135.833 229.333 136 229.167 136.167 228.917C136.333 228.75 136.417 228.417 136.417 228.167C136.333 227.833 136.25 227.583 136.083 227.417C135.833 227.25 135.583 227.083 135.25 227.083C135.083 227.083 134.417 227.083 133.417 227.167L131.583 227.333L131.833 229.833ZM141.583 234.167L138.667 224.833L146.833 222.25L147.333 223.833L141.417 225.75L142 227.75L147.583 226.083L148.083 227.667L142.5 229.333L143.333 231.917L149.5 230L150 231.583L141.583 234.167ZM151.917 231L147.833 222.083L151.25 220.5C152.5 219.917 153.333 219.583 153.75 219.5C154.5 219.333 155.083 219.417 155.75 219.667C156.333 219.917 156.833 220.417 157.167 221.167C157.417 221.833 157.5 222.417 157.333 223C157.167 223.583 156.917 224.083 156.417 224.5C156 224.917 155.167 225.417 153.833 226.083L152.5 226.667L154 230.083L151.917 231ZM150.583 222.583L151.75 225.167L152.917 224.667C153.75 224.25 154.25 224 154.5 223.75C154.75 223.583 154.917 223.333 155 223C155.083 222.75 155.083 222.5 154.917 222.167C154.833 221.833 154.583 221.667 154.333 221.583C154.083 221.417 153.75 221.417 153.417 221.417C153.167 221.5 152.5 221.75 151.667 222.167L150.583 222.583ZM161.667 226.417L156.667 218L164 213.583L164.833 215L159.5 218.25L160.583 220.083L165.583 217.167L166.417 218.583L161.417 221.5L162.75 223.833L168.333 220.5L169.167 222L161.667 226.417ZM170.75 220.667L164.75 212.917L166.583 211.5L168.917 214.583L172.583 211.75L170.25 208.667L172.083 207.25L178.083 215.083L176.25 216.5L173.583 213.083L170 215.833L172.583 219.25L170.75 220.667ZM183.083 210.333L175.667 203.917L178.833 200.167C179.667 199.25 180.333 198.583 180.833 198.333C181.333 198 181.833 197.917 182.417 197.917C182.917 197.917 183.5 198.167 183.917 198.5C184.5 199 184.833 199.667 184.833 200.333C184.833 201.083 184.583 201.833 184 202.667C184.5 202.417 185 202.25 185.417 202.25C185.917 202.167 186.583 202.167 187.5 202.25L189.917 202.417L188.083 204.583L185.333 204.417C184.333 204.417 183.75 204.417 183.417 204.417C183.167 204.5 182.917 204.583 182.667 204.667C182.5 204.833 182.167 205.083 181.833 205.5L181.5 205.833L184.667 208.583L183.083 210.333ZM180.333 204.833L181.5 203.5C182.167 202.75 182.583 202.167 182.75 201.917C182.833 201.667 182.917 201.417 182.833 201.167C182.833 200.917 182.667 200.667 182.417 200.417C182.25 200.25 182 200.167 181.667 200.167C181.417 200.167 181.167 200.25 180.917 200.417C180.75 200.583 180.333 201.083 179.667 201.833L178.417 203.25L180.333 204.833ZM197.25 192.5L195.75 194.583L193.417 194.083L190.667 197.833L191.917 199.917L190.417 201.917L185.167 192.5L186.583 190.5L197.25 192.5ZM191.583 193.667L187.75 192.833L189.75 196.25L191.583 193.667ZM197.833 191.333L189.333 186.417L191.25 183.167C191.917 181.917 192.5 181.167 192.75 180.833C193.25 180.333 193.833 180 194.5 179.917C195.083 179.75 195.75 179.917 196.417 180.25C197.083 180.667 197.5 181.083 197.667 181.667C197.917 182.25 198 182.833 197.833 183.417C197.75 184.083 197.25 184.917 196.583 186.167L195.833 187.5L199 189.333L197.833 191.333ZM191.917 185.25L194.333 186.667L195 185.5C195.5 184.75 195.75 184.25 195.833 183.917C195.917 183.583 195.917 183.333 195.833 183C195.75 182.75 195.5 182.5 195.25 182.333C195 182.167 194.667 182.167 194.417 182.25C194.083 182.25 193.833 182.417 193.583 182.667C193.417 182.833 193 183.417 192.5 184.25L191.917 185.25ZM203.083 182.083L194.25 177.833L195.25 175.75L204.083 180L203.083 182.083ZM205.083 178L196.083 174L197.083 171.833L200.583 173.417L202.417 169.25L198.917 167.667L199.833 165.5L208.833 169.5L207.917 171.667L204 169.917L202.083 174.083L206 175.833L205.083 178Z" fill="black"/>
<path d="M125 223.667C169.873 223.667 206.25 175.463 206.25 116C206.25 56.5373 169.873 8.33333 125 8.33333C80.1269 8.33333 43.75 56.5373 43.75 116C43.75 175.463 80.1269 223.667 125 223.667Z" fill="black"/>
<path d="M125 220.5C168.124 220.5 203.083 173.714 203.083 116C203.083 58.2863 168.124 11.5 125 11.5C81.8759 11.5 46.9167 58.2863 46.9167 116C46.9167 173.714 81.8759 220.5 125 220.5Z" fill="#FBE600"/>
<path d="M125 217.333C166.375 217.333 199.917 171.965 199.917 116C199.917 60.0351 166.375 14.6667 125 14.6667C83.6246 14.6667 50.0833 60.0351 50.0833 116C50.0833 171.965 83.6246 217.333 125 217.333Z" fill="black"/>
<path d="M125 214.167C164.626 214.167 196.75 170.216 196.75 116C196.75 61.784 164.626 17.8333 125 17.8333C85.3736 17.8333 53.25 61.784 53.25 116C53.25 170.216 85.3736 214.167 125 214.167Z" fill="#006F23"/>
<path fill-rule="evenodd" clip-rule="evenodd" d="M193.667 149.583H56.3333L62.4166 136.25L92.2499 136.333L97.6666 144.917L112.25 125.75L137.333 125.833L152.25 144.833L157.5 136.333L187.333 136.417L193.667 149.583Z" fill="black"/>
<path fill-rule="evenodd" clip-rule="evenodd" d="M192.417 149.583C182.333 187.25 155.917 214.083 124.917 214.083C94 214.083 67.5833 187.25 57.5 149.583H192.417Z" fill="#FEFEFE"/>
<path fill-rule="evenodd" clip-rule="evenodd" d="M120.25 214.417C120.25 213.917 92.5834 210.667 93.9167 204.417C102.583 200 106 204.833 112.75 205.25C117.167 205.417 122 204 122.083 203.917C122.083 203.333 122.417 202.667 122.417 201.917C122.417 201.583 122.333 201.333 122.333 201C122.167 199.667 121.583 198.333 121.25 197.083C120.667 195.083 120.417 193.167 120.417 191.083C120.417 190.75 120.417 190.417 120.417 190.167C118.25 191.333 113.917 191.5 110 190.75C106.583 190 103.417 188.417 100.333 188.5C96.25 188.5 93.1667 191.333 88.5834 191.333C82.8334 191.333 81.3334 188.333 77.0834 188.917C72.3334 186.583 67.6667 179.917 68.5834 176.667C70.25 175.75 73.1667 174.917 76.5 174.917C80.3334 174.917 83.8334 177.75 88.5 177.75C93 177.75 96.75 174.75 100.25 174.75C106 174.833 108.667 177.5 112.833 177.667C116.667 177.75 119.167 177.25 121.25 176.25C120.833 174.083 120.5 171.917 120.5 169.667C120.583 168.167 120.833 166.833 121.25 165.333C121.5 164.167 121.833 163.167 122 162.167C121.667 162.25 118 163.75 112.417 163.417C107.667 163.167 105.5 161 100.75 160.75C96.75 160.5 92.9167 163.417 88.9167 163.417C84.5834 163.5 80 160.583 76.1667 160.583C71.5834 160.583 69.5834 163.333 62.3334 163.417C56.1667 162.083 57.4167 150.167 57.3334 149.583C57.3334 148.917 121 148.083 121.667 148.083C122.25 148.083 122.833 148.583 122.833 149.25C122.833 150.417 123 151.583 123.25 152.667C123.5 153.667 123.833 154.583 124.083 155.5C124.417 156.583 124.583 157.583 124.583 158.667C124.667 160.083 124.5 161.417 124.25 162.833C124.083 163.833 123.75 164.917 123.5 165.917C123.167 167.25 122.917 168.417 122.833 169.75C122.833 172 123.167 174.167 123.667 176.417C124.083 178.25 124.583 180.25 124.583 182.167C124.583 183.667 124.25 184.917 123.833 186.333C123.25 188 122.75 189.25 122.75 191.083C122.75 192.917 123 194.667 123.5 196.417C123.917 197.833 124.417 199.25 124.667 200.667C124.667 201.083 124.75 201.417 124.75 201.833C124.833 204.167 124.5 205.833 123.75 208C123.5 208.917 123.167 209.75 123 210.667C122.75 211.917 122.667 213.167 122.667 214.417C122.667 215.083 122.083 215.583 121.417 215.583C120.833 215.583 120.25 215.083 120.25 214.417Z" fill="#021EAA"/>
<path fill-rule="evenodd" clip-rule="evenodd" d="M152.75 206.667V205.333H138.917V213.25C143.667 211.75 148.333 209.5 152.75 206.667Z" fill="#021EAA"/>
<path fill-rule="evenodd" clip-rule="evenodd" d="M152.75 205.333H154.667C159 202.667 163 199.417 166.75 195.75V191.167H152.75V205.333Z" fill="#021EAA"/>
<path fill-rule="evenodd" clip-rule="evenodd" d="M138.917 205.333V191.167H127.833V191.083C127.833 189.25 128.333 188 128.917 186.333C129.333 184.917 129.667 183.667 129.667 182.167C129.667 180.583 129.25 178.917 128.917 177.333H138.917V163.333H129.25C129.25 163.167 129.333 163 129.333 162.833C129.583 161.417 129.75 160.083 129.75 158.667C129.667 157.583 129.5 156.583 129.167 155.5C128.917 154.583 128.583 153.667 128.333 152.667C128.083 151.583 127.917 150.417 127.917 149.25C127.917 148.583 127.333 148.083 126.75 148.083C126.083 148.083 125.833 148.5 125.667 149.083C124.75 152.25 128.167 156.5 127.083 162.167C126.917 163.167 126.583 164.167 126.333 165.333C125.917 166.833 125.667 168.167 125.583 169.667C125.583 171.917 125.917 174.083 126.333 176.25C128.25 184.417 125.5 188.417 125.5 190.167C125.5 190.417 125.5 190.75 125.5 191.083C125.5 193.167 125.75 195.083 126.333 197.083C128.917 205.417 125.5 206.75 125.417 214.833C125.417 215.5 125.917 215.583 126.583 215.583C127.167 215.583 127.75 215.083 127.75 214.417C127.75 213.167 127.833 211.917 128.083 210.667C128.25 209.75 128.583 208.917 128.833 208C129.167 207.083 129.417 206.167 129.583 205.333H138.917Z" fill="#021EAA"/>
<path fill-rule="evenodd" clip-rule="evenodd" d="M138.917 191.167H152.75V177.333H138.917V191.167Z" fill="#021EAA"/>
<path fill-rule="evenodd" clip-rule="evenodd" d="M152.75 163.333V177.333H166.75V163.333H152.75Z" fill="#021EAA"/>
<path fill-rule="evenodd" clip-rule="evenodd" d="M166.75 177.333V191.167H171.25C174.917 187.167 178.25 182.75 181.333 177.833V177.333H166.75Z" fill="#021EAA"/>
<path fill-rule="evenodd" clip-rule="evenodd" d="M180.667 163.333V177.667H181C183.667 173.167 186.083 168.333 188.167 163.333H180.667Z" fill="#021EAA"/>
<path fill-rule="evenodd" clip-rule="evenodd" d="M166.75 163.333H180.667V149.083H166.75V163.333Z" fill="#021EAA"/>
<path fill-rule="evenodd" clip-rule="evenodd" d="M152.75 163.333V149.083H138.917V163.333H152.75Z" fill="#021EAA"/>
<path fill-rule="evenodd" clip-rule="evenodd" d="M153.417 34.6667C153.75 34.9167 154 35.1667 154.167 35.5C154.584 36.3333 154.584 37.4167 154.334 38.3333C154.167 38.8333 154.084 39.1667 154.25 39.6667C154.417 40.3333 154.584 40.75 154.584 41.5C154.584 42.9167 154.167 44.4167 153.834 45.75C153.75 45.9167 153.667 46 153.5 46.0833C152.834 46.25 152.25 46.3333 151.584 46.0833C151 45.9167 150.417 45.5 149.834 45.25C148.917 44.8333 148 44.6667 147 44.6667C146.334 44.75 145.667 44.5833 145.167 44.1667C144.417 43.6667 143.834 42.8333 143.917 41.9167C144 40.9167 144.667 40.3333 145.5 39.9167C143.75 38 146.5 34.25 149.5 35.8333C149.667 35.3333 149.917 34.9167 150.417 34.5833C151.334 34 152.5 34 153.417 34.6667Z" fill="black"/>
<path fill-rule="evenodd" clip-rule="evenodd" d="M153.834 38.1667C153.167 40.5 155.084 39.8334 153.334 45.5834C151 46.3334 151 44.1667 146.917 44.1667C144.667 44.5 142.834 40.9167 146.5 40.1667C143.75 38.75 146.834 34.1667 149.834 36.6667C149.75 33.75 155 33.75 153.834 38.1667Z" fill="white"/>
<path fill-rule="evenodd" clip-rule="evenodd" d="M148.417 38.0833C149.917 38.25 151.25 38.5 152.667 39C152.667 37.8333 153.167 36.8333 153.834 35.9167C153.917 35.8333 154.084 35.6667 154.167 35.5C154.25 35.5 154.25 35.4167 154.334 35.3333C154.417 35.25 154.584 35.1667 154.75 35.1667C154.834 35.1667 155 35.25 155.084 35.3333C156 36.5 156.75 39.1667 157.084 40.5C157.417 42.3333 157.667 45 156.167 46.3333C155.167 47.4167 151.667 47 150.334 46.8333C149.167 46.5833 145.75 46 144.917 45.25C144.75 45.0833 144.667 44.8333 144.834 44.6667C144.917 44.5 145 44.3333 145.167 44.1667C145.25 44.0833 145.417 44 145.584 43.9167C146.5 43.25 148.084 42.75 149.167 42.5833C148.5 41.25 148.25 40.3333 147.917 38.6667C147.917 38.5833 147.917 38.4167 148 38.25C148.167 38.1667 148.25 38.0833 148.417 38.0833Z" fill="black"/>
<path fill-rule="evenodd" clip-rule="evenodd" d="M148.417 38.5833C150.084 38.75 151.5 39 153.167 39.6667C152.917 38.1667 153.584 36.9167 154.667 35.6667C155.75 37 158.167 43.75 155.834 46C154.5 47.4167 146.25 45.75 145.25 44.8333C145.75 43.9167 148.417 43.0833 150 42.9167C149 41.3333 148.834 40.5833 148.417 38.5833Z" fill="#006F23"/>
<path fill-rule="evenodd" clip-rule="evenodd" d="M155.334 41.3333C156.25 41 157.334 41.25 158 41.9167C158.667 41 159.667 40.4167 160.834 40.8333C161.584 41.0833 162.084 41.6667 162.334 42.3333C162.667 43.25 162.5 44.25 162.167 45.1667C162.167 45.25 162.167 45.25 162.167 45.25C161.917 45.6667 161.75 46 161.75 46.5C161.75 47.25 161.75 47.6667 161.584 48.4167C161.25 49.75 160.5 51.1667 159.834 52.3333C159.75 52.4167 159.584 52.5 159.417 52.5833C158.75 52.5833 158.084 52.5 157.584 52.0833C157 51.75 156.584 51.25 156.084 50.8333C155.334 50.1667 154.417 49.8333 153.5 49.5833C150.917 49.25 151 45.1667 153.417 44.75C153.167 44.3333 153.083 43.8333 153.25 43.3333C153.417 42.3333 154.334 41.5833 155.334 41.3333Z" fill="black"/>
<path fill-rule="evenodd" clip-rule="evenodd" d="M161.75 45C160.5 47.0833 162.5 46.9167 159.417 52.0833C156.917 52.1667 157.5 50.0833 153.583 49.0833C151.25 48.8333 151.583 44.5 154.5 45.25C151.75 43 156.417 40.0833 158 42.6667C159.667 39.8333 163.083 41.3333 161.75 45Z" fill="white"/>
<path fill-rule="evenodd" clip-rule="evenodd" d="M156.5 43.5833C157.917 44.0833 159.167 44.6667 160.334 45.5C160.667 44.5 161.25 43.75 162 43.0833C162.167 42.9167 162.25 42.8333 162.417 42.75C162.584 42.5833 162.75 42.5 162.917 42.4167C163.084 42.25 163.25 42.25 163.417 42.3333C163.584 42.4167 163.667 42.5 163.667 42.6667C164.167 45.4167 164.417 51.1667 161.667 52.75C160.417 53.5 157.5 52.5 156.334 52C155.25 51.5833 152.417 50.3333 151.834 49.3333C151.667 49.1667 151.75 48.9167 151.917 48.75C151.917 48.75 151.917 48.6667 152 48.6667C152.084 48.5833 152.25 48.5 152.417 48.4167C153.417 47.9167 155 47.9167 156.167 48.0833C155.75 46.6667 155.75 45.6667 155.834 44C155.917 43.8333 155.917 43.75 156.084 43.6667C156.25 43.5833 156.334 43.5 156.5 43.5833Z" fill="black"/>
<path fill-rule="evenodd" clip-rule="evenodd" d="M156.334 44.0833C158 44.6667 159.25 45.25 160.75 46.3333C160.834 44.75 161.75 43.75 163.167 42.75C163.5 44.3333 164.167 50.75 161.417 52.3333C159.75 53.3333 153 50.25 152.25 49.0833C153 48.3333 155.25 48.4167 156.834 48.6667C156.25 46.8333 156.25 46.0833 156.334 44.0833Z" fill="#006F23"/>
<path fill-rule="evenodd" clip-rule="evenodd" d="M165.334 48.9167C167.75 46.5833 171.334 49.4167 169.25 53.0833C169.25 53.1667 169.25 53.1667 169.25 53.1667C168.917 53.5833 168.667 53.9167 168.5 54.4167C168.25 55.0833 168.084 55.6667 167.667 56.25C167 57.5 166.084 58.6667 165.167 59.75C165 59.9167 164.834 59.9167 164.667 59.9167C164 59.8333 163.5 59.6667 163 59.1667C162.417 58.75 162 58.0833 161.584 57.5833C160.834 56.8333 160 56.25 159.084 55.8333C156.584 55 157.334 50.8333 159.917 51C159.75 50.3333 159.75 49.6667 160.167 49C160.667 48.1667 161.667 47.75 162.667 47.75C163.75 47.75 164.667 48.25 165.334 48.9167Z" fill="black"/>
<path fill-rule="evenodd" clip-rule="evenodd" d="M168.834 52.8333C167.25 54.6667 168.667 54.9167 164.75 59.4167C162.334 59.1667 163 57.0833 159.25 55.4167C157 54.75 157.917 50.4167 160.75 51.6667C158.917 48.8333 163.084 46.6667 165.334 49.6667C167.334 47.0833 170.75 49.5 168.834 52.8333Z" fill="white"/>
<path fill-rule="evenodd" clip-rule="evenodd" d="M163.417 50.5833C164.75 51.3333 165.834 52.1667 167 53.25C167.75 52 168.417 51.1667 169.917 50.5C170.084 50.4167 170.25 50.4167 170.334 50.5C170.5 50.5833 170.584 50.75 170.584 50.8333C170.667 51.5 170.667 52.3333 170.584 53C170.584 54.0833 170.417 55.25 170.167 56.4167C169.75 58.1667 168.917 60.5 167.084 61.25C165.75 61.8333 162.667 60 161.584 59.25C160.584 58.5833 157.667 56.5833 157.25 55.5833C157.084 55.3333 157.25 55.0833 157.417 54.9167C158.667 54.25 160.75 54.4167 162.25 54.9167C162.167 53.4167 162.334 52.5 162.667 50.9167C162.667 50.75 162.834 50.6667 162.917 50.5833C163.084 50.5 163.25 50.5 163.417 50.5833Z" fill="black"/>
<path fill-rule="evenodd" clip-rule="evenodd" d="M163.167 51C164.667 51.9167 165.833 52.6667 167.083 54C167.917 52.5833 168.583 51.5833 170.083 50.9167C170.25 52 170.25 59.5 166.917 60.75C165.083 61.5 158.25 56.5833 157.667 55.3333C159 54.6667 161.417 54.9167 162.833 55.5833C162.583 53.75 162.667 53 163.167 51Z" fill="#006F23"/>
<path fill-rule="evenodd" clip-rule="evenodd" d="M165.917 58.75C166.25 55.75 169.833 55.3333 171.5 57.8333C174.333 56.0833 176.5 59.9167 174.417 62.75C174.417 62.8333 174.333 62.8333 174.333 62.9167C173.917 63.1667 173.583 63.5 173.25 63.9167C172.833 64.5 172.583 65 172.083 65.5C171.083 66.5 169.833 67.4167 168.667 68.25C168.583 68.3333 168.417 68.3333 168.25 68.25C167.583 68 167.083 67.75 166.75 67.0833C166.583 66.6667 166.5 66.25 166.333 65.75C165.917 65.0833 165.25 64.4167 164.667 63.9167C164.5 63.8333 164.333 63.6667 164.25 63.5833C163.75 63.0833 163.5 62.4167 163.417 61.75C163.25 60.75 163.5 59.3333 164.5 58.75C165 58.5833 165.417 58.5833 165.917 58.75Z" fill="black"/>
<path fill-rule="evenodd" clip-rule="evenodd" d="M174 62.5C172.083 63.9167 173.333 64.4167 168.417 67.8333C166.167 66.9167 168.083 66.0833 164.917 63.5C162.917 62.3333 163.833 57.6667 166.333 59.5C166.167 56.1667 169.917 55.6667 171.417 58.5C173.917 56.4167 175.917 59.9167 174 62.5Z" fill="white"/>
<path fill-rule="evenodd" clip-rule="evenodd" d="M169.25 58.9167C170.417 60 171.334 61.0833 172.084 62.3333C172.917 61.5833 173.667 61 174.75 60.6667C174.917 60.5833 175.084 60.5833 175.25 60.5C175.417 60.5 175.5 60.5 175.667 60.5C175.834 60.4167 175.917 60.5 176.084 60.5833C176.167 60.6667 176.25 60.8333 176.167 61C176.167 61.6667 175.917 62.4167 175.667 63C175.334 64.1667 174.917 65.25 174.417 66.25C173.584 67.8333 172.167 69.9167 170.25 70.1667C168.75 70.3333 166.417 67.8333 165.584 66.75C164.834 65.9167 162.75 63.3333 162.583 62.1667C162.583 61.9167 162.667 61.75 162.917 61.6667C163.083 61.5833 163.25 61.5833 163.333 61.5833C163.5 61.5833 163.667 61.5 163.833 61.5C165 61.5833 166.167 62.0833 167.167 62.75C167.417 61.4167 167.75 60.5 168.5 59.0833C168.584 58.9167 168.75 58.8333 168.917 58.8333C169 58.75 169.167 58.8333 169.25 58.9167Z" fill="black"/>
<path fill-rule="evenodd" clip-rule="evenodd" d="M168.917 59.25C170.167 60.5 171.083 61.5833 172 63.0833C173.167 62 174 61.1667 175.75 60.9167C175.584 62 173.667 69.25 170.167 69.6667C168.25 69.9167 163.25 63.4167 163.083 62.0833C164.5 61.75 166.333 62.6667 167.5 63.6667C167.75 61.8333 168 61.0833 168.917 59.25Z" fill="#006F23"/>
<path fill-rule="evenodd" clip-rule="evenodd" d="M169.334 67C169.917 63.8334 173.75 63.9167 175.25 66.6667C178.167 65.1667 179.917 69.1667 177.75 71.6667C177.667 71.75 177.667 71.75 177.584 71.75C177.167 72.0833 176.75 72.3333 176.417 72.6667C175.917 73.25 175.584 73.75 175 74.25C173.917 75.1667 172.584 75.9167 171.334 76.6667C171.167 76.75 171 76.75 170.834 76.6667C170.25 76.3333 169.667 76 169.334 75.3333C169.084 74.9167 168.917 74.5 168.667 74.0833C168.25 73.3333 167.667 72.6667 167.084 72C164.917 70.3333 166.834 65.8334 169.334 67Z" fill="black"/>
<path fill-rule="evenodd" clip-rule="evenodd" d="M177.334 71.3333C175.25 72.5833 176.334 73.3333 171.084 76.25C168.834 75.0833 170.25 74.5 167.417 71.6667C165.5 70.25 167.417 65.75 169.75 67.8333C169.75 64.1667 173.834 64.3333 175 67.3333C177.75 65.5 179.334 69.1667 177.334 71.3333Z" fill="white"/>
<path fill-rule="evenodd" clip-rule="evenodd" d="M172.834 67.5C173.834 68.6667 174.75 69.8333 175.5 71.25C176.584 70.6667 177.584 70 178.834 69.6667C179 69.5833 179.167 69.5833 179.334 69.75C179.5 69.8333 179.5 70 179.5 70.1667C179.334 70.8333 179 71.5833 178.75 72.1667C178.334 73.25 177.834 74.25 177.167 75.25C176.167 76.75 174.584 78.6667 172.667 78.75C171.167 78.75 169.084 76.25 168.25 75.1667C167.5 74.25 165.584 71.5833 165.5 70.4167C165.5 70.25 165.584 70 165.834 69.9167C167.334 69.3333 169 70.3333 170.25 71.3333C170.667 69.9167 171.167 68.9167 172 67.5C172.084 67.4167 172.25 67.3333 172.417 67.25C172.584 67.25 172.667 67.3333 172.834 67.5Z" fill="black"/>
<path fill-rule="evenodd" clip-rule="evenodd" d="M172.417 67.75C173.584 69.0833 174.5 70.3333 175.25 72C176.667 71.1667 177.5 70.5 179 70.0833C178.75 71.0833 176.167 78.1667 172.584 78.25C170.667 78.3334 166.084 71.75 166 70.4167C167.5 69.8333 169.417 71.1667 170.5 72.25C170.917 70.5 171.334 69.5 172.417 67.75Z" fill="#006F23"/>
<path fill-rule="evenodd" clip-rule="evenodd" d="M171.833 75.6667C173.25 72.5833 176.917 73.6667 177.667 76.8333C180.917 76.1667 182 80.8333 179.25 82.75C179.167 82.8333 179.083 82.8333 179.083 82.8333C178.5 83 178.083 83.1667 177.583 83.4167C176.917 83.8333 176.25 84.1667 175.5 84.5C174.083 85.1667 172.583 85.6667 171.083 86.0833C170.917 86.0833 170.75 86.0833 170.583 85.9167C170.083 85.4167 169.667 84.9167 169.5 84.1667C169.333 83.6667 169.333 83.0833 169.167 82.5833C169 81.6667 168.583 80.75 168.167 79.9167C168 79.75 167.917 79.5 167.833 79.3333C167.083 77 169.917 74 171.833 75.6667Z" fill="black"/>
<path fill-rule="evenodd" clip-rule="evenodd" d="M178.917 82.4167C176.583 83 176.833 84 170.917 85.5833C169.167 83.8333 170.5 83.3333 168.5 79.6667C167.167 77.75 170.333 73.8334 172 76.5833C173.083 72.8334 176.917 74.0834 177.25 77.5C180.417 76.25 181.417 80.5833 178.917 82.4167Z" fill="white"/>
<path fill-rule="evenodd" clip-rule="evenodd" d="M175.083 77.0833C175.75 78.5833 176.25 80 176.583 81.6667C178 81.25 179.333 81 180.917 81.1667C181.083 81.1667 181.25 81.25 181.333 81.4167C181.333 81.5833 181.417 81.75 181.333 81.8333C181 82.4167 180.333 83.1667 179.917 83.6667C179.167 84.5833 178.25 85.5 177.333 86.3334C175.917 87.5 173.75 89 171.75 88.5C170.25 88.1667 168.917 84.9167 168.5 83.5833C168 82.5 166.917 79.25 167.167 78.1667C167.25 77.9167 167.417 77.75 167.583 77.75C167.833 77.75 168 77.75 168.25 77.75C169.583 77.9167 170.75 79.25 171.5 80.5C171.917 79.9167 172.333 79.3333 172.667 78.75C173.167 78 173.667 77.4167 174.333 76.9167C174.417 76.75 174.583 76.75 174.75 76.75C174.917 76.8333 175 76.9167 175.083 77.0833Z" fill="black"/>
<path fill-rule="evenodd" clip-rule="evenodd" d="M174.667 77.25C175.333 78.9167 175.917 80.4167 176.167 82.25C177.75 81.8333 179.083 81.4167 180.833 81.6667C180.417 82.6667 175.25 88.9167 171.833 88.0833C169.917 87.6667 167.417 79.6667 167.667 78.25C169.25 78 170.75 79.9167 171.5 81.3333C172.833 79.5 173.083 78.6667 174.667 77.25Z" fill="#006F23"/>
<path fill-rule="evenodd" clip-rule="evenodd" d="M167.667 88.0833C166.584 85.5833 170.334 82.5 172 84.8333C172.75 83.9167 173.75 83.3333 175 83.6667C176.667 84 177.584 85.6667 177.417 87.3333C178.25 87.3333 179.084 87.6667 179.584 88.5C180.75 90.1667 179.667 92.5 177.917 93.25C177.834 93.25 177.75 93.25 177.75 93.25C177.167 93.25 176.667 93.3333 176.167 93.5C175.417 93.75 174.667 94 173.917 94.1667C172.334 94.5 170.75 94.5833 169.25 94.6667C169 94.6667 168.917 94.6667 168.75 94.5C168.417 93.9167 168.084 93.3333 168.084 92.5833C168 92 168.084 91.4167 168.084 90.9167C168.084 89.9167 167.917 89 167.667 88.0833Z" fill="black"/>
<path fill-rule="evenodd" clip-rule="evenodd" d="M177.667 92.75C175.25 92.9167 175.25 93.9167 169.167 94.25C167.75 92.1667 169.25 92 168.084 87.9167C167.167 85.75 170.917 82.75 172 85.75C173.834 82.3333 177.834 84.6667 176.834 87.8333C180.167 87.3333 180.5 91.5833 177.667 92.75Z" fill="white"/>
<path fill-rule="evenodd" clip-rule="evenodd" d="M175.417 91.5833C177 91.5 178.333 91.5 179.917 92C180.083 92.0833 180.167 92.1667 180.167 92.3333C180.25 92.5 180.25 92.6667 180.083 92.75C179.75 93.25 178.917 93.9167 178.417 94.25C177.417 95 176.417 95.6667 175.334 96.25C173.667 97.1667 171.167 98.1667 169.334 97.25C167.584 96.3333 167 93.5833 166.75 91.8333C166.5 90.0833 166.417 87.75 166.584 86C166.584 85.75 166.834 85.5834 167.084 85.5834C168.917 85.75 170.084 87.6667 170.584 89.4167C171.75 88.3334 172.834 87.3334 174.334 86.4167C174.417 86.3334 174.584 86.3334 174.75 86.4167C174.917 86.5 175 86.5834 175.084 86.75C175.334 88.3334 175.334 90 175.417 91.5833Z" fill="black"/>
<path fill-rule="evenodd" clip-rule="evenodd" d="M174.584 86.8334C174.917 88.5834 174.834 90.3333 175 92.0833C176.667 92 178.084 91.9167 179.75 92.5C179.084 93.3333 172.75 98.4167 169.584 96.8333C166.584 95.3333 167 86.9167 167.084 86.0834C168.667 86.1667 170 88.3334 170.25 90.3333C172 88.8334 172.75 87.9167 174.584 86.8334Z" fill="#006F23"/>
<path fill-rule="evenodd" clip-rule="evenodd" d="M175.25 97.25C178.417 97.9166 178 102.583 174.667 103.333C174.583 103.417 174.583 103.417 174.5 103.417C174 103.333 173.5 103.333 173 103.333C172.083 103.417 171.333 103.5 170.417 103.583C168.833 103.583 167.167 103.5 165.583 103.25C165.417 103.25 165.25 103.167 165.167 103C164.917 102.25 164.75 101.583 164.833 100.833C164.833 100.25 165 99.6667 165.083 99.0833C165.167 98.0833 165.167 97.0833 165.083 96.0833C164.5 93.25 168.833 90.6666 170.5 93.5833C173.083 91.5 176.25 94 175.25 97.25Z" fill="black"/>
<path fill-rule="evenodd" clip-rule="evenodd" d="M174.583 102.917C172.083 102.583 171.667 103.583 165.667 102.75C164.667 100.417 165.917 100.417 165.583 96.0833C165.083 93.5834 169.167 90.9167 170.333 94.4167C172.667 91.75 176.083 94.3334 174.583 97.6667C177.917 97.75 177.583 102.167 174.583 102.917Z" fill="white"/>
<path fill-rule="evenodd" clip-rule="evenodd" d="M172.25 101.5C173.834 101.667 175.084 101.667 176.584 102.5C176.667 102.583 176.75 102.75 176.834 102.917C176.834 103.083 176.75 103.167 176.667 103.333C176.167 103.75 175.25 104.167 174.75 104.5C173.667 105.083 172.5 105.583 171.333 106C169.583 106.583 166.833 107.25 165.25 105.917C163.583 104.667 163.583 101.667 163.75 99.8333C163.833 98.5 164 97.25 164.25 96C164.333 95.25 164.5 94.5 164.667 93.8333C164.75 93.5833 164.917 93.5 165.167 93.5C167.25 93.5 167.917 96.1667 167.917 98.0833C169.333 97.1667 170.583 96.3333 172.167 95.6667C172.334 95.6667 172.5 95.6667 172.584 95.75C172.75 95.8333 172.834 96 172.834 96.1667C172.834 97.9167 172.5 99.75 172.25 101.5Z" fill="black"/>
<path fill-rule="evenodd" clip-rule="evenodd" d="M172.334 96.1667C172.334 98 171.917 100.083 171.75 101.917C173.334 102.167 174.75 102 176.334 102.917C175.5 103.667 168.334 107.75 165.5 105.583C162.834 103.417 164.917 94.8333 165.167 93.9167C167 94 167.584 96.8333 167.417 98.9167C169.5 97.6667 170.334 96.9167 172.334 96.1667Z" fill="#006F23"/>
<path fill-rule="evenodd" clip-rule="evenodd" d="M171.25 106.75C174.167 108.25 172.834 112.75 169.417 112.75C169.334 112.75 169.25 112.75 169.25 112.667C168.75 112.5 168.334 112.417 167.917 112.333C166.917 112.083 166 112 165.084 111.833C163.417 111.417 161.75 110.833 160.083 110.25C159.917 110.167 159.833 110 159.833 109.833C159.667 109.083 159.667 108.333 159.833 107.583C159.917 107 160.083 106.417 160.25 105.75C160.583 104.75 160.75 103.75 160.917 102.75C161.083 99.8333 166 98.5833 166.917 101.833C167.917 101.25 169.084 101.167 170.167 101.833C171.834 102.917 172.25 105.167 171.25 106.75Z" fill="black"/>
<path fill-rule="evenodd" clip-rule="evenodd" d="M169.417 112.25C167.084 111.333 165.917 112 160.25 109.75C159.917 107.167 160.75 107.167 161.417 102.833C161.5 100.333 166.25 99 166.584 102.667C169.834 100.083 172.833 104.5 170.417 107C173.667 107.917 172.5 112.333 169.417 112.25Z" fill="white"/>
<path fill-rule="evenodd" clip-rule="evenodd" d="M167.167 110.25C167.417 110.333 167.667 110.333 167.917 110.417C169.5 110.917 170.5 111.417 171.417 112.833C171.5 112.917 171.5 113.083 171.5 113.25C171.417 113.333 171.333 113.417 171.25 113.5C170.667 113.833 169.583 114 168.917 114.167C167.667 114.333 166.417 114.5 165.083 114.5C163.25 114.583 160.333 114.333 159.083 112.75C156.917 109.667 159.417 103.583 161.083 100.667C161.25 100.5 161.417 100.417 161.667 100.5C163.583 101 163.25 104 163.417 105.833C165.083 105.333 166.5 104.75 168.333 104.5C168.5 104.5 168.667 104.5 168.75 104.667C168.917 104.75 168.917 104.917 168.917 105.083C168.417 106.833 167.75 108.5 167.167 110.25Z" fill="black"/>
<path fill-rule="evenodd" clip-rule="evenodd" d="M168.417 105C167.917 106.833 167.167 108.75 166.583 110.5C168.083 111.083 169.667 111 171 113.083C170 113.583 161.667 115.25 159.5 112.417C157.083 109 161.083 101.75 161.5 100.917C163.25 101.417 162.75 105.083 163 106.5C165.25 105.75 166.25 105.25 168.417 105Z" fill="#006F23"/>
<path fill-rule="evenodd" clip-rule="evenodd" d="M155.834 108.5C156.25 107.75 157 107.25 157.834 107C159.75 106.5 161.5 107.417 161.667 109.25C162.75 108.917 163.917 109 164.834 109.833C166.334 111.167 166.25 113.5 165 115C168.084 117.417 165.417 121.25 162 120.583C161.917 120.5 161.834 120.5 161.834 120.5C161.417 120.25 161 120 160.584 119.833C159.667 119.5 158.75 119.167 157.917 118.833C156.334 118.167 154.75 117.25 153.333 116.333C153.167 116.25 153.083 116.083 153.083 115.917C153.167 115.167 153.25 114.417 153.5 113.75C153.75 113.167 154.084 112.583 154.334 112C154.834 111.083 155.167 110.167 155.584 109.167C155.584 108.917 155.75 108.667 155.834 108.5Z" fill="black"/>
<path fill-rule="evenodd" clip-rule="evenodd" d="M162.083 120.083C160 118.75 158.667 119.167 153.583 115.917C153.75 113.333 154.5 113.417 156 109.333C156.583 106.833 161.583 106.333 161.167 110C164.833 108.083 166.917 112.75 164.25 115C167.667 117.167 165.083 120.75 162.083 120.083Z" fill="white"/>
<path fill-rule="evenodd" clip-rule="evenodd" d="M160.25 117.917C160.583 118.083 161 118.25 161.333 118.417C162.667 119 163.333 119.667 163.917 121C164 121.167 164 121.333 163.917 121.417C163.833 121.583 163.75 121.667 163.583 121.667C162.917 121.917 161.833 122 161.083 122C159.75 122.167 158.333 122.083 157 121.833C154.917 121.5 152.833 120.583 151.833 118.583C151 116.667 151.667 114.417 152.417 112.583C152.917 111.333 153.667 110.167 154.417 109C154.833 108.333 155.333 107.667 155.833 107.083C155.917 106.917 156.167 106.917 156.417 107C158 107.833 157.333 110.917 157.167 112.667C158.917 112.5 160.667 112.167 162.5 112.25C162.667 112.25 162.833 112.333 162.917 112.5C163 112.667 163 112.833 162.917 113C162.083 114.667 161.167 116.25 160.25 117.917Z" fill="black"/>
<path fill-rule="evenodd" clip-rule="evenodd" d="M162.5 112.75C161.667 114.5 160.583 116.333 159.667 118.083C161 119 162.5 118.917 163.5 121.25C162.417 121.583 154.5 122.667 152.25 118.417C150.583 114.583 155.583 108.083 156.167 107.417C157.583 108.167 156.667 111.833 156.667 113.167C159.083 113 160.333 112.667 162.5 112.75Z" fill="#006F23"/>
<path fill-rule="evenodd" clip-rule="evenodd" d="M155 115.667C156.417 115.5 157.75 115.917 158.584 117.083C159.75 118.833 159 121 157.667 122.417C158.75 123.5 159.25 125.083 158.25 126.583C157.334 127.75 155.75 128.25 154.334 127.667L154.25 127.583C154 127.333 153.75 127.167 153.417 127C152.5 126.333 151.5 125.833 150.584 125.167C148.917 124.167 147.334 122.917 145.917 121.667C145.75 121.5 145.667 121.333 145.75 121.167C145.917 120.417 146.167 119.75 146.5 119.083C146.834 118.417 147.334 117.833 147.75 117.167C148.417 116.25 149 115.333 149.584 114.333C150.667 111.667 154.834 112.333 155 115.667Z" fill="black"/>
<path fill-rule="evenodd" clip-rule="evenodd" d="M154.5 127.25C152.667 125.583 150.75 125.333 146.25 121.25C146.75 118.75 147.834 118.417 150 114.5C150.917 112.25 154.834 112.917 154.5 116.167C158.584 115.333 160.084 119.583 156.917 122.417C160 125.083 157.084 128.333 154.5 127.25Z" fill="white"/>
<path fill-rule="evenodd" clip-rule="evenodd" d="M152.167 124.75C152.667 125.083 153.334 125.333 153.917 125.667C155 126.417 155.5 127.25 155.75 128.5C155.834 128.667 155.75 128.75 155.667 128.917C155.584 129 155.5 129.083 155.334 129.083C153.584 129.333 151.917 129.417 150.084 129.083C147.084 128.417 144.917 126.667 144.084 123.667V123.583C143.417 120.833 144.25 118.25 145.834 116C146.917 114.583 147.917 113.75 149.25 112.667C149.334 112.583 149.417 112.5 149.584 112.5C149.75 112.583 149.834 112.583 149.917 112.75C150.834 113.917 151 115.167 150.584 116.583C150.417 117.083 150.167 117.583 149.917 118.083C149.917 118.167 149.834 118.417 149.75 118.583C151.75 118.583 153.584 118.667 155.584 119.083C155.75 119.083 155.917 119.25 155.917 119.333C156 119.5 156 119.667 155.917 119.833C154.75 121.5 153.417 123.083 152.167 124.75Z" fill="black"/>
<path fill-rule="evenodd" clip-rule="evenodd" d="M155.5 119.583C154.417 121.083 152.667 123.167 151.5 124.833C152.667 125.917 154.75 125.917 155.333 128.583C154.167 128.75 146.417 130.083 144.583 123.5C143.167 117.667 148.833 113.583 149.5 113C151.333 115.5 149.333 117.667 149.083 119C151.75 119.083 153.417 119.083 155.5 119.583Z" fill="#006F23"/>
<path fill-rule="evenodd" clip-rule="evenodd" d="M139.917 129.5C139.917 129.5 143.167 127.333 143.583 126.917C144 126.417 145.5 124.75 147.417 124.583C149.25 124.417 151 124.917 150.583 125.25C150.25 125.667 148.833 126.25 148 126.333C147.167 126.5 145.75 126.333 145.333 126.667C144.833 127 140 130.667 140 130.667L139.917 129.5Z" fill="black"/>
<path fill-rule="evenodd" clip-rule="evenodd" d="M139.25 75.3333C139.833 75.3333 140.333 75.75 140.333 76.3333C140.333 77 139.833 77.4167 139.25 77.4167C138.667 77.4167 138.167 77 138.167 76.3333C138.167 75.75 138.667 75.3333 139.25 75.3333ZM138.75 71.5C139.333 71.5 139.833 72 139.833 72.5833C139.833 73.1667 139.333 73.6667 138.75 73.6667C138.167 73.6667 137.75 73.1667 137.75 72.5833C137.75 72 138.167 71.5 138.75 71.5ZM138.083 67.6667C138.667 67.6667 139.083 68.1667 139.083 68.75C139.083 69.3333 138.667 69.8333 138.083 69.8333C137.5 69.8333 137 69.3333 137 68.75C137 68.1667 137.5 67.6667 138.083 67.6667ZM135.833 64.9167C135.833 64.25 136.25 63.8333 136.917 63.8333C137.5 63.8333 137.917 64.25 137.917 64.9167C137.917 65.5 137.5 65.9167 136.917 65.9167C136.25 65.9167 135.833 65.5 135.833 64.9167ZM133.5 95.8333C137.083 91.5833 140.083 85 140.833 79.5833C142.167 78.6667 143.25 77.3333 142.833 75.6667C142.583 75 142.167 74.4167 141.583 74C142.083 73.3333 142.167 72.0833 142 71.4167C141.75 70.75 141.333 70.3333 140.833 70.0833C141.5 69 141.5 66.9167 139.833 66.25C140.833 64.4167 140.167 62.6667 138.083 62.1667C138.75 61 139 59.5833 137.917 58.5C137.083 57.6667 136.167 57.5 135.083 57.6667C134.583 57.6667 133.5 57.9167 133.083 57.8333C131.917 57.5 130 55.75 129.167 54.9167C127.333 53.0833 125.75 50.9167 124.667 48.6667C124.083 47.25 123.583 45.75 123.417 44.25C123.333 43 123.417 41.75 123.75 40.5L124.083 39.3333L123.083 40C119 42.4167 115.583 46 115.167 50.8333C114.917 53.3333 115.417 55.3333 116.25 57.5833C115 59.3333 114.167 61.4167 114.75 63.6667C115.333 66.1667 117.75 68.3333 119.417 70.25C122.583 73.8333 128.833 80 129.583 84.5833C130.167 87.6667 129.083 90.6667 127.25 93.0833C126.25 94.3333 123.917 96.6667 122.167 96.75C122.083 96.75 121.583 96.5 121.5 96.4167C121 96.1667 120.5 95.8333 120 95.6667C119.083 95.3333 117.083 95 116.417 95.9167C116 96.5833 116.083 97.5833 116.333 98.3333C116.667 99.3333 117.417 100.083 118.25 100.583C118.75 100.833 119.25 100.917 119.75 101C120 101 121.5 101 121.667 101.167V101.25C121.583 101.333 120.5 102.333 120.333 102.583C119.5 103.5 119 104.583 119.083 105.833C119.167 107.25 119.75 108.333 121.083 108.917C121.5 109.083 121.917 109.167 122.333 109.25C122.417 109.25 122.75 109.333 122.833 109.417C122.667 109.5 122.25 109.583 122.167 109.667C121.667 109.833 121.167 110 120.833 110.417C120.25 111.167 120.25 112.167 120.5 113C120.833 114.167 121.583 115.25 122.5 116.083C121.917 118.75 121.417 121.5 121.083 124.167C120.917 125.833 120.75 127.75 120.917 129.417C121.083 130.5 121.417 131.583 122.167 132.5C122.333 132.833 122.583 133 122.833 133.25C122.833 133.333 123 133.417 123.083 133.5C122.917 133.667 122.583 134.167 122.5 134.25C122.083 134.833 121.833 135.5 121.75 136.333C121.75 137.5 122.083 138.667 122.833 139.583C123.333 140.25 124.167 141.083 125.083 141.083C126.417 141.083 127.583 138.5 127.917 137.5C128.083 136.917 128.25 136.25 128.333 135.667C128.833 130.583 129.417 120.667 127 116.083C130 113.25 130.083 107.417 128.917 103.833C128.667 103 128.333 102.417 127.75 101.75C127.583 101.5 127.083 101.083 127 100.833C126.917 100.667 126.917 100.583 126.917 100.417C127.083 100.333 127.417 100.25 127.5 100.25C128 100.083 128.5 99.8333 128.917 99.6667C130.75 98.75 132.25 97.3333 133.5 95.8333ZM135.417 61.8333C134.833 61.8333 134.417 61.3333 134.417 60.75C134.417 60.1667 134.833 59.6667 135.417 59.6667C136 59.6667 136.5 60.1667 136.5 60.75C136.5 61.3333 136 61.8333 135.417 61.8333Z" fill="black"/>
<path fill-rule="evenodd" clip-rule="evenodd" d="M126.333 116.25L123.083 116.167H123C122.917 116.333 122.917 116.583 122.833 116.75C121.667 123 121.083 126.917 121.417 129.333C121.833 132.5 123.583 133 123.583 133.417C123.583 134 122.333 134.583 122.25 136.333C122.167 138.583 123.917 140.583 125.083 140.583C126 140.583 127.667 137.833 127.833 135.583C127.917 135 129.333 122.25 126.75 116.667C126.667 116.5 126.667 116.333 126.583 116.25H126.333Z" fill="#D81F00"/>
<path fill-rule="evenodd" clip-rule="evenodd" d="M136.917 66.4167C136 66.4167 135.333 65.75 135.333 64.9167C135.333 64 136 63.3333 136.917 63.3333C137.75 63.3333 138.417 64 138.417 64.9167C138.417 65.75 137.75 66.4167 136.917 66.4167ZM137 60.75C137 61.5833 136.333 62.3333 135.417 62.3333C134.583 62.3333 133.917 61.5833 133.917 60.75C133.917 59.9167 134.583 59.1667 135.417 59.1667C136.333 59.1667 137 59.9167 137 60.75ZM126.417 100.25C126.583 99.5 129.167 100.167 133.167 95.5C137.333 90.5833 139.833 83.6667 140.417 79.25C143.417 77.3333 142.667 75 140.75 74.0833C141.667 73.75 142.417 70.6667 139.833 70.3333C140.75 70.0833 141.667 66.8333 139 66.5833C140.667 64.3333 139.583 62.75 137.333 62.5C138.083 61.4167 138.667 60 137.583 58.8333C136.083 57.3333 134.083 58.5833 133 58.3333C130.167 57.5 120.917 48.75 123.333 40.4167C112.167 47.25 116.083 55.8333 116.833 57.5833C112.75 63.1667 116.417 66.0833 119.75 69.9167C123.583 74.25 129.333 79.8333 130.083 84.5C131.25 91.4167 124.833 97 122.25 97.25C121.75 97.25 120.917 96.5 119.833 96.0833C118.667 95.6667 117.167 95.6667 116.833 96.1667C116.25 97.0833 116.833 99.25 118.5 100.167C119.833 100.917 122.167 100.083 122.167 101.25C122.167 102 119.417 103 119.583 105.833C119.75 109.5 123.333 108.167 123.333 109.5C123.333 110.083 121.917 109.917 121.25 110.75C120.5 111.583 120.667 113.583 122.667 115.667L126.75 115.75C129.667 112.833 129.417 106.917 128.5 103.917C127.75 101.667 126.25 101.583 126.417 100.25ZM139.25 77.9167C138.417 77.9167 137.667 77.25 137.667 76.3333C137.667 75.5 138.417 74.8333 139.25 74.8333C140.083 74.8333 140.75 75.5 140.75 76.3333C140.75 77.25 140.083 77.9167 139.25 77.9167ZM138.75 74.1667C137.917 74.1667 137.25 73.4167 137.25 72.5833C137.25 71.75 137.917 71.0833 138.75 71.0833C139.667 71.0833 140.333 71.75 140.333 72.5833C140.333 73.4167 139.667 74.1667 138.75 74.1667ZM138.083 70.25C137.167 70.25 136.5 69.5833 136.5 68.75C136.5 67.9167 137.167 67.1667 138.083 67.1667C138.917 67.1667 139.583 67.9167 139.583 68.75C139.583 69.5833 138.917 70.25 138.083 70.25Z" fill="white"/>
<path fill-rule="evenodd" clip-rule="evenodd" d="M96.2499 101.75L97.4166 103C99.7499 105.333 101.667 108.25 102.417 111.5C102.833 113.083 102.917 115.25 102.333 116.833C101.667 118.667 101.5 120.417 100.25 122L99.9999 122.333L99.6666 122.167C99.3333 122 99.0833 121.833 98.8333 121.667L98.5833 121.917C96.3333 123.75 94.6666 124.333 91.9166 124.333C88.9166 124.25 86.0833 121.833 84.0833 119.833L83.0833 118.917L84.4166 119C85.7499 119.167 86.4999 119.083 87.5833 118.5C88.8333 117.917 89.6666 117.667 90.9999 117.75C92.7499 117.75 94.9166 118.417 96.5833 119.417C95.4166 117.75 94.9999 115.583 94.9999 113.25C94.9166 111.833 95.3333 110.417 95.7499 109.083C96.2499 107.417 97.0833 105.25 96.6666 103.417L96.2499 101.75ZM92.8333 95.1667C94.4166 97.5833 95.5833 100.333 95.7499 103.167C95.8333 104.667 95.5833 106.583 94.8333 107.917C93.8333 109.667 93.3333 111.333 91.8333 112.667L91.4166 113L91.0833 112.667C88.7499 110 88.1666 107.667 88.6666 104.25C88.9166 102.75 89.5833 101.5 90.2499 100.25C90.9166 99.1667 91.5833 98 91.8333 96.75C91.9166 96.3333 91.9999 95.9167 91.9999 95.5L91.9166 93.75L92.8333 95.1667ZM89.4166 86C91.1666 89.9167 91.6666 94.1667 89.1666 97.8333C87.9999 99.5 87.1666 100.917 85.3333 102L84.9166 102.25L84.6666 101.833C84.3333 101.25 83.9999 100.667 83.7499 100.083L83.4999 100.25C81.4166 101.083 79.4166 101.583 77.2499 100.917C74.8333 100.25 72.7499 97.5833 71.7499 95.5L71.2499 94.4167L72.3333 94.8333C74.1666 95.5 76.4999 94.3333 78.4166 95.0833C80.4166 95.9167 82.3333 97.3333 83.4999 99.1667C82.9166 97.1667 83.2499 95.25 84.2499 92.9167C84.7499 91.75 85.4166 90.8333 86.2499 89.8333C86.8333 89.1667 87.5833 88.4167 88.0833 87.5833C88.3333 87.0833 88.4999 86.6667 88.4999 86.1667L88.7499 84.3333L89.4166 86ZM87.9999 74.75L88.3333 76.5C89.1666 80.6667 88.9166 84.75 85.7499 87.75C84.2499 89.1667 83.0833 90.4167 81.0833 91.0833H80.9999C81.0833 91.3333 81.1666 91.5833 81.1666 91.8333L81.3333 92.3333L80.8333 92.4167C78.5833 92.75 76.5833 92.75 74.5833 91.5833C72.4166 90.3333 71.0833 87.25 70.5833 84.9167L70.3333 83.8333L71.3333 84.4167C72.9166 85.5 75.4999 85 77.1666 86.1667C78.3333 87 79.3333 88.0833 80.0833 89.25C79.4999 86.5833 80.1666 84.5 81.9166 82C82.5833 81 83.4166 80.25 84.3333 79.5833C85.0833 79 85.9166 78.5 86.4999 77.9167C86.9166 77.5 87.1666 77 87.4166 76.4167L87.9999 74.75ZM89.8333 66V67.6667C89.9166 71.5 88.2499 75.3333 85.0833 77.5833C83.4999 78.75 81.8333 79.1667 79.9166 79.4167H79.3333L79.4166 78.9167C79.4999 76.0833 80.4166 73 82.7499 71.1667C83.3333 70.75 83.9999 70.3333 84.6666 70.0833C85.9999 69.4167 88.0833 68.6667 88.9166 67.4167L89.8333 66ZM99.2499 42.5C101.333 42.4167 102.333 43.75 104.833 43L106.25 42.5833L105.333 43.75C104.417 44.9167 103.25 45.9167 101.917 46.5833C101.083 47.0833 99.8333 47.5833 98.8333 47.6667C96.8333 47.8333 95.0833 47.5833 93.4166 46.4167L93.0833 46.25L93.2499 45.8333C93.2499 45.75 93.3333 45.6667 93.3333 45.5833L93.0833 44.9167C92.2499 43.1667 91.9166 41.5 92.4166 39.5833C92.9166 37.5 95.2499 35.75 97.0833 34.75L98.4166 34.0833L97.6666 35.4167C96.9166 36.9167 98.1666 38.9167 97.5833 40.5C97.1666 41.4167 96.5833 42.0833 95.9166 42.75C95.4166 43.1667 94.9166 43.5833 94.4999 44.0833C95.6666 42.9167 97.1666 42.5833 99.2499 42.5ZM98.4166 49.0833L97.8333 50.4167C97.4999 51.3333 96.9166 52.0833 96.3333 52.8333C95.3333 54 93.4166 55.75 91.9166 56.25C90.0833 56.9167 88.3333 56.8333 86.4999 56.4167L85.9166 56.3333L86.0833 55.8333C86.9999 53.3333 88.6666 51.4167 91.2499 50.6667C93.1666 50.0833 95.2499 51 97.1666 49.8333L98.4166 49.0833ZM89.4166 59.25C90.0833 59 90.6666 58.6667 91.2499 58.0833L92.3333 57L92.0833 58.5C91.9999 59.0833 91.8333 59.5833 91.5833 60.1667C91.1666 61.5 90.3333 62.75 89.4166 63.8333C88.9166 64.5 87.9999 65.4167 87.2499 65.8333C85.5833 66.8333 83.8333 67.1667 81.9166 67.1667H81.4166L81.4999 66.6667C81.8333 64 82.5833 62 84.9999 60.5833C86.4999 59.75 87.8333 59.75 89.4166 59.25ZM107.833 35.4167L108.583 35.5833L108.083 36.1667C106.833 37.75 105.167 39.4167 103.5 40.4167C101.583 41.6667 100.25 41.6667 98.0833 41.8333H97.4166L97.5833 41.25C97.9999 39.25 98.8333 38.1667 100.25 36.75C102.167 34.75 105.333 34.8333 107.833 35.4167ZM89.5833 41.4167C89.1666 43 90.9999 44.5833 90.7499 46.3333C90.5833 48.3333 89.7499 50.3333 88.3333 51.75L87.9166 52.1667L87.5833 51.75C86.3333 50.25 85.5833 48.75 85.5833 46.75C85.5833 44.6667 87.3333 42.25 88.8333 40.9167L89.9999 39.8333L89.5833 41.4167ZM83.8333 48.6667C83.7499 50.3333 85.6666 51.5833 85.7499 53.3333C85.8333 55.3333 85.3333 57.4167 84.0833 59.0833L83.8333 59.5L83.4166 59.1667C81.9999 57.8333 80.9166 56.5 80.6666 54.5833C80.3333 52.5 81.7499 49.9167 82.9999 48.3333L83.9999 47.0833L83.8333 48.6667ZM81.4166 60.6667C81.9999 62.75 81.9166 65.0833 80.9999 67.1667L80.8333 67.6667L80.3333 67.4167C78.4999 66.4167 76.9166 65.3333 76.0833 63.3333C75.1666 61.1667 76.0833 58 77.0833 56.0833L77.6666 55.0833L77.9999 56.1667C78.5833 57.8333 80.8333 58.8333 81.4166 60.6667ZM78.5833 69.25C79.6666 71.3333 80.1666 73.6667 79.6666 76L79.5833 76.5L79.0833 76.3333C76.9166 75.75 75.1666 74.9167 73.8333 73.0833C72.3333 71.0833 72.5833 67.75 73.1666 65.5L73.4999 64.4167L74.0833 65.4167C74.9999 67 77.5833 67.5 78.5833 69.25ZM77.1666 77.25C78.7499 79 79.7499 81.1667 79.9166 83.5V84H79.4166C77.1666 84 75.2499 83.6667 73.4999 82.1667C71.5833 80.5833 70.9999 77.3333 70.9999 75V73.8333L71.8333 74.6667C73.1666 75.9167 75.7499 75.8333 77.1666 77.25ZM77.2499 103.417C78.4999 103 79.3333 102.833 80.6666 103.083C83.1666 103.5 86.6666 105.167 87.8333 107.5L87.9999 107.917L87.6666 108.083C85.3333 109.667 83.5833 110.083 80.8333 109.75C77.8333 109.333 75.0833 106.833 73.4999 104.333L72.9166 103.333L73.9999 103.583C75.2499 103.917 75.9999 103.833 77.2499 103.417ZM81.4999 111.75C82.6666 111.25 83.4999 110.917 84.9166 111C87.5833 111.167 90.4999 112.667 92.4166 114.5L92.8333 114.917L92.4166 115.25C90.2499 117 88.5833 117.667 85.8333 117.583C82.7499 117.583 79.7499 115.417 77.9166 113.083L77.1666 112.167L78.3333 112.333C79.5833 112.5 80.3333 112.333 81.4999 111.75Z" fill="black"/>
<path fill-rule="evenodd" clip-rule="evenodd" d="M84.4166 119.5C87.7499 119.917 87.8332 118.083 90.9999 118.25C93.9999 118.333 96.9999 119.917 98.2499 121.583C95.8332 123.5 94.2499 123.833 91.9166 123.833C89.8332 123.75 87.4999 122.583 84.4166 119.5ZM97.0832 103.333C97.8332 106.417 95.4166 109.833 95.4999 113.167C95.4999 116.25 96.0832 119.75 99.8332 121.75C101.083 120.167 101.333 118.167 101.917 116.667C102.5 114.917 103 109.333 97.0832 103.333ZM92.4166 95.5C92.5832 98.5833 89.6666 101 89.1666 104.333C88.7499 107.333 89.0832 109.583 91.4999 112.333C92.9166 111 93.5832 109.167 94.4166 107.667C95.3332 106.083 96.4166 101.333 92.4166 95.5ZM88.9999 86.1667C88.6666 88.9167 85.9166 90 84.6666 93.0833C83.4166 96.0833 83.1666 98.4167 85.0832 101.583C86.9166 100.5 87.8332 98.9167 88.7499 97.5833C89.5832 96.3333 91.8332 92.6667 88.9999 86.1667ZM87.8332 76.5833C86.9166 79.1667 84.2499 79.5 82.3332 82.25C80.4999 84.9167 79.7499 87.0833 80.9166 90.5833C82.9999 90 84.2499 88.5833 85.4166 87.4167C86.4999 86.4167 89.2499 83.5833 87.8332 76.5833ZM89.3332 67.6667C88.0832 69.5833 85.0832 70 83.0832 71.5833C80.4999 73.5 79.9166 77 79.8332 78.9167C81.9999 78.6667 83.4999 78.1667 84.8332 77.25C85.9166 76.4167 89.4166 73.4167 89.3332 67.6667ZM91.5832 58.4167C89.7499 60.3333 87.4166 59.6667 85.1666 61C82.6666 62.5 82.1666 64.75 81.9166 66.6667C84.0832 66.6667 85.5832 66.3333 86.9999 65.4167C88.1666 64.75 90.9999 61.75 91.5832 58.4167ZM97.4166 50.25C95.4166 51.4167 93.0832 50.5833 91.3332 51.1667C88.5832 52 87.1666 54.1667 86.5832 56C88.6666 56.3333 90.2499 56.3333 91.7499 55.75C93.0832 55.3333 96.2499 52.9167 97.4166 50.25ZM104.917 43.5C102.333 44.3333 101.083 42.9167 99.2499 43C96.3332 43.1667 94.9166 43.6667 93.6666 46.0833C95.4166 47.25 97.1666 47.3333 98.7499 47.1667C100.167 47.0833 103.167 45.8333 104.917 43.5ZM107.75 35.9167C106.25 37.6667 104.5 39.25 103.25 40C101.333 41.25 100.167 41.1667 98.0832 41.3333C98.4999 39.25 99.4166 38.25 100.583 37.0833C101.583 36.0833 103.917 34.9167 107.75 35.9167ZM97.2499 35.25C96.3332 36.9167 97.6666 38.9167 97.0832 40.3333C96.3332 42.4167 94.2499 43 93.4999 44.6667C92.6666 42.75 92.4166 41.3333 92.8332 39.75C93.1666 38.4167 94.6666 36.5 97.2499 35.25ZM89.1666 41.25C88.6666 43.1667 90.4999 44.75 90.3332 46.25C90.0832 48.5 89.0832 50.25 87.9166 51.4167C86.5832 49.75 85.9999 48.4167 85.9999 46.75C85.9999 45.4167 86.9999 43.25 89.1666 41.25ZM83.4166 48.5833C83.2499 50.5 85.2499 51.8333 85.2499 53.3333C85.3332 55.5833 84.7499 57.5 83.7499 58.8333C82.1666 57.4167 81.4166 56.1667 81.1666 54.5C80.9166 53.1667 81.4999 50.8333 83.4166 48.5833ZM77.4999 56.25C78.1666 58 80.4166 59.1667 80.9166 60.75C81.5832 63.0833 81.3332 65.25 80.5832 67C78.4166 65.9167 77.2499 64.75 76.4999 63.1667C75.9166 61.75 75.9999 59.1667 77.4999 56.25ZM73.6666 65.6667C74.6666 67.25 77.2499 68 78.1666 69.5C79.3332 71.75 79.5832 74 79.2499 75.9167C76.8333 75.25 75.3333 74.3333 74.1666 72.8333C73.3333 71.5833 72.7499 68.9167 73.6666 65.6667ZM71.4999 75C72.8333 76.3333 75.5833 76.3333 76.7499 77.5833C78.4999 79.5 79.3332 81.5833 79.4166 83.5C76.9166 83.5 75.2499 83 73.8333 81.8333C72.5833 80.8333 71.4166 78.3333 71.4999 75ZM71.0833 84.8333C72.6666 85.9167 75.4166 85.5 76.8333 86.5833C78.9999 88.0833 80.2499 90.0833 80.7499 91.9167C78.2499 92.3333 76.4999 92.0833 74.8333 91.1667C73.4166 90.4167 71.7499 88.1667 71.0833 84.8333ZM72.1666 95.25C73.9999 95.9167 76.5833 94.8333 78.2499 95.5C80.6666 96.5 82.3332 98.0833 83.2499 99.8333C80.9999 100.75 79.2499 101 77.3333 100.5C75.8333 100.083 73.6666 98.3333 72.1666 95.25ZM73.9166 104.083C77.2499 104.833 77.4999 103.083 80.5832 103.583C83.7499 104.083 86.5832 106 87.4166 107.75C84.8332 109.417 83.1666 109.5 80.9166 109.25C78.7499 108.917 75.9166 107.333 73.9166 104.083ZM78.2499 112.833C81.6666 113.167 81.6666 111.333 84.8332 111.5C87.9999 111.667 90.8332 113.583 92.0832 114.833C89.7499 116.833 88.0832 117.167 85.8332 117.083C83.6666 117.083 80.6666 115.75 78.2499 112.833Z" fill="#FBE600"/>
<path fill-rule="evenodd" clip-rule="evenodd" d="M111 131C102.583 126.75 94.5832 118.417 89.2499 110.75C84.9999 104.583 81.4165 97.25 80.1665 89.75C79.4165 85.0833 78.9999 80.25 79.3332 75.5C80.1665 61 87.4165 49.9167 98.0832 40.4167C98.2499 40.25 98.5832 40.25 98.7499 40.4167C98.9166 40.6667 98.9166 40.9167 98.7499 41.0833C88.2499 50.5 81.1665 61.25 80.3332 75.5833C79.9999 80.25 80.4165 85 81.1665 89.5833C82.3332 96.9167 85.8332 104.167 90.0832 110.25C95.2499 117.75 103.167 126 111.5 130.083C111.667 130.25 111.833 130.5 111.667 130.75C111.583 131 111.25 131.083 111 131Z" fill="black"/>
<path fill-rule="evenodd" clip-rule="evenodd" d="M98.0833 41.3333C100.167 41.1667 101.333 41.25 103.25 40C104.5 39.25 106.25 37.6667 107.75 35.9167C103.917 34.9167 101.583 36.0833 100.583 37.0833C99.4166 38.25 98.4999 39.25 98.0833 41.3333Z" fill="#FBE600"/>
</svg>
