<svg width="130" height="164" viewBox="0 0 130 164" fill="none" xmlns="http://www.w3.org/2000/svg">
<circle cx="43.7667" cy="10.8333" r="1.73333" fill="#FFC630"/>
<path d="M45.5 4.76666C45.5 5.72395 44.724 6.49999 43.7667 6.49999C42.8094 6.49999 42.0333 5.72395 42.0333 4.76666C42.0333 3.80937 42.8094 3.03333 43.7667 3.03333C44.724 3.03333 45.5 3.80937 45.5 4.76666Z" fill="#FFC630"/>
<circle cx="43.7667" cy="7.80001" r="1.73333" fill="#FFC630"/>
<circle cx="43.7667" cy="1.73333" r="1.73333" fill="#FFC630"/>
<path d="M99.5062 42.6111C116.347 42.6111 130 56.2637 130 73.105H99.5062V42.6111Z" fill="#FFC630"/>
<path d="M69.4722 42.7509H99.6775V72.9562H69.4722V42.7509Z" fill="#1BACE3"/>
<path d="M39.2669 42.7509H69.4722V72.9562H39.2669V42.7509Z" fill="#009B4C"/>
<path d="M39.2669 72.9562H69.4722V103.162H39.2669V72.9562Z" fill="#16A75C"/>
<path d="M39.2669 103.162H69.4722V133.367H39.2669V103.162Z" fill="#009B4C"/>
<path d="M9.06158 42.7509H39.2669V72.9562H9.06158V42.7509Z" fill="#16A75C"/>
<path d="M69.4722 133.367H99.6775V163.572H69.4722V133.367Z" fill="#16A75C"/>
<path d="M99.6774 103.162H129.883V133.367H99.6774V103.162Z" fill="#16A75C"/>
<path d="M99.6774 72.9562H129.883V103.162H99.6774V72.9562Z" fill="#009B4C"/>
<path d="M99.6774 133.367H129.883C129.883 150.049 116.359 163.572 99.6774 163.572V133.367Z" fill="#009B4C"/>
<rect width="3.20988" height="6.01852" transform="matrix(-1 0 0 1 45.3395 15.7284)" fill="#FFC630"/>
<path d="M6.01855 57.858L3.33786e-05 33.784H6.01855V57.858Z" fill="#FFC630"/>
<path d="M24.0741 24.5556L6.01853 30.5741H24.0741V24.5556Z" fill="#FFC630"/>
<path d="M42.1296 15.7284L24.074 21.7469H42.1296V15.7284Z" fill="#FFC630"/>
<path d="M45.3395 15.7284L63.3951 21.7469H45.3395V15.7284Z" fill="#FFC630"/>
<path d="M63.3951 24.5556L81.4507 30.5741H63.3951V24.5556Z" fill="#FFC630"/>
<path d="M81.4506 33.784L99.5062 39.8025H81.4506V33.784Z" fill="#FFC630"/>
<rect width="75.4321" height="6.01852" transform="matrix(-1 0 0 1 81.4506 33.784)" fill="#FFC630"/>
<rect width="39.321" height="6.01852" transform="matrix(-1 0 0 1 63.3951 24.5556)" fill="#FFC630"/>
</svg>
