<?xml version="1.0" encoding="UTF-8"?>
<svg width="700pt" height="700pt" version="1.1" viewBox="0 0 700 700" xmlns="http://www.w3.org/2000/svg">
 <g>
  <path d="m386.82 262.85 232.77-129.31v-0.003906c-6.4648-23.238-20.34-43.734-39.523-58.359-19.18-14.629-42.613-22.59-66.738-22.676h-326.66c-24.129 0.082031-47.566 8.0469-66.75 22.68-19.18 14.633-33.055 35.133-39.512 58.379l232.77 129.29v0.003906c22.875 12.809 50.766 12.809 73.641 0z"/>
  <path d="m350 307.49c-18.844-0.015625-37.367-4.832-53.828-14l-220.34-122.45v225.63c0.039063 29.383 11.727 57.551 32.504 78.328 20.777 20.777 48.949 32.469 78.332 32.504h326.66c29.383-0.035156 57.555-11.727 78.332-32.504 20.777-20.777 32.465-48.945 32.504-78.328v-225.63l-220.34 122.43h-0.003906c-16.457 9.1758-34.984 14-53.828 14.023z"/>
 </g>
</svg>
