<svg width="151" height="125" viewBox="0 0 151 125" fill="none" xmlns="http://www.w3.org/2000/svg">
<path d="M85.4725 57.7427L149.148 22.3691V22.368C147.38 16.0111 143.584 10.4043 138.337 6.40352C133.09 2.40165 126.679 0.223866 120.08 0.20034H30.7198C24.1192 0.22278 17.7078 2.40162 12.4599 6.40461C7.21308 10.4076 3.41748 16.0155 1.65112 22.3746L65.327 57.7428V57.7438C71.5846 61.2478 79.2143 61.2478 85.472 57.7438L85.4725 57.7427Z" fill="black"/>
<path d="M75.4002 69.9543C70.2453 69.95 65.1782 68.6325 60.6752 66.1245L0.399658 32.6275V94.3501C0.410344 102.388 3.60766 110.094 9.29135 115.777C14.975 121.461 22.6817 124.659 30.7196 124.669H120.08C128.118 124.659 135.824 121.461 141.508 115.777C147.192 110.094 150.389 102.388 150.4 94.3501V32.6275L90.1241 66.119H90.1231C85.6211 68.6291 80.5529 69.9488 75.398 69.9551L75.4002 69.9543Z" fill="black"/>
</svg>
