<svg width="151" height="137" viewBox="0 0 151 137" fill="none" xmlns="http://www.w3.org/2000/svg">
<path d="M147.155 15.0821L105.991 1.40748C105.763 1.30236 105.531 1.20892 105.294 1.12833H105.224C104.187 0.755747 103.052 0.755747 102.014 1.12833H101.944L60.9209 14.8029H5.9433C4.55808 14.8111 3.23242 15.3659 2.25241 16.3446C1.27366 17.3246 0.718856 18.6502 0.710693 20.0355V131.662C0.718869 133.047 1.27366 134.373 2.25241 135.352C3.23233 136.332 4.55799 136.885 5.9433 136.895H61.7581H61.757C62.1097 136.883 62.4601 136.836 62.8035 136.756C63.0196 136.742 63.231 136.695 63.4319 136.616L63.7811 136.477L103.617 123.22L143.803 136.616H143.804C144.34 136.81 144.908 136.904 145.478 136.895C146.869 136.904 148.205 136.356 149.189 135.373C150.172 134.39 150.72 133.053 150.711 131.662V20.0357C150.705 18.9425 150.359 17.8785 149.721 16.9907C149.085 16.1042 148.187 15.4361 147.153 15.0822L147.155 15.0821ZM66.9921 23.8022L98.3874 13.3371V113.943L66.9921 124.408V23.8022Z" fill="black"/>
</svg>
