<?xml version="1.0" encoding="UTF-8"?>
<svg width="700pt" height="700pt" version="1.1" viewBox="0 0 700 700" xmlns="http://www.w3.org/2000/svg">
 <path d="m588.93 100.1-137.67-45.734c-0.76172-0.35156-1.5391-0.66406-2.332-0.93359h-0.23438c-3.4688-1.2461-7.2617-1.2461-10.734 0h-0.23438l-137.2 45.734h-183.87c-4.6328 0.027343-9.0664 1.8828-12.344 5.1562-3.2734 3.2773-5.1289 7.7109-5.1562 12.344v373.33c0.027343 4.6328 1.8828 9.0664 5.1562 12.34 3.2773 3.2773 7.7109 5.1289 12.344 5.1602h186.67-0.003907c1.1797-0.039062 2.3516-0.19531 3.5-0.46484 0.72266-0.046875 1.4297-0.20312 2.1016-0.46875l1.168-0.46484 133.23-44.336 134.4 44.801h0.003906c1.793 0.64844 3.6914 0.96484 5.5977 0.93359 4.6523 0.03125 9.1211-1.8008 12.41-5.0898 3.2891-3.2891 5.1211-7.7578 5.0898-12.41v-373.33c-0.019531-3.6562-1.1758-7.2148-3.3086-10.184-2.1289-2.9648-5.1328-5.1992-8.5898-6.3828zm-268.1 29.164 105-35v336.47l-105 35z"/>
</svg>
