<?xml version="1.0" encoding="UTF-8"?>
<svg width="700pt" height="700pt" version="1.1" viewBox="0 0 700 700" xmlns="http://www.w3.org/2000/svg">
 <path d="m564.04 64.836c-8.4648-6.6953-19.574-9.0547-30.031-6.3672l-256.15 64.031h-67.863c-23.199 0.027344-45.438 9.2539-61.84 25.66-16.406 16.402-25.633 38.641-25.66 61.84v35c0.058594 20.625 7.4023 40.562 20.73 56.301 13.328 15.734 31.789 26.258 52.121 29.711l26.898 134.84c3.6328 18.152 16.672 32.988 34.211 38.918 17.539 5.9297 36.906 2.0547 50.812-10.168 13.902-12.223 20.23-30.934 16.598-49.086l-21.367-106.75 231.53 57.785c2.793 0.69141 5.6602 1.0469 8.5391 1.0508 9.2812 0 18.184-3.6875 24.75-10.254 6.5625-6.5625 10.25-15.465 10.25-24.746v-270.18c0.015626-10.797-4.9805-20.984-13.527-27.582z"/>
</svg>
