<svg width="151" height="149" viewBox="0 0 151 149" fill="none" xmlns="http://www.w3.org/2000/svg">
<path d="M145.74 2.54026C142.95 0.33337 139.288 -0.444331 135.841 0.441518L51.4094 21.5473H29.0406C21.3937 21.5563 14.0634 24.5975 8.65698 30.0053C3.24926 35.4117 0.207874 42.7421 0.198975 50.3889V61.9255C0.218288 68.7239 2.63891 75.2955 7.03196 80.4833C11.4251 85.6695 17.5102 89.1384 24.212 90.2766L33.078 134.722C34.2755 140.706 38.5734 145.596 44.3546 147.55C50.1358 149.505 56.5195 148.228 61.1032 144.199C65.6855 140.17 67.7713 134.002 66.5742 128.019L59.5312 92.8325L135.848 111.879C136.768 112.107 137.713 112.225 138.662 112.226C141.722 112.226 144.656 111.01 146.82 108.846C148.983 106.683 150.199 103.748 150.199 100.689V11.633C150.204 8.07409 148.557 4.71627 145.74 2.54145L145.74 2.54026Z" fill="black"/>
</svg>
