<?xml version="1.0" encoding="UTF-8"?>
<svg width="700pt" height="700pt" version="1.1" viewBox="0 0 700 700" xmlns="http://www.w3.org/2000/svg">
 <g>
  <path d="m175 52.5h105c28.996 0 52.5 28.996 52.5 52.5v105c0 28.996-23.504 52.5-52.5 52.5h-105c-28.996 0-52.5-28.996-52.5-52.5v-105c0-28.996 23.504-52.5 52.5-52.5z"/>
  <path d="m175 297.5h105c28.996 0 52.5 28.996 52.5 52.5v105c0 28.996-23.504 52.5-52.5 52.5h-105c-28.996 0-52.5-28.996-52.5-52.5v-105c0-28.996 23.504-52.5 52.5-52.5z"/>
  <path d="m420 52.5h105c28.996 0 52.5 28.996 52.5 52.5v105c0 28.996-23.504 52.5-52.5 52.5h-105c-28.996 0-52.5-28.996-52.5-52.5v-105c0-28.996 23.504-52.5 52.5-52.5z"/>
  <path d="m577.5 402.5c0 57.988-47.012 105-105 105s-105-47.012-105-105 47.012-105 105-105 105 47.012 105 105"/>
 </g>
</svg>
