<svg width="131" height="151" viewBox="0 0 131 151" fill="none" xmlns="http://www.w3.org/2000/svg">
<path d="M32.189 80.578H0.549977V130.721C0.520985 134.254 1.44654 137.728 3.22963 140.777C5.01384 143.825 7.5888 146.336 10.6811 148.04C13.7453 149.788 17.2258 150.674 20.7517 150.607C24.2787 150.541 27.7224 149.522 30.7176 147.66L120.956 92.5268C126.848 88.9204 130.442 82.5096 130.442 75.6014C130.442 68.6932 126.848 62.2812 120.956 58.676L30.7261 3.52254C26.6995 1.06145 21.9278 0.115707 17.2666 0.857395C12.6054 1.59897 8.36244 3.97876 5.29788 7.5683C2.23475 11.1578 0.551889 15.7231 0.551889 20.4426V70.5859H32.1909C33.9762 70.5859 35.6254 71.5383 36.5175 73.0838C37.4096 74.6294 37.4096 76.5341 36.5175 78.0796C35.6254 79.6252 33.9762 80.5775 32.1909 80.5775L32.189 80.578Z" fill="black"/>
</svg>
