<svg width="151" height="151" viewBox="0 0 151 151" fill="none" xmlns="http://www.w3.org/2000/svg">
<path d="M5.31536 0.00891732C3.89126 0.0622822 2.56862 0.759165 1.72001 1.90492C0.872449 3.04963 0.591 4.51874 0.957204 5.89564L16.5764 64.4385L85.5473 74.9952L16.5871 85.5425L0.958543 144.101C0.643582 145.272 0.795309 146.521 1.38127 147.582C1.96828 148.644 2.94244 149.438 4.10175 149.796C5.26007 150.154 6.51257 150.049 7.59556 149.503L148.227 79.187C149.268 78.6638 150.076 77.7734 150.495 76.6862C150.915 75.6001 150.915 74.3968 150.495 73.3105C150.076 72.2244 149.268 71.3329 148.227 70.8097L7.59556 0.494055C6.88927 0.142477 6.1045 -0.0238967 5.31659 0.0085423L5.31536 0.00891732Z" fill="black"/>
</svg>
