<?xml version="1.0" encoding="UTF-8"?>
<svg width="700pt" height="700pt" version="1.1" viewBox="0 0 700 700" xmlns="http://www.w3.org/2000/svg">
 <path d="m233.33 297.5h-110.83v175.65c-0.10156 12.375 3.1406 24.543 9.3867 35.223 6.25 10.68 15.27 19.473 26.102 25.445 10.734 6.1211 22.926 9.2266 35.277 8.9922 12.355-0.23438 24.418-3.8008 34.91-10.324l316.1-193.13c20.641-12.633 33.23-35.09 33.23-59.289 0-24.199-12.59-46.66-33.23-59.289l-316.07-193.2c-14.105-8.6211-30.82-11.934-47.148-9.3359-16.328 2.5977-31.191 10.934-41.926 23.508-10.73 12.574-16.625 28.566-16.625 45.098v175.65h110.83c6.2539 0 12.031 3.3359 15.156 8.75s3.125 12.086 0 17.5-8.9023 8.75-15.156 8.75z"/>
</svg>
