<svg width="257" height="151" viewBox="0 0 257 151" fill="none" xmlns="http://www.w3.org/2000/svg">
<path fill-rule="evenodd" clip-rule="evenodd" d="M128.213 3.0594C147.696 3.0594 163.48 18.8499 163.48 38.3266C163.48 57.8034 147.694 73.5939 128.213 73.5939C108.736 73.5939 92.9458 57.8034 92.9458 38.3266C92.9458 18.8499 108.736 3.0594 128.213 3.0594Z" fill="black"/>
<path fill-rule="evenodd" clip-rule="evenodd" d="M128.214 79.8229C155.26 79.8229 178.422 99.1722 188.056 126.628C172.565 141.596 151.471 150.803 128.214 150.803C104.956 150.803 83.8625 141.596 68.3706 126.628C78.0053 99.174 101.168 79.8229 128.214 79.8229Z" fill="black"/>
<path fill-rule="evenodd" clip-rule="evenodd" d="M207.358 0.802841C223.332 0.802841 236.276 13.7517 236.276 29.7209C236.276 45.6902 223.332 58.639 207.358 58.639C191.388 58.639 178.44 45.6902 178.44 29.7209C178.44 13.7517 191.389 0.802841 207.358 0.802841Z" fill="black"/>
<path fill-rule="evenodd" clip-rule="evenodd" d="M207.358 63.7485C229.539 63.7485 248.529 79.6108 256.427 102.121C243.728 114.394 226.431 121.944 207.358 121.944C204.032 121.944 200.764 121.715 197.562 121.267C191.781 105.843 181.877 92.2275 169.091 82.7701C178.736 71.0462 192.316 63.7453 207.358 63.7453L207.358 63.7485Z" fill="black"/>
<path fill-rule="evenodd" clip-rule="evenodd" d="M49.0685 0.802841C65.0421 0.802841 77.9866 13.7517 77.9866 29.7209C77.9866 45.6902 65.0421 58.639 49.0685 58.639C33.0989 58.639 20.1504 45.6902 20.1504 29.7209C20.1504 13.7517 33.0993 0.802841 49.0685 0.802841Z" fill="black"/>
<path fill-rule="evenodd" clip-rule="evenodd" d="M49.0687 63.7485C64.1122 63.7485 77.6864 71.0534 87.335 82.7773C74.5495 92.2329 64.65 105.848 58.869 121.267C55.6665 121.715 52.3923 121.944 49.0668 121.944C29.9963 121.944 12.7006 114.394 -0.00244141 102.121C7.89773 79.6092 26.8924 63.7484 49.0668 63.7484L49.0687 63.7485Z" fill="black"/>
</svg>
