<svg width="128" height="151" viewBox="0 0 128 151" fill="none" xmlns="http://www.w3.org/2000/svg">
<path d="M63.937 0.824997C47.1096 0.835299 30.9738 7.52525 19.0753 19.4244C7.17674 31.3236 0.48605 47.4594 0.47583 64.2862C0.47583 98.4402 34.5144 150.825 63.9377 150.825C93.3609 150.825 127.399 98.4402 127.399 64.2862C127.389 47.4587 120.699 31.3229 108.8 19.4244C96.9009 7.52591 80.7651 0.835217 63.9383 0.824997H63.937ZM63.937 93.1331C56.2863 93.1331 48.9498 90.0939 43.5399 84.6839C38.13 79.274 35.0907 71.9375 35.0907 64.2868C35.0907 56.6361 38.1299 49.2996 43.5399 43.8897C48.9498 38.4798 56.2863 35.4405 63.937 35.4405C71.5877 35.4405 78.9242 38.4797 84.3341 43.8897C89.744 49.2997 92.7833 56.6361 92.7833 64.2868C92.7833 71.9375 89.7441 79.274 84.3341 84.6839C78.9241 90.0939 71.5877 93.1331 63.937 93.1331Z" fill="black"/>
</svg>
