<svg width="102" height="125" viewBox="0 0 102 125" fill="none" xmlns="http://www.w3.org/2000/svg">
<path d="M0.910024 109.147V16.0502C0.910968 12.2947 2.27559 8.66679 4.75115 5.84232C7.22676 3.01784 10.6444 1.1883 14.3677 0.695059C18.092 0.202762 21.867 1.07888 24.9925 3.16125L94.8185 49.7087C99.1302 52.5805 101.72 57.4175 101.72 62.5978C101.72 67.7782 99.1302 72.6152 94.8185 75.487L24.966 122.034H24.965C21.8407 124.12 18.0635 124.997 14.3393 124.505C10.615 124.013 7.19636 122.183 4.72075 119.358C2.24514 116.532 0.880582 112.902 0.882513 109.145L0.910024 109.147Z" fill="black"/>
</svg>
