<svg width="146" height="159" viewBox="0 0 146 159" fill="none" xmlns="http://www.w3.org/2000/svg">
<g filter="url(#filter0_d_356_12)">
<path d="M47.7774 140.584C46.0666 140.584 44.4862 141.496 43.6314 142.978C42.7765 144.459 42.7765 146.284 43.6314 147.765C44.4862 149.246 46.0666 150.158 47.7774 150.158H98.8418H98.8407C100.552 150.158 102.132 149.246 102.987 147.765C103.842 146.284 103.842 144.459 102.987 142.978C102.132 141.496 100.551 140.584 98.8407 140.584H90.8628V99.0939H137.137C138.405 99.0854 139.617 98.5789 140.514 97.6823C141.409 96.7869 141.917 95.574 141.925 94.3066V43.2422C141.918 35.2033 138.722 27.4959 133.037 21.8109C127.353 16.1272 119.645 12.9299 111.606 12.9236H97.2443V32.9027C101.538 34.4201 104.857 37.8844 106.189 42.2388C107.523 46.5933 106.712 51.3216 104.003 54.9826C101.295 58.6447 97.0112 60.8041 92.4571 60.8041C87.9029 60.8041 83.6188 58.6446 80.9111 54.9826C78.2023 51.3216 77.3913 46.5933 78.7248 42.2388C80.0574 37.8844 83.3764 34.4201 87.6698 32.9027V12.9236H31.8182C24.6289 12.9386 17.7375 15.8014 12.6532 20.8854C7.56893 25.9697 4.70618 32.8608 4.69141 40.0512V94.3053C4.69889 95.5726 5.20645 96.7854 6.10191 97.6809C6.99843 98.5775 8.21126 99.084 9.47867 99.0925H55.7532V140.583L47.7774 140.584ZM49.3727 89.5195H14.2675V40.0526C14.2675 33.7811 17.6131 27.9864 23.0437 24.8512C28.4743 21.7149 35.1654 21.7149 40.5971 24.8512C46.0277 27.9864 49.3733 33.7814 49.3733 40.0526L49.3727 89.5195Z" fill="black"/>
<path d="M92.4571 51.2219C93.7244 51.2133 94.9372 50.7068 95.8327 49.8103C96.7293 48.9148 97.2358 47.702 97.2443 46.4346C97.2369 45.8875 97.1279 45.3468 96.9248 44.8392C96.4963 43.589 95.5645 42.576 94.3549 42.046C93.1453 41.5149 91.769 41.5149 90.5593 42.046C89.3497 42.576 88.4179 43.589 87.9894 44.8392C87.7864 45.3468 87.6774 45.8875 87.6699 46.4346C87.6785 47.7019 88.185 48.9147 89.0815 49.8103C89.977 50.7068 91.1898 51.2133 92.4572 51.2219H92.4571Z" fill="black"/>
<path d="M97.2443 4.94517C97.2443 3.23546 96.3318 1.65513 94.8507 0.800275C93.3697 -0.0556503 91.5445 -0.0556503 90.0635 0.800275C88.5825 1.65513 87.6699 3.23554 87.6699 4.94517V12.9242H97.2443V4.94517Z" fill="black"/>
<path d="M35.0105 76.7527H28.628C26.9172 76.7527 25.3368 77.6653 24.482 79.1463C23.6271 80.6274 23.6271 82.4525 24.482 83.9335C25.3368 85.4146 26.9172 86.3271 28.628 86.3271H35.0105C36.7213 86.3271 38.3017 85.4146 39.1565 83.9335C40.0114 82.4525 40.0114 80.6273 39.1565 79.1463C38.3017 77.6653 36.7213 76.7527 35.0105 76.7527Z" fill="black"/>
</g>
<defs>
<filter id="filter0_d_356_12" x="0.691406" y="0.158331" width="145.233" height="158" filterUnits="userSpaceOnUse" color-interpolation-filters="sRGB">
<feFlood flood-opacity="0" result="BackgroundImageFix"/>
<feColorMatrix in="SourceAlpha" type="matrix" values="0 0 0 0 0 0 0 0 0 0 0 0 0 0 0 0 0 0 127 0" result="hardAlpha"/>
<feOffset dy="4"/>
<feGaussianBlur stdDeviation="2"/>
<feComposite in2="hardAlpha" operator="out"/>
<feColorMatrix type="matrix" values="0 0 0 0 0 0 0 0 0 0 0 0 0 0 0 0 0 0 0.25 0"/>
<feBlend mode="normal" in2="BackgroundImageFix" result="effect1_dropShadow_356_12"/>
<feBlend mode="normal" in="SourceGraphic" in2="effect1_dropShadow_356_12" result="shape"/>
</filter>
</defs>
</svg>
