<?xml version="1.0" encoding="UTF-8"?>
<svg width="700pt" height="700pt" version="1.1" viewBox="0 0 700 700" xmlns="http://www.w3.org/2000/svg">
 <g>
  <path d="m256.67 519.17c-6.2539 0-12.031 3.3359-15.156 8.75-3.125 5.4141-3.125 12.086 0 17.5 3.125 5.4141 8.9023 8.75 15.156 8.75h186.67-0.003907c6.2539 0 12.031-3.3359 15.156-8.75 3.125-5.4141 3.125-12.086 0-17.5-3.125-5.4141-8.9023-8.75-15.156-8.75h-29.164v-151.67h169.16c4.6328-0.03125 9.0664-1.8828 12.344-5.1602 3.2734-3.2734 5.1289-7.707 5.1562-12.34v-186.67c-0.023437-29.387-11.707-57.562-32.488-78.344-20.781-20.777-48.957-32.465-78.344-32.488h-52.5v73.035c15.695 5.5469 27.828 18.211 32.699 34.129 4.875 15.918 1.9102 33.203-7.9922 46.586-9.8984 13.387-25.559 21.281-42.207 21.281s-32.309-7.8945-42.207-21.281c-9.9023-13.383-12.867-30.668-7.9922-46.586 4.8711-15.918 17.004-28.582 32.699-34.129v-73.035h-204.17c-26.281 0.054688-51.473 10.52-70.059 29.105-18.586 18.586-29.051 43.777-29.105 70.062v198.33c0.027343 4.6328 1.8828 9.0664 5.1562 12.34 3.2773 3.2773 7.7109 5.1289 12.344 5.1602h169.16v151.67zm5.832-186.67h-128.33v-180.83c0-22.926 12.23-44.109 32.082-55.57 19.852-11.465 44.312-11.465 64.168 0 19.852 11.461 32.082 32.645 32.082 55.57z"/>
  <path d="m420 192.5c4.6328-0.03125 9.0664-1.8828 12.34-5.1602 3.2773-3.2734 5.1289-7.707 5.1602-12.34-0.027344-2-0.42578-3.9766-1.168-5.832-1.5664-4.5703-4.9727-8.2734-9.3945-10.211-4.4219-1.9414-9.4531-1.9414-13.875 0-4.4219 1.9375-7.8281 5.6406-9.3945 10.211-0.74219 1.8555-1.1406 3.832-1.168 5.832 0.03125 4.6328 1.8828 9.0664 5.1602 12.34 3.2734 3.2773 7.707 5.1289 12.34 5.1602z"/>
  <path d="m437.5 23.332c0-6.25-3.3359-12.027-8.75-15.152-5.4141-3.1289-12.086-3.1289-17.5 0-5.4141 3.125-8.75 8.9023-8.75 15.152v29.168h35z"/>
  <path d="m210 285.83h-23.332c-6.2539 0-12.031 3.3359-15.156 8.75-3.125 5.4141-3.125 12.086 0 17.5 3.125 5.4141 8.9023 8.75 15.156 8.75h23.332c6.2539 0 12.031-3.3359 15.156-8.75 3.125-5.4141 3.125-12.086 0-17.5-3.125-5.4141-8.9023-8.75-15.156-8.75z"/>
 </g>
</svg>
