<?xml version="1.0" encoding="UTF-8"?>
<svg width="700pt" height="700pt" version="1.1" viewBox="0 0 700 700" xmlns="http://www.w3.org/2000/svg">
 <g>
  <path d="m128.33 530.83c13.918-0.015625 27.262-5.5547 37.105-15.395 9.8398-9.8438 15.379-23.188 15.395-37.105v-396.66c0-18.758-10.004-36.09-26.25-45.469-16.242-9.3789-36.254-9.3789-52.5 0-16.242 9.3789-26.25 26.711-26.25 45.469v396.67-0.003907c0.019531 13.918 5.5586 27.262 15.398 37.105 9.8438 9.8398 23.184 15.379 37.102 15.395z"/>
  <path d="m624.17 472.8v-385.61c-0.003907-15.555-5.6562-30.582-15.91-42.281-10.254-11.699-24.41-19.277-39.832-21.32-15.426-2.0391-31.062 1.5898-44.008 10.215l-289.22 192.8c-17.859 11.895-28.586 31.93-28.586 53.387s10.727 41.492 28.586 53.387l289.33 192.8h0.003906c12.941 8.6367 28.586 12.273 44.012 10.234 15.426-2.0391 29.586-9.6172 39.84-21.32 10.254-11.707 15.906-26.742 15.898-42.301z"/>
 </g>
</svg>
