<svg width="116" height="151" viewBox="0 0 116 151" fill="none" xmlns="http://www.w3.org/2000/svg">
<path d="M0 116.182V133.483C0 138.073 1.82282 142.472 5.06685 145.718C8.31218 148.962 12.7121 150.785 17.3015 150.785H98.0416C102.631 150.785 107.031 148.962 110.276 145.718C113.52 142.473 115.343 138.073 115.343 133.483V116.182C115.329 104.65 111.86 93.3861 105.383 83.8433C98.908 74.3017 89.7217 66.9178 79.01 62.6452C86.6233 56.6915 91.4005 47.8256 92.1831 38.1928C92.9671 28.56 89.6858 19.0376 83.1346 11.9315C76.5835 4.82536 67.36 0.784729 57.6949 0.784729C48.0298 0.784729 38.805 4.82569 32.2539 11.9315C25.7027 19.0373 22.4227 28.5597 23.2054 38.1928C23.9893 47.8256 28.7666 56.6915 36.3799 62.6452C25.6592 66.9112 16.4637 74.2915 9.97981 83.8344C3.49424 93.3772 0.0184545 104.644 0.000658741 116.182H0Z" fill="black"/>
</svg>
