<?xml version="1.0" encoding="UTF-8"?>
<svg width="700pt" height="700pt" version="1.1" viewBox="0 0 700 700" xmlns="http://www.w3.org/2000/svg">
 <path d="m175 402.5v52.5c0 13.926 5.5312 27.277 15.375 37.125 9.8477 9.8438 23.199 15.375 37.125 15.375h245c13.926 0 27.277-5.5312 37.125-15.375 9.8438-9.8477 15.375-23.199 15.375-37.125v-52.5c-0.042969-34.992-10.57-69.172-30.223-98.129-19.648-28.953-47.523-51.359-80.027-64.324 23.102-18.066 37.598-44.969 39.973-74.199 2.3789-29.23-7.5781-58.125-27.457-79.688s-47.867-33.824-77.195-33.824c-29.328 0-57.32 12.262-77.199 33.824s-29.832 50.457-27.457 79.688c2.3789 29.23 16.875 56.133 39.977 74.199-32.531 12.945-60.434 35.34-80.109 64.297-19.68 28.957-30.227 63.145-30.281 98.156z"/>
</svg>
