<svg width="151" height="151" viewBox="0 0 151 151" fill="none" xmlns="http://www.w3.org/2000/svg">
<path d="M56.3081 111.623C68.9804 111.629 81.2676 107.269 91.1012 99.2745L100.533 108.708L96.4118 112.829C95.3187 113.922 94.7044 115.406 94.7044 116.952C94.7044 118.498 95.3187 119.98 96.4118 121.073L121.055 145.721V145.722C125.473 150.142 131.915 151.869 137.952 150.251C143.988 148.635 148.704 143.92 150.323 137.883C151.941 131.847 150.217 125.405 145.797 120.986L121.142 96.3422C120.049 95.2491 118.567 94.6348 117.021 94.6348C115.475 94.6348 113.992 95.2491 112.899 96.3422L108.777 100.463L99.3441 91.0303V91.0316C107.229 81.2612 111.557 69.1003 111.618 56.5449C111.681 43.9909 107.474 31.7887 99.6865 21.9417C91.8994 12.0934 80.9967 5.18579 68.7658 2.35144C56.536 -0.48285 43.7061 0.923867 32.3803 6.34245C21.0563 11.7613 11.9092 20.869 6.44375 32.1698C0.976929 43.4719 -0.485889 56.2964 2.29649 68.5386C5.07874 80.7815 11.9406 91.7138 21.7552 99.5426C31.5698 107.37 43.7541 111.631 56.3084 111.622L56.3081 111.623ZM56.3081 12.5136C67.9043 12.5136 79.0265 17.1202 87.2264 25.3198C95.426 33.5194 100.033 44.6419 100.033 56.2382C100.033 67.8344 95.426 78.9566 87.2264 87.1565C79.0269 95.3561 67.9043 99.9628 56.3081 99.9628C44.7118 99.9628 33.5896 95.3561 25.3897 87.1565C17.1902 78.957 12.5835 67.8344 12.5835 56.2382C12.5952 44.6459 17.2072 33.5314 25.4041 25.3341C33.601 17.1369 44.7158 12.5253 56.3081 12.5136V12.5136Z" fill="black"/>
</svg>
