<?xml version="1.0" encoding="UTF-8"?>
<svg width="700pt" height="700pt" version="1.1" viewBox="0 0 700 700" xmlns="http://www.w3.org/2000/svg">
 <path d="m288.75 385c38.039 0.019531 74.922-13.07 104.44-37.066l28.312 28.316-12.371 12.371c-3.2812 3.2812-5.125 7.7344-5.125 12.375s1.8438 9.0898 5.125 12.371l73.973 73.988v0.003906c13.262 13.266 32.598 18.449 50.719 13.594 18.121-4.8516 32.277-19.004 37.137-37.125 4.8555-18.121-0.32031-37.457-13.586-50.723l-74.008-73.973c-3.2812-3.2812-7.7305-5.125-12.371-5.125s-9.0938 1.8438-12.375 5.125l-12.371 12.371-28.316-28.316v0.003906c23.668-29.328 36.66-65.832 36.844-103.52 0.1875-37.684-12.441-74.312-35.816-103.87-23.375-29.562-56.102-50.297-92.816-58.805-36.711-8.5078-75.223-4.2852-109.22 11.98-33.992 16.266-61.449 43.605-77.855 77.527-16.41 33.926-20.801 72.422-12.449 109.17 8.3516 36.75 28.949 69.566 58.41 93.066 29.461 23.496 66.035 36.285 103.72 36.258zm0-297.5c34.809 0 68.195 13.828 92.809 38.441 24.613 24.613 38.441 58 38.441 92.809s-13.828 68.195-38.441 92.809c-24.613 24.613-58 38.441-92.809 38.441s-68.195-13.828-92.809-38.441c-24.613-24.613-38.441-58-38.441-92.809 0.035156-34.797 13.879-68.16 38.484-92.766s57.969-38.449 92.766-38.484z"/>
</svg>
