<?xml version="1.0" encoding="UTF-8"?>
<svg width="700pt" height="700pt" version="1.1" viewBox="0 0 700 700" xmlns="http://www.w3.org/2000/svg">
 <g>
  <path d="m433.3 285.6c-17.914 11.426-38.719 17.5-59.969 17.5-21.246 0-42.051-6.0742-59.965-17.5l-188.54-121.34c-1.6055 7.3594-2.3906 14.871-2.332 22.402v122.5h-5.832c-6.2539 0-12.031 3.3359-15.156 8.75-3.125 5.4141-3.125 12.086 0 17.5 3.125 5.4141 8.9023 8.75 15.156 8.75h93.332c6.2539 0 12.031 3.3359 15.156 8.75 3.125 5.4141 3.125 12.086 0 17.5-3.125 5.4141-8.9023 8.75-15.156 8.75h-70c-6.2539 0-12.031 3.3359-15.156 8.75-3.125 5.4141-3.125 12.086 0 17.5 3.125 5.4141 8.9023 8.75 15.156 8.75h93.332c6.2539 0 12.031 3.3359 15.156 8.75 3.125 5.4141 3.125 12.086 0 17.5-3.125 5.4141-8.9023 8.75-15.156 8.75h-140c-6.25 0-12.027 3.3359-15.152 8.75-3.1289 5.4141-3.1289 12.086 0 17.5 3.125 5.4141 8.9023 8.75 15.152 8.75h420c29.387-0.027344 57.566-11.711 78.344-32.492 20.781-20.777 32.465-48.957 32.492-78.344v-186.66c0.054687-7.5312-0.72656-15.043-2.3359-22.402z"/>
  <path d="m414.33 256.18 194.39-124.97c-19.641-34.148-55.988-55.246-95.387-55.371h-280c-39.395 0.125-75.742 21.223-95.387 55.371l194.39 124.97c12.238 7.8398 26.465 12.008 40.996 12.008 14.535 0 28.762-4.168 40.996-12.008z"/>
 </g>
</svg>
