<svg width="151" height="112" viewBox="0 0 151 112" fill="none" xmlns="http://www.w3.org/2000/svg">
<path d="M98.7862 57.383C93.8858 60.5086 88.1945 62.1702 82.3814 62.1702C76.5695 62.1702 70.8782 60.5085 65.9778 57.383L14.4018 24.1899C13.9626 26.2031 13.7479 28.2579 13.7639 30.318V63.8284H12.1685C10.4578 63.8284 8.87741 64.741 8.02256 66.222C7.1677 67.7031 7.1677 69.5282 8.02256 71.0092C8.87741 72.4903 10.4578 73.4028 12.1685 73.4028H37.6999C39.4107 73.4028 40.991 74.3154 41.8459 75.7964C42.7008 77.2775 42.7008 79.1026 41.8459 80.5836C40.991 82.0647 39.4106 82.9772 37.6999 82.9772H18.5511C16.8403 82.9772 15.26 83.8898 14.4051 85.3708C13.5503 86.8519 13.5503 88.677 14.4051 90.158C15.26 91.6391 16.8404 92.5516 18.5511 92.5516H44.0825C45.7933 92.5516 47.3736 93.4642 48.2285 94.9452C49.0833 96.4263 49.0833 98.2514 48.2285 99.7324C47.3736 101.213 45.7932 102.126 44.0825 102.126H5.78488C4.07517 102.126 2.49485 103.039 1.63999 104.52C0.784066 106.001 0.784066 107.826 1.63999 109.307C2.49485 110.788 4.07525 111.7 5.78488 111.7H120.678C128.717 111.693 136.425 108.497 142.109 102.812C147.794 97.1285 150.99 89.4197 150.997 81.3808V30.3191C151.012 28.2589 150.799 26.2041 150.358 24.191L98.7862 57.383Z" fill="black"/>
<path d="M93.597 49.335L146.773 15.1489C141.4 5.80759 131.457 0.036136 120.68 0.00194168H44.0845C33.3078 0.036136 23.3649 5.80759 17.991 15.1489L71.1672 49.335C74.5149 51.4796 78.4068 52.6198 82.3818 52.6198C86.3579 52.6198 90.2498 51.4797 93.5964 49.335H93.597Z" fill="black"/>
</svg>
