<svg width="306" height="143" viewBox="0 0 306 143" fill="none" xmlns="http://www.w3.org/2000/svg">
<path d="M288.465 108.54L17.1352 108.54C11.0755 108.54 5.47696 111.772 2.44714 117.02C-0.580361 122.267 -0.580361 128.731 2.44714 133.977C5.4769 139.226 11.0755 142.458 17.1352 142.458L288.465 142.458C294.524 142.458 300.123 139.226 303.153 133.977C306.18 128.731 306.18 122.267 303.153 117.02C300.123 111.772 294.524 108.54 288.465 108.54V108.54Z" fill="black"/>
<path d="M207.065 0.0102827L98.5351 0.0102827C92.4754 0.0102827 86.8769 3.24223 83.847 8.48869C80.8195 13.7352 80.8195 20.1992 83.847 25.4478C86.8768 30.6942 92.4754 33.9262 98.5351 33.9262L207.07 33.9262H207.068C213.128 33.9262 218.726 30.6942 221.756 25.4478C224.784 20.1991 224.784 13.7349 221.756 8.48869C218.726 3.24223 213.128 0.0102827 207.068 0.0102827H207.065Z" fill="black"/>
<path d="M247.765 54.275L57.8351 54.275C51.7755 54.275 46.1769 57.5069 43.1471 62.7534C40.1196 68.0021 40.1196 74.4663 43.1471 79.7125C46.1769 84.959 51.7755 88.1909 57.8351 88.1909L247.765 88.1909C253.824 88.1909 259.423 84.959 262.453 79.7125C265.48 74.466 265.48 68.0019 262.453 62.7534C259.423 57.5069 253.824 54.275 247.765 54.275Z" fill="black"/>
</svg>
