<svg width="155" height="85" viewBox="0 0 155 85" fill="none" xmlns="http://www.w3.org/2000/svg">
<path d="M146.389 68H8.61138C5.53435 68 2.69149 69.6199 1.15299 72.2502C-0.384331 74.8801 -0.384331 78.1199 1.15299 80.7493C2.69146 83.3801 5.53435 85 8.61138 85H146.389C149.466 85 152.309 83.3801 153.847 80.7493C155.384 78.1199 155.384 74.8801 153.847 72.2502C152.309 69.6199 149.466 68 146.389 68Z" fill="black"/>
<path d="M105.308 0H49.6906C46.5853 0 43.7163 1.61998 42.1636 4.24971C40.6121 6.87947 40.6121 10.1195 42.1636 12.7503C43.7162 15.38 46.5853 17 49.6906 17H105.31H105.309C108.415 17 111.283 15.38 112.836 12.7503C114.388 10.1194 114.388 6.87932 112.836 4.24971C111.283 1.61998 108.415 0 105.309 0H105.308Z" fill="black"/>
<path d="M125.439 34H29.5609C26.5019 34 23.6757 35.62 22.1462 38.2497C20.6179 40.8806 20.6179 44.1207 22.1462 46.7503C23.6757 49.38 26.5019 51 29.5609 51H125.439C128.498 51 131.324 49.38 132.854 46.7503C134.382 44.1205 134.382 40.8805 132.854 38.2497C131.324 35.62 128.498 34 125.439 34Z" fill="black"/>
</svg>
