<svg width="151" height="144" viewBox="0 0 151 144" fill="none" xmlns="http://www.w3.org/2000/svg">
<path d="M4.85422 65.0765L34.0954 86.3211C37.437 88.7477 38.8368 93.0486 37.5625 96.976L26.3868 131.358C23.5356 140.141 33.5876 147.446 41.0633 142.019L70.3045 120.772C73.6461 118.342 78.1661 118.342 81.5077 120.772L110.749 142.019C118.221 147.446 128.277 140.141 125.425 131.358L114.254 96.976C112.973 93.0483 114.373 88.7476 117.718 86.3211L146.956 65.0765C154.426 59.6457 150.592 47.8269 141.355 47.8269L105.211 47.828C101.083 47.828 97.4145 45.1674 96.1424 41.2398L84.9751 6.8687C82.1206 -1.92147 69.6957 -1.92147 66.838 6.8687L55.6634 41.2425C54.3911 45.1702 50.7364 47.8307 46.6012 47.8307L10.4545 47.8296C1.21823 47.8296 -2.61665 59.6484 4.85287 65.077L4.85422 65.0765Z" fill="black"/>
</svg>
