<svg width="151" height="151" viewBox="0 0 151 151" fill="none" xmlns="http://www.w3.org/2000/svg">
<path d="M99.825 43.0483C97.5751 43.0403 95.4151 43.93 93.823 45.5209C92.2322 47.1105 91.3402 49.2696 91.3447 51.5193C91.3504 53.7692 92.2526 55.9237 93.8514 57.5065C95.474 59.0428 97.624 59.8995 99.8589 59.8995C102.094 59.8995 104.243 59.0428 105.865 57.5065C107.44 55.918 108.32 53.7691 108.309 51.533C108.346 49.2718 107.464 47.0923 105.865 45.4923C104.265 43.8936 102.086 43.0118 99.8246 43.0482L99.825 43.0483Z" fill="black"/>
<path d="M121.546 8.43267C118.322 5.20551 114.29 2.90455 109.872 1.77065C105.454 0.636636 100.812 0.710493 96.4316 1.98541L60.6634 12.37C55.4411 13.8892 50.6812 16.6891 46.8164 20.515L9.82652 57.5077C3.79516 63.5641 0.407715 71.765 0.407715 80.3131C0.407715 88.8616 3.79516 97.061 9.82652 103.118L48.2447 141.537C54.2967 147.578 62.4984 150.971 71.05 150.971C79.6017 150.971 87.8037 147.578 93.8554 141.537L130.848 104.544V104.545C134.674 100.68 137.474 95.9206 138.993 90.6979L149.378 54.9298C150.653 50.5493 150.727 45.9075 149.593 41.4897C148.459 37.0717 146.157 33.039 142.93 29.8153L121.546 8.43267ZM113.061 64.7C108.321 69.2917 101.507 71.0394 95.1417 69.2964C88.7761 67.5544 83.8036 62.582 82.0618 56.2164C80.3187 49.8508 82.0663 43.0375 86.6582 38.2968C90.2283 34.93 94.9509 33.0541 99.8597 33.0541C104.767 33.0541 109.49 34.9301 113.061 38.2968C116.551 41.8047 118.509 46.5509 118.509 51.4984C118.509 56.4459 116.551 61.1921 113.061 64.7Z" fill="black"/>
</svg>
