<?xml version="1.0" encoding="UTF-8"?>
<svg width="700pt" height="700pt" version="1.1" viewBox="0 0 700 700" xmlns="http://www.w3.org/2000/svg">
 <g>
  <path d="m434 166.83c-7.7344-0.027343-15.16 3.0312-20.633 8.5-5.4688 5.4648-8.5352 12.887-8.5195 20.621 0.019532 7.7344 3.1211 15.141 8.6172 20.582 5.5781 5.2812 12.969 8.2266 20.652 8.2266 7.6836 0 15.07-2.9453 20.648-8.2266 5.4141-5.4609 8.4375-12.848 8.4023-20.535 0.125-7.7734-2.9062-15.266-8.4023-20.766-5.5-5.4961-12.992-8.5273-20.766-8.4023z"/>
  <path d="m508.67 47.832c-11.082-11.094-24.945-19.004-40.133-22.902-15.188-3.8984-31.145-3.6445-46.203 0.73828l-122.96 35.699c-17.953 5.2227-34.316 14.848-47.602 28l-127.16 127.17c-20.734 20.82-32.379 49.012-32.379 78.398 0 29.387 11.645 57.574 32.379 78.398l132.07 132.07c20.805 20.77 49 32.434 78.398 32.434 29.398 0 57.594-11.664 78.398-32.434l127.17-127.17v0.003906c13.152-13.285 22.777-29.648 28-47.602l35.699-122.96c4.3828-15.059 4.6367-31.016 0.73828-46.203-3.8984-15.188-11.809-29.051-22.902-40.133zm-29.168 193.43c-16.297 15.785-39.719 21.793-61.602 15.801-21.883-5.9883-38.977-23.082-44.965-44.965-5.9922-21.883 0.015625-45.305 15.801-61.602 12.273-11.574 28.508-18.023 45.383-18.023 16.871 0 33.105 6.4492 45.383 18.023 11.996 12.059 18.727 28.375 18.727 45.383 0 17.008-6.7305 33.324-18.727 45.383z"/>
 </g>
</svg>
