<?xml version="1.0" encoding="UTF-8"?>
<svg width="700pt" height="700pt" version="1.1" viewBox="0 0 700 700" xmlns="http://www.w3.org/2000/svg">
 <g>
  <path d="m270.2 554.17h159.6c27.285-0.019531 53.605-10.098 73.926-28.309 20.316-18.211 33.211-43.273 36.207-70.395l33.133-297.96h-446.13l33.133 297.96c2.9961 27.121 15.891 52.184 36.207 70.395 20.32 18.211 46.641 28.289 73.926 28.309z"/>
  <path d="m606.67 99.168h-145.84v-29.168c-0.011719-17.016-6.7773-33.328-18.805-45.359-12.031-12.031-28.348-18.797-45.359-18.809h-93.336c-17.012 0.011719-33.328 6.7773-45.359 18.809-12.027 12.031-18.793 28.344-18.805 45.359v29.168h-145.84c-6.25 0-12.027 3.3359-15.152 8.75-3.1289 5.4141-3.1289 12.086 0 17.5 3.125 5.4141 8.9023 8.75 15.152 8.75h513.34c6.25 0 12.027-3.3359 15.152-8.75 3.1289-5.4141 3.1289-12.086 0-17.5-3.125-5.4141-8.9023-8.75-15.152-8.75zm-332.5 0v-29.168c0.011719-7.7305 3.0898-15.145 8.5547-20.609 5.4688-5.4688 12.879-8.5469 20.609-8.5586h93.336c7.7305 0.011719 15.141 3.0898 20.609 8.5586 5.4648 5.4648 8.543 12.879 8.5547 20.609v29.168z"/>
 </g>
</svg>
