<svg width="128" height="151" viewBox="0 0 128 151" fill="none" xmlns="http://www.w3.org/2000/svg">
<path d="M127.598 46.379V40.6098C127.598 36.0188 125.775 31.6173 122.53 28.3707C119.283 25.1255 114.882 23.302 110.291 23.302H87.2137C87.2137 15.0576 82.8146 7.43926 75.6752 3.31706C68.5359 -0.805149 59.7376 -0.805149 52.5982 3.31706C45.4589 7.43926 41.0597 15.0576 41.0597 23.302H17.9828C13.3918 23.302 8.99034 25.1255 5.74374 28.3707C2.49853 31.6172 0.675049 36.0188 0.675049 40.6098V46.379C0.675049 50.97 2.49853 55.3715 5.74374 58.6181C8.99024 61.8633 13.3918 63.6867 17.9828 63.6867H110.291C114.882 63.6867 119.283 61.8633 122.53 58.6181C125.775 55.3716 127.598 50.97 127.598 46.379ZM64.1367 11.7636C67.1965 11.7636 70.1315 12.9792 72.2961 15.1427C74.4595 17.3074 75.6752 20.2424 75.6752 23.302H52.5982C52.5982 20.2423 53.8139 17.3073 55.9774 15.1427C58.1421 12.9792 61.077 11.7636 64.1367 11.7636Z" fill="black"/>
<path d="M12.2134 121.379C12.2134 129.03 15.2525 136.366 20.6625 141.776C26.0725 147.186 33.4089 150.225 41.0596 150.225H87.2135C94.8642 150.225 102.201 147.186 107.611 141.776C113.021 136.366 116.06 129.03 116.06 121.379V69.456H12.2134V121.379ZM75.6751 86.7637C75.6751 84.702 76.7748 82.7974 78.5597 81.7672C80.3445 80.737 82.5441 80.737 84.3289 81.7672C86.1138 82.7974 87.2135 84.7021 87.2135 86.7637V121.379C87.2135 123.441 86.1138 125.345 84.3289 126.376C82.544 127.406 80.3445 127.406 78.5597 126.376C76.7748 125.345 75.6751 123.441 75.6751 121.379V86.7637ZM41.0596 86.7637C41.0596 84.702 42.1593 82.7974 43.9442 81.7672C45.7291 80.737 47.9286 80.737 49.7135 81.7672C51.4983 82.7974 52.5981 84.7021 52.5981 86.7637V121.379C52.5981 123.441 51.4983 125.345 49.7135 126.376C47.9286 127.406 45.7291 127.406 43.9442 126.376C42.1594 125.345 41.0596 123.441 41.0596 121.379V86.7637Z" fill="black"/>
</svg>
