<svg width="151" height="151" viewBox="0 0 151 151" fill="none" xmlns="http://www.w3.org/2000/svg">
<path d="M53.3608 150.091H97.02C104.484 150.086 111.684 147.329 117.243 142.347C122.8 137.365 126.328 130.51 127.147 123.09L136.211 41.5822H14.1704L23.2341 123.09C24.0537 130.509 27.5811 137.365 33.1386 142.347C38.6973 147.329 45.8975 150.086 53.3614 150.091H53.3608Z" fill="black"/>
<path d="M145.404 25.6236H105.508V17.6446C105.505 12.9898 103.654 8.52759 100.364 5.23646C97.0731 1.94534 92.6095 0.0944692 87.9561 0.0911865H62.4237C57.77 0.0943923 53.3067 1.94514 50.0156 5.23646C46.7255 8.52759 44.8747 12.9901 44.8714 17.6446V25.6236H4.97628C3.26657 25.6236 1.68625 26.5362 0.831395 28.0172C-0.0245276 29.4983 -0.0245276 31.3234 0.831395 32.8044C1.68625 34.2855 3.26665 35.198 4.97628 35.198H145.402C147.112 35.198 148.692 34.2855 149.547 32.8044C150.403 31.3234 150.403 29.4982 149.547 28.0172C148.692 26.5362 147.112 25.6236 145.402 25.6236H145.404ZM54.4469 25.6236V17.6446C54.4501 15.5299 55.2921 13.5016 56.787 12.0069C58.283 10.5109 60.3101 9.66889 62.4247 9.66568H87.9571C90.0718 9.66889 92.099 10.5109 93.5948 12.0069C95.0897 13.5018 95.9318 15.53 95.935 17.6446V25.6236H54.4469Z" fill="black"/>
</svg>
