<svg width="151" height="218" viewBox="0 0 151 218" fill="none" xmlns="http://www.w3.org/2000/svg">
<path d="M125.5 50.5C125.5 78.1133 103.113 100.5 75.5 100.5C47.8867 100.5 25.5 78.1133 25.5 50.5C25.5 22.8867 47.8867 0.5 75.5 0.5C103.113 0.5 125.5 22.8867 125.5 50.5Z" fill="black"/>
<path d="M8.83333 217.167H142.167C144.376 217.167 146.497 216.289 148.06 214.726C149.622 213.164 150.5 211.043 150.5 208.833V167.167C150.483 151.701 144.33 136.875 133.394 125.939C122.459 115.003 107.631 108.85 92.1667 108.833H58.8333C43.3681 108.85 28.5414 115.003 17.6057 125.939C6.67 136.875 0.516667 151.702 0.5 167.167V208.833C0.5 211.043 1.378 213.164 2.94048 214.726C4.50295 216.289 6.62352 217.167 8.83333 217.167Z" fill="black"/>
</svg>
