<?xml version="1.0" encoding="UTF-8"?>
<svg width="700pt" height="700pt" version="1.1" viewBox="0 0 700 700" xmlns="http://www.w3.org/2000/svg">
 <path d="m559.48 193.46c-5.4688-3.0195-11.645-4.5273-17.891-4.3633-6.2461 0.16016-12.332 1.9883-17.637 5.293l-51.449 32.164v-16.555c0-23.207-9.2188-45.461-25.629-61.871s-38.664-25.629-61.871-25.629h-175c-23.207 0-45.461 9.2188-61.871 25.629s-25.629 38.664-25.629 61.871v140c0 23.207 9.2188 45.461 25.629 61.871s38.664 25.629 61.871 25.629h175c23.207 0 45.461-9.2188 61.871-25.629s25.629-38.664 25.629-61.871v-16.555l51.449 32.164c7.0898 4.4336 15.531 6.1797 23.801 4.9258 8.2656-1.2539 15.809-5.4258 21.266-11.762 5.457-6.332 8.4688-14.414 8.4844-22.773v-112c-0.011719-6.2344-1.6914-12.352-4.8594-17.719-3.168-5.3711-7.7148-9.7969-13.164-12.82zm-314.48 34.039h-35c-6.2539 0-12.031-3.3359-15.156-8.75s-3.125-12.086 0-17.5 8.9023-8.75 15.156-8.75h35c6.2539 0 12.031 3.3359 15.156 8.75s3.125 12.086 0 17.5-8.9023 8.75-15.156 8.75z"/>
</svg>
