<svg width="151" height="105" viewBox="0 0 151 105" fill="none" xmlns="http://www.w3.org/2000/svg">
<path d="M144.784 24.1185C142.981 23.123 140.945 22.6259 138.886 22.68C136.827 22.7328 134.82 23.3355 133.072 24.425L116.11 35.0285V29.5708C116.11 21.9201 113.071 14.5836 107.661 9.17376C102.251 3.76388 94.9149 0.724655 87.2642 0.724655H29.572C21.9213 0.724655 14.5848 3.76382 9.17494 9.17376C3.76506 14.5837 0.72583 21.9201 0.72583 29.5708V75.7246C0.72583 83.3752 3.76499 90.7117 9.17494 96.1216C14.5849 101.531 21.9213 104.571 29.572 104.571H87.2642C94.9149 104.571 102.251 101.532 107.661 96.1216C113.071 90.7116 116.11 83.3752 116.11 75.7246V70.2669L133.072 80.8704C135.409 82.332 138.192 82.9076 140.918 82.4943C143.643 82.0809 146.13 80.7055 147.929 78.6167C149.728 76.5292 150.721 73.8648 150.726 71.1091V34.1861C150.722 32.1308 150.168 30.114 149.124 28.3447C148.079 26.574 146.58 25.1149 144.784 24.1183V24.1185ZM41.1094 35.3401H29.571C27.5092 35.3401 25.6047 34.2403 24.5745 32.4555C23.5443 30.6706 23.5443 28.4711 24.5745 26.6863C25.6047 24.9014 27.5093 23.8016 29.571 23.8016H41.1094C43.1711 23.8016 45.0757 24.9014 46.1059 26.6863C47.1361 28.4711 47.1361 30.6706 46.1059 32.4555C45.0757 34.2403 43.1711 35.3401 41.1094 35.3401Z" fill="black"/>
</svg>
