<?xml version="1.0" encoding="UTF-8"?>
<svg width="700pt" height="700pt" version="1.1" viewBox="0 0 700 700" xmlns="http://www.w3.org/2000/svg">
 <g>
  <path d="m379.17 513.33v-466.66c0-10.422-5.5586-20.051-14.586-25.262-9.0234-5.207-20.141-5.207-29.164 0-9.0273 5.2109-14.586 14.84-14.586 25.262v466.66c0 10.422 5.5586 20.051 14.586 25.262 9.0234 5.207 20.141 5.207 29.164 0 9.0273-5.2109 14.586-14.84 14.586-25.262z"/>
  <path d="m565.83 373.33v-186.66c0-10.422-5.5586-20.051-14.582-25.262-9.0234-5.207-20.141-5.207-29.168 0-9.0234 5.2109-14.582 14.84-14.582 25.262v186.67-0.003907c0 10.422 5.5586 20.051 14.582 25.262 9.0273 5.207 20.145 5.207 29.168 0 9.0234-5.2109 14.582-14.84 14.582-25.262z"/>
  <path d="m163.33 157.5c-7.7305 0.011719-15.141 3.0898-20.609 8.5547-5.4648 5.4688-8.543 12.879-8.5547 20.613v186.67-0.003907c0 10.422 5.5586 20.051 14.582 25.262 9.0234 5.207 20.141 5.207 29.168 0 9.0234-5.2109 14.582-14.84 14.582-25.262v-186.66c-0.011719-7.7344-3.0898-15.145-8.5547-20.613-5.4688-5.4648-12.879-8.543-20.613-8.5547z"/>
  <path d="m285.83 443.33v-326.66c0-10.422-5.5586-20.051-14.582-25.262-9.0234-5.207-20.141-5.207-29.168 0-9.0234 5.2109-14.582 14.84-14.582 25.262v326.66c0 10.422 5.5586 20.051 14.582 25.262 9.0273 5.207 20.145 5.207 29.168 0 9.0234-5.2109 14.582-14.84 14.582-25.262z"/>
  <path d="m472.5 443.33v-326.66c0-10.422-5.5586-20.051-14.582-25.262-9.0273-5.207-20.145-5.207-29.168 0-9.0234 5.2109-14.582 14.84-14.582 25.262v326.66c0 10.422 5.5586 20.051 14.582 25.262 9.0234 5.207 20.141 5.207 29.168 0 9.0234-5.2109 14.582-14.84 14.582-25.262z"/>
 </g>
</svg>
